%TF.GenerationSoftware,KiCad,Pcbnew,8.0.6*%
%TF.CreationDate,2026-02-10T22:10:33+01:00*%
%TF.ProjectId,keyboard,6b657962-6f61-4726-942e-6b696361645f,rev?*%
%TF.SameCoordinates,Original*%
%TF.FileFunction,Paste,Bot*%
%TF.FilePolarity,Positive*%
%FSLAX46Y46*%
G04 Gerber Fmt 4.6, Leading zero omitted, Abs format (unit mm)*
G04 Created by KiCad (PCBNEW 8.0.6) date 2026-02-10 22:10:33*
%MOMM*%
%LPD*%
G01*
G04 APERTURE LIST*
%ADD10R,2.550000X2.500000*%
G04 APERTURE END LIST*
D10*
%TO.C,SW6*%
X142940000Y-41960000D03*
X156790000Y-39420000D03*
%TD*%
%TO.C,SW29*%
X109606667Y-81960000D03*
X123456667Y-79420000D03*
%TD*%
%TO.C,SW35*%
X229606667Y-81960000D03*
X243456667Y-79420000D03*
%TD*%
%TO.C,SW4*%
X102940000Y-41960000D03*
X116790000Y-39420000D03*
%TD*%
%TO.C,SW13*%
X36273333Y-61960000D03*
X50123333Y-59420000D03*
%TD*%
%TO.C,SW1*%
X42940000Y-41960000D03*
X56790000Y-39420000D03*
%TD*%
%TO.C,SW20*%
X176273333Y-61960000D03*
X190123333Y-59420000D03*
%TD*%
%TO.C,SW5*%
X122940000Y-41960000D03*
X136790000Y-39420000D03*
%TD*%
%TO.C,SW36*%
X249606667Y-81960000D03*
X263456667Y-79420000D03*
%TD*%
%TO.C,SW12*%
X262940000Y-41960000D03*
X276790000Y-39420000D03*
%TD*%
%TO.C,SW3*%
X82940000Y-41960000D03*
X96790000Y-39420000D03*
%TD*%
%TO.C,SW23*%
X236273333Y-61960000D03*
X250123333Y-59420000D03*
%TD*%
%TO.C,SW17*%
X116273333Y-61960000D03*
X130123333Y-59420000D03*
%TD*%
%TO.C,SW33*%
X189606667Y-81960000D03*
X203456667Y-79420000D03*
%TD*%
%TO.C,SW18*%
X136273333Y-61960000D03*
X150123333Y-59420000D03*
%TD*%
%TO.C,SW34*%
X209606667Y-81960000D03*
X223456667Y-79420000D03*
%TD*%
%TO.C,SW26*%
X49606667Y-81960000D03*
X63456667Y-79420000D03*
%TD*%
%TO.C,SW24*%
X256273333Y-61960000D03*
X270123333Y-59420000D03*
%TD*%
%TO.C,SW21*%
X196273333Y-61960000D03*
X210123333Y-59420000D03*
%TD*%
%TO.C,SW11*%
X242940000Y-41960000D03*
X256790000Y-39420000D03*
%TD*%
%TO.C,SW27*%
X69606667Y-81960000D03*
X83456667Y-79420000D03*
%TD*%
%TO.C,SW2*%
X62940000Y-41960000D03*
X76790000Y-39420000D03*
%TD*%
%TO.C,SW10*%
X222940000Y-41960000D03*
X236790000Y-39420000D03*
%TD*%
%TO.C,SW28*%
X89606667Y-81960000D03*
X103456667Y-79420000D03*
%TD*%
%TO.C,SW32*%
X169606667Y-81960000D03*
X183456667Y-79420000D03*
%TD*%
%TO.C,SW19*%
X156273333Y-61960000D03*
X170123333Y-59420000D03*
%TD*%
%TO.C,SW31*%
X149606667Y-81960000D03*
X163456667Y-79420000D03*
%TD*%
%TO.C,SW30*%
X129606667Y-81960000D03*
X143456667Y-79420000D03*
%TD*%
%TO.C,SW22*%
X216273333Y-61960000D03*
X230123333Y-59420000D03*
%TD*%
%TO.C,SW8*%
X182940000Y-41960000D03*
X196790000Y-39420000D03*
%TD*%
%TO.C,SW7*%
X162940000Y-41960000D03*
X176790000Y-39420000D03*
%TD*%
%TO.C,SW16*%
X96273333Y-61960000D03*
X110123333Y-59420000D03*
%TD*%
%TO.C,SW25*%
X29606667Y-81960000D03*
X43456667Y-79420000D03*
%TD*%
%TO.C,SW9*%
X202940000Y-41960000D03*
X216790000Y-39420000D03*
%TD*%
%TO.C,SW14*%
X56273333Y-61960000D03*
X70123333Y-59420000D03*
%TD*%
%TO.C,SW15*%
X76273333Y-61960000D03*
X90123333Y-59420000D03*
%TD*%
M02*
