%TF.GenerationSoftware,KiCad,Pcbnew,8.0.6*%
%TF.CreationDate,2026-02-10T22:10:20+01:00*%
%TF.ProjectId,keyboard,6b657962-6f61-4726-942e-6b696361645f,rev?*%
%TF.SameCoordinates,Original*%
%TF.FileFunction,Drillmap*%
%TF.FilePolarity,Positive*%
%FSLAX45Y45*%
G04 Gerber Fmt 4.5, Leading zero omitted, Abs format (unit mm)*
G04 Created by KiCad (PCBNEW 8.0.6) date 2026-02-10 22:10:20*
%MOMM*%
%LPD*%
G01*
G04 APERTURE LIST*
%ADD10C,0.050000*%
%ADD11C,0.200000*%
%ADD12C,0.100000*%
G04 APERTURE END LIST*
D10*
X2750000Y-3000000D02*
X27900000Y-3000000D01*
X27900000Y-9400000D01*
X2750000Y-9400000D01*
X2750000Y-3000000D01*
D11*
D12*
X3785000Y-5285000D02*
X3815000Y-5315000D01*
X3815000Y-5285000D02*
X3785000Y-5315000D01*
X3835000Y-3235000D02*
X3865000Y-3265000D01*
X3865000Y-3235000D02*
X3835000Y-3265000D01*
X4685000Y-9135000D02*
X4715000Y-9165000D01*
X4715000Y-9135000D02*
X4685000Y-9165000D01*
X3375667Y-7500000D02*
G75*
G02*
X3295667Y-7500000I-40000J0D01*
G01*
X3295667Y-7500000D02*
G75*
G02*
X3375667Y-7500000I40000J0D01*
G01*
X4042333Y-5500000D02*
G75*
G02*
X3962333Y-5500000I-40000J0D01*
G01*
X3962333Y-5500000D02*
G75*
G02*
X4042333Y-5500000I40000J0D01*
G01*
X4137667Y-7500000D02*
G75*
G02*
X4057667Y-7500000I-40000J0D01*
G01*
X4057667Y-7500000D02*
G75*
G02*
X4137667Y-7500000I40000J0D01*
G01*
X4709000Y-3500000D02*
G75*
G02*
X4629000Y-3500000I-40000J0D01*
G01*
X4629000Y-3500000D02*
G75*
G02*
X4709000Y-3500000I40000J0D01*
G01*
X4804333Y-5500000D02*
G75*
G02*
X4724333Y-5500000I-40000J0D01*
G01*
X4724333Y-5500000D02*
G75*
G02*
X4804333Y-5500000I40000J0D01*
G01*
X5375667Y-7500000D02*
G75*
G02*
X5295667Y-7500000I-40000J0D01*
G01*
X5295667Y-7500000D02*
G75*
G02*
X5375667Y-7500000I40000J0D01*
G01*
X5471000Y-3500000D02*
G75*
G02*
X5391000Y-3500000I-40000J0D01*
G01*
X5391000Y-3500000D02*
G75*
G02*
X5471000Y-3500000I40000J0D01*
G01*
X6042333Y-5500000D02*
G75*
G02*
X5962333Y-5500000I-40000J0D01*
G01*
X5962333Y-5500000D02*
G75*
G02*
X6042333Y-5500000I40000J0D01*
G01*
X6137667Y-7500000D02*
G75*
G02*
X6057667Y-7500000I-40000J0D01*
G01*
X6057667Y-7500000D02*
G75*
G02*
X6137667Y-7500000I40000J0D01*
G01*
X6709000Y-3500000D02*
G75*
G02*
X6629000Y-3500000I-40000J0D01*
G01*
X6629000Y-3500000D02*
G75*
G02*
X6709000Y-3500000I40000J0D01*
G01*
X6804333Y-5500000D02*
G75*
G02*
X6724333Y-5500000I-40000J0D01*
G01*
X6724333Y-5500000D02*
G75*
G02*
X6804333Y-5500000I40000J0D01*
G01*
X7375667Y-7500000D02*
G75*
G02*
X7295667Y-7500000I-40000J0D01*
G01*
X7295667Y-7500000D02*
G75*
G02*
X7375667Y-7500000I40000J0D01*
G01*
X7471000Y-3500000D02*
G75*
G02*
X7391000Y-3500000I-40000J0D01*
G01*
X7391000Y-3500000D02*
G75*
G02*
X7471000Y-3500000I40000J0D01*
G01*
X8042333Y-5500000D02*
G75*
G02*
X7962333Y-5500000I-40000J0D01*
G01*
X7962333Y-5500000D02*
G75*
G02*
X8042333Y-5500000I40000J0D01*
G01*
X8137667Y-7500000D02*
G75*
G02*
X8057667Y-7500000I-40000J0D01*
G01*
X8057667Y-7500000D02*
G75*
G02*
X8137667Y-7500000I40000J0D01*
G01*
X8709000Y-3500000D02*
G75*
G02*
X8629000Y-3500000I-40000J0D01*
G01*
X8629000Y-3500000D02*
G75*
G02*
X8709000Y-3500000I40000J0D01*
G01*
X8804333Y-5500000D02*
G75*
G02*
X8724333Y-5500000I-40000J0D01*
G01*
X8724333Y-5500000D02*
G75*
G02*
X8804333Y-5500000I40000J0D01*
G01*
X9375667Y-7500000D02*
G75*
G02*
X9295667Y-7500000I-40000J0D01*
G01*
X9295667Y-7500000D02*
G75*
G02*
X9375667Y-7500000I40000J0D01*
G01*
X9471000Y-3500000D02*
G75*
G02*
X9391000Y-3500000I-40000J0D01*
G01*
X9391000Y-3500000D02*
G75*
G02*
X9471000Y-3500000I40000J0D01*
G01*
X10042333Y-5500000D02*
G75*
G02*
X9962333Y-5500000I-40000J0D01*
G01*
X9962333Y-5500000D02*
G75*
G02*
X10042333Y-5500000I40000J0D01*
G01*
X10137667Y-7500000D02*
G75*
G02*
X10057667Y-7500000I-40000J0D01*
G01*
X10057667Y-7500000D02*
G75*
G02*
X10137667Y-7500000I40000J0D01*
G01*
X10709000Y-3500000D02*
G75*
G02*
X10629000Y-3500000I-40000J0D01*
G01*
X10629000Y-3500000D02*
G75*
G02*
X10709000Y-3500000I40000J0D01*
G01*
X10804333Y-5500000D02*
G75*
G02*
X10724333Y-5500000I-40000J0D01*
G01*
X10724333Y-5500000D02*
G75*
G02*
X10804333Y-5500000I40000J0D01*
G01*
X11375667Y-7500000D02*
G75*
G02*
X11295667Y-7500000I-40000J0D01*
G01*
X11295667Y-7500000D02*
G75*
G02*
X11375667Y-7500000I40000J0D01*
G01*
X11471000Y-3500000D02*
G75*
G02*
X11391000Y-3500000I-40000J0D01*
G01*
X11391000Y-3500000D02*
G75*
G02*
X11471000Y-3500000I40000J0D01*
G01*
X12042333Y-5500000D02*
G75*
G02*
X11962333Y-5500000I-40000J0D01*
G01*
X11962333Y-5500000D02*
G75*
G02*
X12042333Y-5500000I40000J0D01*
G01*
X12137667Y-7500000D02*
G75*
G02*
X12057667Y-7500000I-40000J0D01*
G01*
X12057667Y-7500000D02*
G75*
G02*
X12137667Y-7500000I40000J0D01*
G01*
X12709000Y-3500000D02*
G75*
G02*
X12629000Y-3500000I-40000J0D01*
G01*
X12629000Y-3500000D02*
G75*
G02*
X12709000Y-3500000I40000J0D01*
G01*
X12804333Y-5500000D02*
G75*
G02*
X12724333Y-5500000I-40000J0D01*
G01*
X12724333Y-5500000D02*
G75*
G02*
X12804333Y-5500000I40000J0D01*
G01*
X13375667Y-7500000D02*
G75*
G02*
X13295667Y-7500000I-40000J0D01*
G01*
X13295667Y-7500000D02*
G75*
G02*
X13375667Y-7500000I40000J0D01*
G01*
X13471000Y-3500000D02*
G75*
G02*
X13391000Y-3500000I-40000J0D01*
G01*
X13391000Y-3500000D02*
G75*
G02*
X13471000Y-3500000I40000J0D01*
G01*
X14042333Y-5500000D02*
G75*
G02*
X13962333Y-5500000I-40000J0D01*
G01*
X13962333Y-5500000D02*
G75*
G02*
X14042333Y-5500000I40000J0D01*
G01*
X14137667Y-7500000D02*
G75*
G02*
X14057667Y-7500000I-40000J0D01*
G01*
X14057667Y-7500000D02*
G75*
G02*
X14137667Y-7500000I40000J0D01*
G01*
X14709000Y-3500000D02*
G75*
G02*
X14629000Y-3500000I-40000J0D01*
G01*
X14629000Y-3500000D02*
G75*
G02*
X14709000Y-3500000I40000J0D01*
G01*
X14804333Y-5500000D02*
G75*
G02*
X14724333Y-5500000I-40000J0D01*
G01*
X14724333Y-5500000D02*
G75*
G02*
X14804333Y-5500000I40000J0D01*
G01*
X15375667Y-7500000D02*
G75*
G02*
X15295667Y-7500000I-40000J0D01*
G01*
X15295667Y-7500000D02*
G75*
G02*
X15375667Y-7500000I40000J0D01*
G01*
X15471000Y-3500000D02*
G75*
G02*
X15391000Y-3500000I-40000J0D01*
G01*
X15391000Y-3500000D02*
G75*
G02*
X15471000Y-3500000I40000J0D01*
G01*
X16042333Y-5500000D02*
G75*
G02*
X15962333Y-5500000I-40000J0D01*
G01*
X15962333Y-5500000D02*
G75*
G02*
X16042333Y-5500000I40000J0D01*
G01*
X16137667Y-7500000D02*
G75*
G02*
X16057667Y-7500000I-40000J0D01*
G01*
X16057667Y-7500000D02*
G75*
G02*
X16137667Y-7500000I40000J0D01*
G01*
X16709000Y-3500000D02*
G75*
G02*
X16629000Y-3500000I-40000J0D01*
G01*
X16629000Y-3500000D02*
G75*
G02*
X16709000Y-3500000I40000J0D01*
G01*
X16804333Y-5500000D02*
G75*
G02*
X16724333Y-5500000I-40000J0D01*
G01*
X16724333Y-5500000D02*
G75*
G02*
X16804333Y-5500000I40000J0D01*
G01*
X17375667Y-7500000D02*
G75*
G02*
X17295667Y-7500000I-40000J0D01*
G01*
X17295667Y-7500000D02*
G75*
G02*
X17375667Y-7500000I40000J0D01*
G01*
X17471000Y-3500000D02*
G75*
G02*
X17391000Y-3500000I-40000J0D01*
G01*
X17391000Y-3500000D02*
G75*
G02*
X17471000Y-3500000I40000J0D01*
G01*
X18042333Y-5500000D02*
G75*
G02*
X17962333Y-5500000I-40000J0D01*
G01*
X17962333Y-5500000D02*
G75*
G02*
X18042333Y-5500000I40000J0D01*
G01*
X18137667Y-7500000D02*
G75*
G02*
X18057667Y-7500000I-40000J0D01*
G01*
X18057667Y-7500000D02*
G75*
G02*
X18137667Y-7500000I40000J0D01*
G01*
X18709000Y-3500000D02*
G75*
G02*
X18629000Y-3500000I-40000J0D01*
G01*
X18629000Y-3500000D02*
G75*
G02*
X18709000Y-3500000I40000J0D01*
G01*
X18804333Y-5500000D02*
G75*
G02*
X18724333Y-5500000I-40000J0D01*
G01*
X18724333Y-5500000D02*
G75*
G02*
X18804333Y-5500000I40000J0D01*
G01*
X19375667Y-7500000D02*
G75*
G02*
X19295667Y-7500000I-40000J0D01*
G01*
X19295667Y-7500000D02*
G75*
G02*
X19375667Y-7500000I40000J0D01*
G01*
X19471000Y-3500000D02*
G75*
G02*
X19391000Y-3500000I-40000J0D01*
G01*
X19391000Y-3500000D02*
G75*
G02*
X19471000Y-3500000I40000J0D01*
G01*
X20042333Y-5500000D02*
G75*
G02*
X19962333Y-5500000I-40000J0D01*
G01*
X19962333Y-5500000D02*
G75*
G02*
X20042333Y-5500000I40000J0D01*
G01*
X20137667Y-7500000D02*
G75*
G02*
X20057667Y-7500000I-40000J0D01*
G01*
X20057667Y-7500000D02*
G75*
G02*
X20137667Y-7500000I40000J0D01*
G01*
X20709000Y-3500000D02*
G75*
G02*
X20629000Y-3500000I-40000J0D01*
G01*
X20629000Y-3500000D02*
G75*
G02*
X20709000Y-3500000I40000J0D01*
G01*
X20804333Y-5500000D02*
G75*
G02*
X20724333Y-5500000I-40000J0D01*
G01*
X20724333Y-5500000D02*
G75*
G02*
X20804333Y-5500000I40000J0D01*
G01*
X21375667Y-7500000D02*
G75*
G02*
X21295667Y-7500000I-40000J0D01*
G01*
X21295667Y-7500000D02*
G75*
G02*
X21375667Y-7500000I40000J0D01*
G01*
X21471000Y-3500000D02*
G75*
G02*
X21391000Y-3500000I-40000J0D01*
G01*
X21391000Y-3500000D02*
G75*
G02*
X21471000Y-3500000I40000J0D01*
G01*
X22042333Y-5500000D02*
G75*
G02*
X21962333Y-5500000I-40000J0D01*
G01*
X21962333Y-5500000D02*
G75*
G02*
X22042333Y-5500000I40000J0D01*
G01*
X22137667Y-7500000D02*
G75*
G02*
X22057667Y-7500000I-40000J0D01*
G01*
X22057667Y-7500000D02*
G75*
G02*
X22137667Y-7500000I40000J0D01*
G01*
X22709000Y-3500000D02*
G75*
G02*
X22629000Y-3500000I-40000J0D01*
G01*
X22629000Y-3500000D02*
G75*
G02*
X22709000Y-3500000I40000J0D01*
G01*
X22804333Y-5500000D02*
G75*
G02*
X22724333Y-5500000I-40000J0D01*
G01*
X22724333Y-5500000D02*
G75*
G02*
X22804333Y-5500000I40000J0D01*
G01*
X23375667Y-7500000D02*
G75*
G02*
X23295667Y-7500000I-40000J0D01*
G01*
X23295667Y-7500000D02*
G75*
G02*
X23375667Y-7500000I40000J0D01*
G01*
X23471000Y-3500000D02*
G75*
G02*
X23391000Y-3500000I-40000J0D01*
G01*
X23391000Y-3500000D02*
G75*
G02*
X23471000Y-3500000I40000J0D01*
G01*
X24042333Y-5500000D02*
G75*
G02*
X23962333Y-5500000I-40000J0D01*
G01*
X23962333Y-5500000D02*
G75*
G02*
X24042333Y-5500000I40000J0D01*
G01*
X24137667Y-7500000D02*
G75*
G02*
X24057667Y-7500000I-40000J0D01*
G01*
X24057667Y-7500000D02*
G75*
G02*
X24137667Y-7500000I40000J0D01*
G01*
X24709000Y-3500000D02*
G75*
G02*
X24629000Y-3500000I-40000J0D01*
G01*
X24629000Y-3500000D02*
G75*
G02*
X24709000Y-3500000I40000J0D01*
G01*
X24804333Y-5500000D02*
G75*
G02*
X24724333Y-5500000I-40000J0D01*
G01*
X24724333Y-5500000D02*
G75*
G02*
X24804333Y-5500000I40000J0D01*
G01*
X25375667Y-7500000D02*
G75*
G02*
X25295667Y-7500000I-40000J0D01*
G01*
X25295667Y-7500000D02*
G75*
G02*
X25375667Y-7500000I40000J0D01*
G01*
X25471000Y-3500000D02*
G75*
G02*
X25391000Y-3500000I-40000J0D01*
G01*
X25391000Y-3500000D02*
G75*
G02*
X25471000Y-3500000I40000J0D01*
G01*
X26042333Y-5500000D02*
G75*
G02*
X25962333Y-5500000I-40000J0D01*
G01*
X25962333Y-5500000D02*
G75*
G02*
X26042333Y-5500000I40000J0D01*
G01*
X26137667Y-7500000D02*
G75*
G02*
X26057667Y-7500000I-40000J0D01*
G01*
X26057667Y-7500000D02*
G75*
G02*
X26137667Y-7500000I40000J0D01*
G01*
X26709000Y-3500000D02*
G75*
G02*
X26629000Y-3500000I-40000J0D01*
G01*
X26629000Y-3500000D02*
G75*
G02*
X26709000Y-3500000I40000J0D01*
G01*
X26804333Y-5500000D02*
G75*
G02*
X26724333Y-5500000I-40000J0D01*
G01*
X26724333Y-5500000D02*
G75*
G02*
X26804333Y-5500000I40000J0D01*
G01*
X27471000Y-3500000D02*
G75*
G02*
X27391000Y-3500000I-40000J0D01*
G01*
X27391000Y-3500000D02*
G75*
G02*
X27471000Y-3500000I40000J0D01*
G01*
X3296000Y-3496000D02*
X3296000Y-3596000D01*
X3246000Y-3546000D02*
X3346000Y-3546000D01*
X3296000Y-3750000D02*
X3296000Y-3850000D01*
X3246000Y-3800000D02*
X3346000Y-3800000D01*
X3296000Y-4004000D02*
X3296000Y-4104000D01*
X3246000Y-4054000D02*
X3346000Y-4054000D01*
X3296000Y-4258000D02*
X3296000Y-4358000D01*
X3246000Y-4308000D02*
X3346000Y-4308000D01*
X3296000Y-4512000D02*
X3296000Y-4612000D01*
X3246000Y-4562000D02*
X3346000Y-4562000D01*
X3296000Y-4766000D02*
X3296000Y-4866000D01*
X3246000Y-4816000D02*
X3346000Y-4816000D01*
X3296000Y-5020000D02*
X3296000Y-5120000D01*
X3246000Y-5070000D02*
X3346000Y-5070000D01*
X3296000Y-5274000D02*
X3296000Y-5374000D01*
X3246000Y-5324000D02*
X3346000Y-5324000D01*
X3550000Y-3496000D02*
X3550000Y-3596000D01*
X3500000Y-3546000D02*
X3600000Y-3546000D01*
X3550000Y-3750000D02*
X3550000Y-3850000D01*
X3500000Y-3800000D02*
X3600000Y-3800000D01*
X3550000Y-4004000D02*
X3550000Y-4104000D01*
X3500000Y-4054000D02*
X3600000Y-4054000D01*
X3550000Y-4258000D02*
X3550000Y-4358000D01*
X3500000Y-4308000D02*
X3600000Y-4308000D01*
X3550000Y-4512000D02*
X3550000Y-4612000D01*
X3500000Y-4562000D02*
X3600000Y-4562000D01*
X3550000Y-4766000D02*
X3550000Y-4866000D01*
X3500000Y-4816000D02*
X3600000Y-4816000D01*
X3550000Y-5020000D02*
X3550000Y-5120000D01*
X3500000Y-5070000D02*
X3600000Y-5070000D01*
X3550000Y-5274000D02*
X3550000Y-5374000D01*
X3500000Y-5324000D02*
X3600000Y-5324000D01*
D11*
X3008277Y-9713984D02*
X3008277Y-9513984D01*
X3008277Y-9513984D02*
X3055896Y-9513984D01*
X3055896Y-9513984D02*
X3084467Y-9523508D01*
X3084467Y-9523508D02*
X3103515Y-9542555D01*
X3103515Y-9542555D02*
X3113039Y-9561603D01*
X3113039Y-9561603D02*
X3122562Y-9599698D01*
X3122562Y-9599698D02*
X3122562Y-9628270D01*
X3122562Y-9628270D02*
X3113039Y-9666365D01*
X3113039Y-9666365D02*
X3103515Y-9685412D01*
X3103515Y-9685412D02*
X3084467Y-9704460D01*
X3084467Y-9704460D02*
X3055896Y-9713984D01*
X3055896Y-9713984D02*
X3008277Y-9713984D01*
X3208277Y-9713984D02*
X3208277Y-9580650D01*
X3208277Y-9618746D02*
X3217801Y-9599698D01*
X3217801Y-9599698D02*
X3227324Y-9590174D01*
X3227324Y-9590174D02*
X3246372Y-9580650D01*
X3246372Y-9580650D02*
X3265420Y-9580650D01*
X3332086Y-9713984D02*
X3332086Y-9580650D01*
X3332086Y-9513984D02*
X3322562Y-9523508D01*
X3322562Y-9523508D02*
X3332086Y-9533031D01*
X3332086Y-9533031D02*
X3341610Y-9523508D01*
X3341610Y-9523508D02*
X3332086Y-9513984D01*
X3332086Y-9513984D02*
X3332086Y-9533031D01*
X3455896Y-9713984D02*
X3436848Y-9704460D01*
X3436848Y-9704460D02*
X3427324Y-9685412D01*
X3427324Y-9685412D02*
X3427324Y-9513984D01*
X3560658Y-9713984D02*
X3541610Y-9704460D01*
X3541610Y-9704460D02*
X3532086Y-9685412D01*
X3532086Y-9685412D02*
X3532086Y-9513984D01*
X3789229Y-9713984D02*
X3789229Y-9513984D01*
X3789229Y-9513984D02*
X3855896Y-9656841D01*
X3855896Y-9656841D02*
X3922562Y-9513984D01*
X3922562Y-9513984D02*
X3922562Y-9713984D01*
X4103515Y-9713984D02*
X4103515Y-9609222D01*
X4103515Y-9609222D02*
X4093991Y-9590174D01*
X4093991Y-9590174D02*
X4074943Y-9580650D01*
X4074943Y-9580650D02*
X4036848Y-9580650D01*
X4036848Y-9580650D02*
X4017801Y-9590174D01*
X4103515Y-9704460D02*
X4084467Y-9713984D01*
X4084467Y-9713984D02*
X4036848Y-9713984D01*
X4036848Y-9713984D02*
X4017801Y-9704460D01*
X4017801Y-9704460D02*
X4008277Y-9685412D01*
X4008277Y-9685412D02*
X4008277Y-9666365D01*
X4008277Y-9666365D02*
X4017801Y-9647317D01*
X4017801Y-9647317D02*
X4036848Y-9637793D01*
X4036848Y-9637793D02*
X4084467Y-9637793D01*
X4084467Y-9637793D02*
X4103515Y-9628270D01*
X4198753Y-9580650D02*
X4198753Y-9780650D01*
X4198753Y-9590174D02*
X4217801Y-9580650D01*
X4217801Y-9580650D02*
X4255896Y-9580650D01*
X4255896Y-9580650D02*
X4274944Y-9590174D01*
X4274944Y-9590174D02*
X4284467Y-9599698D01*
X4284467Y-9599698D02*
X4293991Y-9618746D01*
X4293991Y-9618746D02*
X4293991Y-9675889D01*
X4293991Y-9675889D02*
X4284467Y-9694936D01*
X4284467Y-9694936D02*
X4274944Y-9704460D01*
X4274944Y-9704460D02*
X4255896Y-9713984D01*
X4255896Y-9713984D02*
X4217801Y-9713984D01*
X4217801Y-9713984D02*
X4198753Y-9704460D01*
X4379705Y-9694936D02*
X4389229Y-9704460D01*
X4389229Y-9704460D02*
X4379705Y-9713984D01*
X4379705Y-9713984D02*
X4370182Y-9704460D01*
X4370182Y-9704460D02*
X4379705Y-9694936D01*
X4379705Y-9694936D02*
X4379705Y-9713984D01*
X4379705Y-9590174D02*
X4389229Y-9599698D01*
X4389229Y-9599698D02*
X4379705Y-9609222D01*
X4379705Y-9609222D02*
X4370182Y-9599698D01*
X4370182Y-9599698D02*
X4379705Y-9590174D01*
X4379705Y-9590174D02*
X4379705Y-9609222D01*
D12*
X2717500Y-10027500D02*
X2747500Y-10057500D01*
X2747500Y-10027500D02*
X2717500Y-10057500D01*
D11*
X3046372Y-9933984D02*
X3065420Y-9933984D01*
X3065420Y-9933984D02*
X3084467Y-9943508D01*
X3084467Y-9943508D02*
X3093991Y-9953031D01*
X3093991Y-9953031D02*
X3103515Y-9972079D01*
X3103515Y-9972079D02*
X3113039Y-10010174D01*
X3113039Y-10010174D02*
X3113039Y-10057793D01*
X3113039Y-10057793D02*
X3103515Y-10095889D01*
X3103515Y-10095889D02*
X3093991Y-10114936D01*
X3093991Y-10114936D02*
X3084467Y-10124460D01*
X3084467Y-10124460D02*
X3065420Y-10133984D01*
X3065420Y-10133984D02*
X3046372Y-10133984D01*
X3046372Y-10133984D02*
X3027324Y-10124460D01*
X3027324Y-10124460D02*
X3017801Y-10114936D01*
X3017801Y-10114936D02*
X3008277Y-10095889D01*
X3008277Y-10095889D02*
X2998753Y-10057793D01*
X2998753Y-10057793D02*
X2998753Y-10010174D01*
X2998753Y-10010174D02*
X3008277Y-9972079D01*
X3008277Y-9972079D02*
X3017801Y-9953031D01*
X3017801Y-9953031D02*
X3027324Y-9943508D01*
X3027324Y-9943508D02*
X3046372Y-9933984D01*
X3198753Y-10114936D02*
X3208277Y-10124460D01*
X3208277Y-10124460D02*
X3198753Y-10133984D01*
X3198753Y-10133984D02*
X3189229Y-10124460D01*
X3189229Y-10124460D02*
X3198753Y-10114936D01*
X3198753Y-10114936D02*
X3198753Y-10133984D01*
X3274943Y-9933984D02*
X3398753Y-9933984D01*
X3398753Y-9933984D02*
X3332086Y-10010174D01*
X3332086Y-10010174D02*
X3360658Y-10010174D01*
X3360658Y-10010174D02*
X3379705Y-10019698D01*
X3379705Y-10019698D02*
X3389229Y-10029222D01*
X3389229Y-10029222D02*
X3398753Y-10048270D01*
X3398753Y-10048270D02*
X3398753Y-10095889D01*
X3398753Y-10095889D02*
X3389229Y-10114936D01*
X3389229Y-10114936D02*
X3379705Y-10124460D01*
X3379705Y-10124460D02*
X3360658Y-10133984D01*
X3360658Y-10133984D02*
X3303515Y-10133984D01*
X3303515Y-10133984D02*
X3284467Y-10124460D01*
X3284467Y-10124460D02*
X3274943Y-10114936D01*
X3522562Y-9933984D02*
X3541610Y-9933984D01*
X3541610Y-9933984D02*
X3560658Y-9943508D01*
X3560658Y-9943508D02*
X3570182Y-9953031D01*
X3570182Y-9953031D02*
X3579705Y-9972079D01*
X3579705Y-9972079D02*
X3589229Y-10010174D01*
X3589229Y-10010174D02*
X3589229Y-10057793D01*
X3589229Y-10057793D02*
X3579705Y-10095889D01*
X3579705Y-10095889D02*
X3570182Y-10114936D01*
X3570182Y-10114936D02*
X3560658Y-10124460D01*
X3560658Y-10124460D02*
X3541610Y-10133984D01*
X3541610Y-10133984D02*
X3522562Y-10133984D01*
X3522562Y-10133984D02*
X3503515Y-10124460D01*
X3503515Y-10124460D02*
X3493991Y-10114936D01*
X3493991Y-10114936D02*
X3484467Y-10095889D01*
X3484467Y-10095889D02*
X3474943Y-10057793D01*
X3474943Y-10057793D02*
X3474943Y-10010174D01*
X3474943Y-10010174D02*
X3484467Y-9972079D01*
X3484467Y-9972079D02*
X3493991Y-9953031D01*
X3493991Y-9953031D02*
X3503515Y-9943508D01*
X3503515Y-9943508D02*
X3522562Y-9933984D01*
X3713039Y-9933984D02*
X3732086Y-9933984D01*
X3732086Y-9933984D02*
X3751134Y-9943508D01*
X3751134Y-9943508D02*
X3760658Y-9953031D01*
X3760658Y-9953031D02*
X3770182Y-9972079D01*
X3770182Y-9972079D02*
X3779705Y-10010174D01*
X3779705Y-10010174D02*
X3779705Y-10057793D01*
X3779705Y-10057793D02*
X3770182Y-10095889D01*
X3770182Y-10095889D02*
X3760658Y-10114936D01*
X3760658Y-10114936D02*
X3751134Y-10124460D01*
X3751134Y-10124460D02*
X3732086Y-10133984D01*
X3732086Y-10133984D02*
X3713039Y-10133984D01*
X3713039Y-10133984D02*
X3693991Y-10124460D01*
X3693991Y-10124460D02*
X3684467Y-10114936D01*
X3684467Y-10114936D02*
X3674943Y-10095889D01*
X3674943Y-10095889D02*
X3665420Y-10057793D01*
X3665420Y-10057793D02*
X3665420Y-10010174D01*
X3665420Y-10010174D02*
X3674943Y-9972079D01*
X3674943Y-9972079D02*
X3684467Y-9953031D01*
X3684467Y-9953031D02*
X3693991Y-9943508D01*
X3693991Y-9943508D02*
X3713039Y-9933984D01*
X3865420Y-10133984D02*
X3865420Y-10000650D01*
X3865420Y-10019698D02*
X3874943Y-10010174D01*
X3874943Y-10010174D02*
X3893991Y-10000650D01*
X3893991Y-10000650D02*
X3922563Y-10000650D01*
X3922563Y-10000650D02*
X3941610Y-10010174D01*
X3941610Y-10010174D02*
X3951134Y-10029222D01*
X3951134Y-10029222D02*
X3951134Y-10133984D01*
X3951134Y-10029222D02*
X3960658Y-10010174D01*
X3960658Y-10010174D02*
X3979705Y-10000650D01*
X3979705Y-10000650D02*
X4008277Y-10000650D01*
X4008277Y-10000650D02*
X4027324Y-10010174D01*
X4027324Y-10010174D02*
X4036848Y-10029222D01*
X4036848Y-10029222D02*
X4036848Y-10133984D01*
X4132086Y-10133984D02*
X4132086Y-10000650D01*
X4132086Y-10019698D02*
X4141610Y-10010174D01*
X4141610Y-10010174D02*
X4160658Y-10000650D01*
X4160658Y-10000650D02*
X4189229Y-10000650D01*
X4189229Y-10000650D02*
X4208277Y-10010174D01*
X4208277Y-10010174D02*
X4217801Y-10029222D01*
X4217801Y-10029222D02*
X4217801Y-10133984D01*
X4217801Y-10029222D02*
X4227325Y-10010174D01*
X4227325Y-10010174D02*
X4246372Y-10000650D01*
X4246372Y-10000650D02*
X4274944Y-10000650D01*
X4274944Y-10000650D02*
X4293991Y-10010174D01*
X4293991Y-10010174D02*
X4303515Y-10029222D01*
X4303515Y-10029222D02*
X4303515Y-10133984D01*
X4693991Y-9924460D02*
X4522563Y-10181603D01*
X4951134Y-9933984D02*
X4970182Y-9933984D01*
X4970182Y-9933984D02*
X4989229Y-9943508D01*
X4989229Y-9943508D02*
X4998753Y-9953031D01*
X4998753Y-9953031D02*
X5008277Y-9972079D01*
X5008277Y-9972079D02*
X5017801Y-10010174D01*
X5017801Y-10010174D02*
X5017801Y-10057793D01*
X5017801Y-10057793D02*
X5008277Y-10095889D01*
X5008277Y-10095889D02*
X4998753Y-10114936D01*
X4998753Y-10114936D02*
X4989229Y-10124460D01*
X4989229Y-10124460D02*
X4970182Y-10133984D01*
X4970182Y-10133984D02*
X4951134Y-10133984D01*
X4951134Y-10133984D02*
X4932087Y-10124460D01*
X4932087Y-10124460D02*
X4922563Y-10114936D01*
X4922563Y-10114936D02*
X4913039Y-10095889D01*
X4913039Y-10095889D02*
X4903515Y-10057793D01*
X4903515Y-10057793D02*
X4903515Y-10010174D01*
X4903515Y-10010174D02*
X4913039Y-9972079D01*
X4913039Y-9972079D02*
X4922563Y-9953031D01*
X4922563Y-9953031D02*
X4932087Y-9943508D01*
X4932087Y-9943508D02*
X4951134Y-9933984D01*
X5103515Y-10114936D02*
X5113039Y-10124460D01*
X5113039Y-10124460D02*
X5103515Y-10133984D01*
X5103515Y-10133984D02*
X5093991Y-10124460D01*
X5093991Y-10124460D02*
X5103515Y-10114936D01*
X5103515Y-10114936D02*
X5103515Y-10133984D01*
X5236848Y-9933984D02*
X5255896Y-9933984D01*
X5255896Y-9933984D02*
X5274944Y-9943508D01*
X5274944Y-9943508D02*
X5284468Y-9953031D01*
X5284468Y-9953031D02*
X5293991Y-9972079D01*
X5293991Y-9972079D02*
X5303515Y-10010174D01*
X5303515Y-10010174D02*
X5303515Y-10057793D01*
X5303515Y-10057793D02*
X5293991Y-10095889D01*
X5293991Y-10095889D02*
X5284468Y-10114936D01*
X5284468Y-10114936D02*
X5274944Y-10124460D01*
X5274944Y-10124460D02*
X5255896Y-10133984D01*
X5255896Y-10133984D02*
X5236848Y-10133984D01*
X5236848Y-10133984D02*
X5217801Y-10124460D01*
X5217801Y-10124460D02*
X5208277Y-10114936D01*
X5208277Y-10114936D02*
X5198753Y-10095889D01*
X5198753Y-10095889D02*
X5189229Y-10057793D01*
X5189229Y-10057793D02*
X5189229Y-10010174D01*
X5189229Y-10010174D02*
X5198753Y-9972079D01*
X5198753Y-9972079D02*
X5208277Y-9953031D01*
X5208277Y-9953031D02*
X5217801Y-9943508D01*
X5217801Y-9943508D02*
X5236848Y-9933984D01*
X5493991Y-10133984D02*
X5379706Y-10133984D01*
X5436848Y-10133984D02*
X5436848Y-9933984D01*
X5436848Y-9933984D02*
X5417801Y-9962555D01*
X5417801Y-9962555D02*
X5398753Y-9981603D01*
X5398753Y-9981603D02*
X5379706Y-9991127D01*
X5684467Y-10133984D02*
X5570182Y-10133984D01*
X5627325Y-10133984D02*
X5627325Y-9933984D01*
X5627325Y-9933984D02*
X5608277Y-9962555D01*
X5608277Y-9962555D02*
X5589229Y-9981603D01*
X5589229Y-9981603D02*
X5570182Y-9991127D01*
X5798753Y-10019698D02*
X5779706Y-10010174D01*
X5779706Y-10010174D02*
X5770182Y-10000650D01*
X5770182Y-10000650D02*
X5760658Y-9981603D01*
X5760658Y-9981603D02*
X5760658Y-9972079D01*
X5760658Y-9972079D02*
X5770182Y-9953031D01*
X5770182Y-9953031D02*
X5779706Y-9943508D01*
X5779706Y-9943508D02*
X5798753Y-9933984D01*
X5798753Y-9933984D02*
X5836848Y-9933984D01*
X5836848Y-9933984D02*
X5855896Y-9943508D01*
X5855896Y-9943508D02*
X5865420Y-9953031D01*
X5865420Y-9953031D02*
X5874944Y-9972079D01*
X5874944Y-9972079D02*
X5874944Y-9981603D01*
X5874944Y-9981603D02*
X5865420Y-10000650D01*
X5865420Y-10000650D02*
X5855896Y-10010174D01*
X5855896Y-10010174D02*
X5836848Y-10019698D01*
X5836848Y-10019698D02*
X5798753Y-10019698D01*
X5798753Y-10019698D02*
X5779706Y-10029222D01*
X5779706Y-10029222D02*
X5770182Y-10038746D01*
X5770182Y-10038746D02*
X5760658Y-10057793D01*
X5760658Y-10057793D02*
X5760658Y-10095889D01*
X5760658Y-10095889D02*
X5770182Y-10114936D01*
X5770182Y-10114936D02*
X5779706Y-10124460D01*
X5779706Y-10124460D02*
X5798753Y-10133984D01*
X5798753Y-10133984D02*
X5836848Y-10133984D01*
X5836848Y-10133984D02*
X5855896Y-10124460D01*
X5855896Y-10124460D02*
X5865420Y-10114936D01*
X5865420Y-10114936D02*
X5874944Y-10095889D01*
X5874944Y-10095889D02*
X5874944Y-10057793D01*
X5874944Y-10057793D02*
X5865420Y-10038746D01*
X5865420Y-10038746D02*
X5855896Y-10029222D01*
X5855896Y-10029222D02*
X5836848Y-10019698D01*
X5951134Y-9933984D02*
X5951134Y-9972079D01*
X6027325Y-9933984D02*
X6027325Y-9972079D01*
X6322563Y-10210174D02*
X6313039Y-10200650D01*
X6313039Y-10200650D02*
X6293991Y-10172079D01*
X6293991Y-10172079D02*
X6284468Y-10153031D01*
X6284468Y-10153031D02*
X6274944Y-10124460D01*
X6274944Y-10124460D02*
X6265420Y-10076841D01*
X6265420Y-10076841D02*
X6265420Y-10038746D01*
X6265420Y-10038746D02*
X6274944Y-9991127D01*
X6274944Y-9991127D02*
X6284468Y-9962555D01*
X6284468Y-9962555D02*
X6293991Y-9943508D01*
X6293991Y-9943508D02*
X6313039Y-9914936D01*
X6313039Y-9914936D02*
X6322563Y-9905412D01*
X6379706Y-9933984D02*
X6503515Y-9933984D01*
X6503515Y-9933984D02*
X6436848Y-10010174D01*
X6436848Y-10010174D02*
X6465420Y-10010174D01*
X6465420Y-10010174D02*
X6484468Y-10019698D01*
X6484468Y-10019698D02*
X6493991Y-10029222D01*
X6493991Y-10029222D02*
X6503515Y-10048270D01*
X6503515Y-10048270D02*
X6503515Y-10095889D01*
X6503515Y-10095889D02*
X6493991Y-10114936D01*
X6493991Y-10114936D02*
X6484468Y-10124460D01*
X6484468Y-10124460D02*
X6465420Y-10133984D01*
X6465420Y-10133984D02*
X6408277Y-10133984D01*
X6408277Y-10133984D02*
X6389229Y-10124460D01*
X6389229Y-10124460D02*
X6379706Y-10114936D01*
X6741610Y-10133984D02*
X6741610Y-9933984D01*
X6827325Y-10133984D02*
X6827325Y-10029222D01*
X6827325Y-10029222D02*
X6817801Y-10010174D01*
X6817801Y-10010174D02*
X6798753Y-10000650D01*
X6798753Y-10000650D02*
X6770182Y-10000650D01*
X6770182Y-10000650D02*
X6751134Y-10010174D01*
X6751134Y-10010174D02*
X6741610Y-10019698D01*
X6951134Y-10133984D02*
X6932087Y-10124460D01*
X6932087Y-10124460D02*
X6922563Y-10114936D01*
X6922563Y-10114936D02*
X6913039Y-10095889D01*
X6913039Y-10095889D02*
X6913039Y-10038746D01*
X6913039Y-10038746D02*
X6922563Y-10019698D01*
X6922563Y-10019698D02*
X6932087Y-10010174D01*
X6932087Y-10010174D02*
X6951134Y-10000650D01*
X6951134Y-10000650D02*
X6979706Y-10000650D01*
X6979706Y-10000650D02*
X6998753Y-10010174D01*
X6998753Y-10010174D02*
X7008277Y-10019698D01*
X7008277Y-10019698D02*
X7017801Y-10038746D01*
X7017801Y-10038746D02*
X7017801Y-10095889D01*
X7017801Y-10095889D02*
X7008277Y-10114936D01*
X7008277Y-10114936D02*
X6998753Y-10124460D01*
X6998753Y-10124460D02*
X6979706Y-10133984D01*
X6979706Y-10133984D02*
X6951134Y-10133984D01*
X7132087Y-10133984D02*
X7113039Y-10124460D01*
X7113039Y-10124460D02*
X7103515Y-10105412D01*
X7103515Y-10105412D02*
X7103515Y-9933984D01*
X7284468Y-10124460D02*
X7265420Y-10133984D01*
X7265420Y-10133984D02*
X7227325Y-10133984D01*
X7227325Y-10133984D02*
X7208277Y-10124460D01*
X7208277Y-10124460D02*
X7198753Y-10105412D01*
X7198753Y-10105412D02*
X7198753Y-10029222D01*
X7198753Y-10029222D02*
X7208277Y-10010174D01*
X7208277Y-10010174D02*
X7227325Y-10000650D01*
X7227325Y-10000650D02*
X7265420Y-10000650D01*
X7265420Y-10000650D02*
X7284468Y-10010174D01*
X7284468Y-10010174D02*
X7293991Y-10029222D01*
X7293991Y-10029222D02*
X7293991Y-10048270D01*
X7293991Y-10048270D02*
X7198753Y-10067317D01*
X7370182Y-10124460D02*
X7389230Y-10133984D01*
X7389230Y-10133984D02*
X7427325Y-10133984D01*
X7427325Y-10133984D02*
X7446372Y-10124460D01*
X7446372Y-10124460D02*
X7455896Y-10105412D01*
X7455896Y-10105412D02*
X7455896Y-10095889D01*
X7455896Y-10095889D02*
X7446372Y-10076841D01*
X7446372Y-10076841D02*
X7427325Y-10067317D01*
X7427325Y-10067317D02*
X7398753Y-10067317D01*
X7398753Y-10067317D02*
X7379706Y-10057793D01*
X7379706Y-10057793D02*
X7370182Y-10038746D01*
X7370182Y-10038746D02*
X7370182Y-10029222D01*
X7370182Y-10029222D02*
X7379706Y-10010174D01*
X7379706Y-10010174D02*
X7398753Y-10000650D01*
X7398753Y-10000650D02*
X7427325Y-10000650D01*
X7427325Y-10000650D02*
X7446372Y-10010174D01*
X7522563Y-10210174D02*
X7532087Y-10200650D01*
X7532087Y-10200650D02*
X7551134Y-10172079D01*
X7551134Y-10172079D02*
X7560658Y-10153031D01*
X7560658Y-10153031D02*
X7570182Y-10124460D01*
X7570182Y-10124460D02*
X7579706Y-10076841D01*
X7579706Y-10076841D02*
X7579706Y-10038746D01*
X7579706Y-10038746D02*
X7570182Y-9991127D01*
X7570182Y-9991127D02*
X7560658Y-9962555D01*
X7560658Y-9962555D02*
X7551134Y-9943508D01*
X7551134Y-9943508D02*
X7532087Y-9914936D01*
X7532087Y-9914936D02*
X7522563Y-9905412D01*
D12*
X2747500Y-10306500D02*
G75*
G02*
X2667500Y-10306500I-40000J0D01*
G01*
X2667500Y-10306500D02*
G75*
G02*
X2747500Y-10306500I40000J0D01*
G01*
D11*
X3046372Y-10197984D02*
X3065420Y-10197984D01*
X3065420Y-10197984D02*
X3084467Y-10207508D01*
X3084467Y-10207508D02*
X3093991Y-10217031D01*
X3093991Y-10217031D02*
X3103515Y-10236079D01*
X3103515Y-10236079D02*
X3113039Y-10274174D01*
X3113039Y-10274174D02*
X3113039Y-10321793D01*
X3113039Y-10321793D02*
X3103515Y-10359889D01*
X3103515Y-10359889D02*
X3093991Y-10378936D01*
X3093991Y-10378936D02*
X3084467Y-10388460D01*
X3084467Y-10388460D02*
X3065420Y-10397984D01*
X3065420Y-10397984D02*
X3046372Y-10397984D01*
X3046372Y-10397984D02*
X3027324Y-10388460D01*
X3027324Y-10388460D02*
X3017801Y-10378936D01*
X3017801Y-10378936D02*
X3008277Y-10359889D01*
X3008277Y-10359889D02*
X2998753Y-10321793D01*
X2998753Y-10321793D02*
X2998753Y-10274174D01*
X2998753Y-10274174D02*
X3008277Y-10236079D01*
X3008277Y-10236079D02*
X3017801Y-10217031D01*
X3017801Y-10217031D02*
X3027324Y-10207508D01*
X3027324Y-10207508D02*
X3046372Y-10197984D01*
X3198753Y-10378936D02*
X3208277Y-10388460D01*
X3208277Y-10388460D02*
X3198753Y-10397984D01*
X3198753Y-10397984D02*
X3189229Y-10388460D01*
X3189229Y-10388460D02*
X3198753Y-10378936D01*
X3198753Y-10378936D02*
X3198753Y-10397984D01*
X3322562Y-10283698D02*
X3303515Y-10274174D01*
X3303515Y-10274174D02*
X3293991Y-10264650D01*
X3293991Y-10264650D02*
X3284467Y-10245603D01*
X3284467Y-10245603D02*
X3284467Y-10236079D01*
X3284467Y-10236079D02*
X3293991Y-10217031D01*
X3293991Y-10217031D02*
X3303515Y-10207508D01*
X3303515Y-10207508D02*
X3322562Y-10197984D01*
X3322562Y-10197984D02*
X3360658Y-10197984D01*
X3360658Y-10197984D02*
X3379705Y-10207508D01*
X3379705Y-10207508D02*
X3389229Y-10217031D01*
X3389229Y-10217031D02*
X3398753Y-10236079D01*
X3398753Y-10236079D02*
X3398753Y-10245603D01*
X3398753Y-10245603D02*
X3389229Y-10264650D01*
X3389229Y-10264650D02*
X3379705Y-10274174D01*
X3379705Y-10274174D02*
X3360658Y-10283698D01*
X3360658Y-10283698D02*
X3322562Y-10283698D01*
X3322562Y-10283698D02*
X3303515Y-10293222D01*
X3303515Y-10293222D02*
X3293991Y-10302746D01*
X3293991Y-10302746D02*
X3284467Y-10321793D01*
X3284467Y-10321793D02*
X3284467Y-10359889D01*
X3284467Y-10359889D02*
X3293991Y-10378936D01*
X3293991Y-10378936D02*
X3303515Y-10388460D01*
X3303515Y-10388460D02*
X3322562Y-10397984D01*
X3322562Y-10397984D02*
X3360658Y-10397984D01*
X3360658Y-10397984D02*
X3379705Y-10388460D01*
X3379705Y-10388460D02*
X3389229Y-10378936D01*
X3389229Y-10378936D02*
X3398753Y-10359889D01*
X3398753Y-10359889D02*
X3398753Y-10321793D01*
X3398753Y-10321793D02*
X3389229Y-10302746D01*
X3389229Y-10302746D02*
X3379705Y-10293222D01*
X3379705Y-10293222D02*
X3360658Y-10283698D01*
X3522562Y-10197984D02*
X3541610Y-10197984D01*
X3541610Y-10197984D02*
X3560658Y-10207508D01*
X3560658Y-10207508D02*
X3570182Y-10217031D01*
X3570182Y-10217031D02*
X3579705Y-10236079D01*
X3579705Y-10236079D02*
X3589229Y-10274174D01*
X3589229Y-10274174D02*
X3589229Y-10321793D01*
X3589229Y-10321793D02*
X3579705Y-10359889D01*
X3579705Y-10359889D02*
X3570182Y-10378936D01*
X3570182Y-10378936D02*
X3560658Y-10388460D01*
X3560658Y-10388460D02*
X3541610Y-10397984D01*
X3541610Y-10397984D02*
X3522562Y-10397984D01*
X3522562Y-10397984D02*
X3503515Y-10388460D01*
X3503515Y-10388460D02*
X3493991Y-10378936D01*
X3493991Y-10378936D02*
X3484467Y-10359889D01*
X3484467Y-10359889D02*
X3474943Y-10321793D01*
X3474943Y-10321793D02*
X3474943Y-10274174D01*
X3474943Y-10274174D02*
X3484467Y-10236079D01*
X3484467Y-10236079D02*
X3493991Y-10217031D01*
X3493991Y-10217031D02*
X3503515Y-10207508D01*
X3503515Y-10207508D02*
X3522562Y-10197984D01*
X3713039Y-10197984D02*
X3732086Y-10197984D01*
X3732086Y-10197984D02*
X3751134Y-10207508D01*
X3751134Y-10207508D02*
X3760658Y-10217031D01*
X3760658Y-10217031D02*
X3770182Y-10236079D01*
X3770182Y-10236079D02*
X3779705Y-10274174D01*
X3779705Y-10274174D02*
X3779705Y-10321793D01*
X3779705Y-10321793D02*
X3770182Y-10359889D01*
X3770182Y-10359889D02*
X3760658Y-10378936D01*
X3760658Y-10378936D02*
X3751134Y-10388460D01*
X3751134Y-10388460D02*
X3732086Y-10397984D01*
X3732086Y-10397984D02*
X3713039Y-10397984D01*
X3713039Y-10397984D02*
X3693991Y-10388460D01*
X3693991Y-10388460D02*
X3684467Y-10378936D01*
X3684467Y-10378936D02*
X3674943Y-10359889D01*
X3674943Y-10359889D02*
X3665420Y-10321793D01*
X3665420Y-10321793D02*
X3665420Y-10274174D01*
X3665420Y-10274174D02*
X3674943Y-10236079D01*
X3674943Y-10236079D02*
X3684467Y-10217031D01*
X3684467Y-10217031D02*
X3693991Y-10207508D01*
X3693991Y-10207508D02*
X3713039Y-10197984D01*
X3865420Y-10397984D02*
X3865420Y-10264650D01*
X3865420Y-10283698D02*
X3874943Y-10274174D01*
X3874943Y-10274174D02*
X3893991Y-10264650D01*
X3893991Y-10264650D02*
X3922563Y-10264650D01*
X3922563Y-10264650D02*
X3941610Y-10274174D01*
X3941610Y-10274174D02*
X3951134Y-10293222D01*
X3951134Y-10293222D02*
X3951134Y-10397984D01*
X3951134Y-10293222D02*
X3960658Y-10274174D01*
X3960658Y-10274174D02*
X3979705Y-10264650D01*
X3979705Y-10264650D02*
X4008277Y-10264650D01*
X4008277Y-10264650D02*
X4027324Y-10274174D01*
X4027324Y-10274174D02*
X4036848Y-10293222D01*
X4036848Y-10293222D02*
X4036848Y-10397984D01*
X4132086Y-10397984D02*
X4132086Y-10264650D01*
X4132086Y-10283698D02*
X4141610Y-10274174D01*
X4141610Y-10274174D02*
X4160658Y-10264650D01*
X4160658Y-10264650D02*
X4189229Y-10264650D01*
X4189229Y-10264650D02*
X4208277Y-10274174D01*
X4208277Y-10274174D02*
X4217801Y-10293222D01*
X4217801Y-10293222D02*
X4217801Y-10397984D01*
X4217801Y-10293222D02*
X4227325Y-10274174D01*
X4227325Y-10274174D02*
X4246372Y-10264650D01*
X4246372Y-10264650D02*
X4274944Y-10264650D01*
X4274944Y-10264650D02*
X4293991Y-10274174D01*
X4293991Y-10274174D02*
X4303515Y-10293222D01*
X4303515Y-10293222D02*
X4303515Y-10397984D01*
X4693991Y-10188460D02*
X4522563Y-10445603D01*
X4951134Y-10197984D02*
X4970182Y-10197984D01*
X4970182Y-10197984D02*
X4989229Y-10207508D01*
X4989229Y-10207508D02*
X4998753Y-10217031D01*
X4998753Y-10217031D02*
X5008277Y-10236079D01*
X5008277Y-10236079D02*
X5017801Y-10274174D01*
X5017801Y-10274174D02*
X5017801Y-10321793D01*
X5017801Y-10321793D02*
X5008277Y-10359889D01*
X5008277Y-10359889D02*
X4998753Y-10378936D01*
X4998753Y-10378936D02*
X4989229Y-10388460D01*
X4989229Y-10388460D02*
X4970182Y-10397984D01*
X4970182Y-10397984D02*
X4951134Y-10397984D01*
X4951134Y-10397984D02*
X4932087Y-10388460D01*
X4932087Y-10388460D02*
X4922563Y-10378936D01*
X4922563Y-10378936D02*
X4913039Y-10359889D01*
X4913039Y-10359889D02*
X4903515Y-10321793D01*
X4903515Y-10321793D02*
X4903515Y-10274174D01*
X4903515Y-10274174D02*
X4913039Y-10236079D01*
X4913039Y-10236079D02*
X4922563Y-10217031D01*
X4922563Y-10217031D02*
X4932087Y-10207508D01*
X4932087Y-10207508D02*
X4951134Y-10197984D01*
X5103515Y-10378936D02*
X5113039Y-10388460D01*
X5113039Y-10388460D02*
X5103515Y-10397984D01*
X5103515Y-10397984D02*
X5093991Y-10388460D01*
X5093991Y-10388460D02*
X5103515Y-10378936D01*
X5103515Y-10378936D02*
X5103515Y-10397984D01*
X5236848Y-10197984D02*
X5255896Y-10197984D01*
X5255896Y-10197984D02*
X5274944Y-10207508D01*
X5274944Y-10207508D02*
X5284468Y-10217031D01*
X5284468Y-10217031D02*
X5293991Y-10236079D01*
X5293991Y-10236079D02*
X5303515Y-10274174D01*
X5303515Y-10274174D02*
X5303515Y-10321793D01*
X5303515Y-10321793D02*
X5293991Y-10359889D01*
X5293991Y-10359889D02*
X5284468Y-10378936D01*
X5284468Y-10378936D02*
X5274944Y-10388460D01*
X5274944Y-10388460D02*
X5255896Y-10397984D01*
X5255896Y-10397984D02*
X5236848Y-10397984D01*
X5236848Y-10397984D02*
X5217801Y-10388460D01*
X5217801Y-10388460D02*
X5208277Y-10378936D01*
X5208277Y-10378936D02*
X5198753Y-10359889D01*
X5198753Y-10359889D02*
X5189229Y-10321793D01*
X5189229Y-10321793D02*
X5189229Y-10274174D01*
X5189229Y-10274174D02*
X5198753Y-10236079D01*
X5198753Y-10236079D02*
X5208277Y-10217031D01*
X5208277Y-10217031D02*
X5217801Y-10207508D01*
X5217801Y-10207508D02*
X5236848Y-10197984D01*
X5370182Y-10197984D02*
X5493991Y-10197984D01*
X5493991Y-10197984D02*
X5427325Y-10274174D01*
X5427325Y-10274174D02*
X5455896Y-10274174D01*
X5455896Y-10274174D02*
X5474944Y-10283698D01*
X5474944Y-10283698D02*
X5484468Y-10293222D01*
X5484468Y-10293222D02*
X5493991Y-10312270D01*
X5493991Y-10312270D02*
X5493991Y-10359889D01*
X5493991Y-10359889D02*
X5484468Y-10378936D01*
X5484468Y-10378936D02*
X5474944Y-10388460D01*
X5474944Y-10388460D02*
X5455896Y-10397984D01*
X5455896Y-10397984D02*
X5398753Y-10397984D01*
X5398753Y-10397984D02*
X5379706Y-10388460D01*
X5379706Y-10388460D02*
X5370182Y-10378936D01*
X5684467Y-10397984D02*
X5570182Y-10397984D01*
X5627325Y-10397984D02*
X5627325Y-10197984D01*
X5627325Y-10197984D02*
X5608277Y-10226555D01*
X5608277Y-10226555D02*
X5589229Y-10245603D01*
X5589229Y-10245603D02*
X5570182Y-10255127D01*
X5865420Y-10197984D02*
X5770182Y-10197984D01*
X5770182Y-10197984D02*
X5760658Y-10293222D01*
X5760658Y-10293222D02*
X5770182Y-10283698D01*
X5770182Y-10283698D02*
X5789229Y-10274174D01*
X5789229Y-10274174D02*
X5836848Y-10274174D01*
X5836848Y-10274174D02*
X5855896Y-10283698D01*
X5855896Y-10283698D02*
X5865420Y-10293222D01*
X5865420Y-10293222D02*
X5874944Y-10312270D01*
X5874944Y-10312270D02*
X5874944Y-10359889D01*
X5874944Y-10359889D02*
X5865420Y-10378936D01*
X5865420Y-10378936D02*
X5855896Y-10388460D01*
X5855896Y-10388460D02*
X5836848Y-10397984D01*
X5836848Y-10397984D02*
X5789229Y-10397984D01*
X5789229Y-10397984D02*
X5770182Y-10388460D01*
X5770182Y-10388460D02*
X5760658Y-10378936D01*
X5951134Y-10197984D02*
X5951134Y-10236079D01*
X6027325Y-10197984D02*
X6027325Y-10236079D01*
X6322563Y-10474174D02*
X6313039Y-10464650D01*
X6313039Y-10464650D02*
X6293991Y-10436079D01*
X6293991Y-10436079D02*
X6284468Y-10417031D01*
X6284468Y-10417031D02*
X6274944Y-10388460D01*
X6274944Y-10388460D02*
X6265420Y-10340841D01*
X6265420Y-10340841D02*
X6265420Y-10302746D01*
X6265420Y-10302746D02*
X6274944Y-10255127D01*
X6274944Y-10255127D02*
X6284468Y-10226555D01*
X6284468Y-10226555D02*
X6293991Y-10207508D01*
X6293991Y-10207508D02*
X6313039Y-10178936D01*
X6313039Y-10178936D02*
X6322563Y-10169412D01*
X6379706Y-10197984D02*
X6513039Y-10197984D01*
X6513039Y-10197984D02*
X6427325Y-10397984D01*
X6579706Y-10217031D02*
X6589229Y-10207508D01*
X6589229Y-10207508D02*
X6608277Y-10197984D01*
X6608277Y-10197984D02*
X6655896Y-10197984D01*
X6655896Y-10197984D02*
X6674944Y-10207508D01*
X6674944Y-10207508D02*
X6684468Y-10217031D01*
X6684468Y-10217031D02*
X6693991Y-10236079D01*
X6693991Y-10236079D02*
X6693991Y-10255127D01*
X6693991Y-10255127D02*
X6684468Y-10283698D01*
X6684468Y-10283698D02*
X6570182Y-10397984D01*
X6570182Y-10397984D02*
X6693991Y-10397984D01*
X6932087Y-10397984D02*
X6932087Y-10197984D01*
X7017801Y-10397984D02*
X7017801Y-10293222D01*
X7017801Y-10293222D02*
X7008277Y-10274174D01*
X7008277Y-10274174D02*
X6989230Y-10264650D01*
X6989230Y-10264650D02*
X6960658Y-10264650D01*
X6960658Y-10264650D02*
X6941610Y-10274174D01*
X6941610Y-10274174D02*
X6932087Y-10283698D01*
X7141610Y-10397984D02*
X7122563Y-10388460D01*
X7122563Y-10388460D02*
X7113039Y-10378936D01*
X7113039Y-10378936D02*
X7103515Y-10359889D01*
X7103515Y-10359889D02*
X7103515Y-10302746D01*
X7103515Y-10302746D02*
X7113039Y-10283698D01*
X7113039Y-10283698D02*
X7122563Y-10274174D01*
X7122563Y-10274174D02*
X7141610Y-10264650D01*
X7141610Y-10264650D02*
X7170182Y-10264650D01*
X7170182Y-10264650D02*
X7189230Y-10274174D01*
X7189230Y-10274174D02*
X7198753Y-10283698D01*
X7198753Y-10283698D02*
X7208277Y-10302746D01*
X7208277Y-10302746D02*
X7208277Y-10359889D01*
X7208277Y-10359889D02*
X7198753Y-10378936D01*
X7198753Y-10378936D02*
X7189230Y-10388460D01*
X7189230Y-10388460D02*
X7170182Y-10397984D01*
X7170182Y-10397984D02*
X7141610Y-10397984D01*
X7322563Y-10397984D02*
X7303515Y-10388460D01*
X7303515Y-10388460D02*
X7293991Y-10369412D01*
X7293991Y-10369412D02*
X7293991Y-10197984D01*
X7474944Y-10388460D02*
X7455896Y-10397984D01*
X7455896Y-10397984D02*
X7417801Y-10397984D01*
X7417801Y-10397984D02*
X7398753Y-10388460D01*
X7398753Y-10388460D02*
X7389230Y-10369412D01*
X7389230Y-10369412D02*
X7389230Y-10293222D01*
X7389230Y-10293222D02*
X7398753Y-10274174D01*
X7398753Y-10274174D02*
X7417801Y-10264650D01*
X7417801Y-10264650D02*
X7455896Y-10264650D01*
X7455896Y-10264650D02*
X7474944Y-10274174D01*
X7474944Y-10274174D02*
X7484468Y-10293222D01*
X7484468Y-10293222D02*
X7484468Y-10312270D01*
X7484468Y-10312270D02*
X7389230Y-10331317D01*
X7560658Y-10388460D02*
X7579706Y-10397984D01*
X7579706Y-10397984D02*
X7617801Y-10397984D01*
X7617801Y-10397984D02*
X7636849Y-10388460D01*
X7636849Y-10388460D02*
X7646372Y-10369412D01*
X7646372Y-10369412D02*
X7646372Y-10359889D01*
X7646372Y-10359889D02*
X7636849Y-10340841D01*
X7636849Y-10340841D02*
X7617801Y-10331317D01*
X7617801Y-10331317D02*
X7589230Y-10331317D01*
X7589230Y-10331317D02*
X7570182Y-10321793D01*
X7570182Y-10321793D02*
X7560658Y-10302746D01*
X7560658Y-10302746D02*
X7560658Y-10293222D01*
X7560658Y-10293222D02*
X7570182Y-10274174D01*
X7570182Y-10274174D02*
X7589230Y-10264650D01*
X7589230Y-10264650D02*
X7617801Y-10264650D01*
X7617801Y-10264650D02*
X7636849Y-10274174D01*
X7713039Y-10474174D02*
X7722563Y-10464650D01*
X7722563Y-10464650D02*
X7741611Y-10436079D01*
X7741611Y-10436079D02*
X7751134Y-10417031D01*
X7751134Y-10417031D02*
X7760658Y-10388460D01*
X7760658Y-10388460D02*
X7770182Y-10340841D01*
X7770182Y-10340841D02*
X7770182Y-10302746D01*
X7770182Y-10302746D02*
X7760658Y-10255127D01*
X7760658Y-10255127D02*
X7751134Y-10226555D01*
X7751134Y-10226555D02*
X7741611Y-10207508D01*
X7741611Y-10207508D02*
X7722563Y-10178936D01*
X7722563Y-10178936D02*
X7713039Y-10169412D01*
D12*
X2697500Y-10520500D02*
X2697500Y-10620500D01*
X2647500Y-10570500D02*
X2747500Y-10570500D01*
D11*
X3113039Y-10661984D02*
X2998753Y-10661984D01*
X3055896Y-10661984D02*
X3055896Y-10461984D01*
X3055896Y-10461984D02*
X3036848Y-10490555D01*
X3036848Y-10490555D02*
X3017801Y-10509603D01*
X3017801Y-10509603D02*
X2998753Y-10519127D01*
X3198753Y-10642936D02*
X3208277Y-10652460D01*
X3208277Y-10652460D02*
X3198753Y-10661984D01*
X3198753Y-10661984D02*
X3189229Y-10652460D01*
X3189229Y-10652460D02*
X3198753Y-10642936D01*
X3198753Y-10642936D02*
X3198753Y-10661984D01*
X3332086Y-10461984D02*
X3351134Y-10461984D01*
X3351134Y-10461984D02*
X3370182Y-10471508D01*
X3370182Y-10471508D02*
X3379705Y-10481031D01*
X3379705Y-10481031D02*
X3389229Y-10500079D01*
X3389229Y-10500079D02*
X3398753Y-10538174D01*
X3398753Y-10538174D02*
X3398753Y-10585793D01*
X3398753Y-10585793D02*
X3389229Y-10623889D01*
X3389229Y-10623889D02*
X3379705Y-10642936D01*
X3379705Y-10642936D02*
X3370182Y-10652460D01*
X3370182Y-10652460D02*
X3351134Y-10661984D01*
X3351134Y-10661984D02*
X3332086Y-10661984D01*
X3332086Y-10661984D02*
X3313039Y-10652460D01*
X3313039Y-10652460D02*
X3303515Y-10642936D01*
X3303515Y-10642936D02*
X3293991Y-10623889D01*
X3293991Y-10623889D02*
X3284467Y-10585793D01*
X3284467Y-10585793D02*
X3284467Y-10538174D01*
X3284467Y-10538174D02*
X3293991Y-10500079D01*
X3293991Y-10500079D02*
X3303515Y-10481031D01*
X3303515Y-10481031D02*
X3313039Y-10471508D01*
X3313039Y-10471508D02*
X3332086Y-10461984D01*
X3522562Y-10461984D02*
X3541610Y-10461984D01*
X3541610Y-10461984D02*
X3560658Y-10471508D01*
X3560658Y-10471508D02*
X3570182Y-10481031D01*
X3570182Y-10481031D02*
X3579705Y-10500079D01*
X3579705Y-10500079D02*
X3589229Y-10538174D01*
X3589229Y-10538174D02*
X3589229Y-10585793D01*
X3589229Y-10585793D02*
X3579705Y-10623889D01*
X3579705Y-10623889D02*
X3570182Y-10642936D01*
X3570182Y-10642936D02*
X3560658Y-10652460D01*
X3560658Y-10652460D02*
X3541610Y-10661984D01*
X3541610Y-10661984D02*
X3522562Y-10661984D01*
X3522562Y-10661984D02*
X3503515Y-10652460D01*
X3503515Y-10652460D02*
X3493991Y-10642936D01*
X3493991Y-10642936D02*
X3484467Y-10623889D01*
X3484467Y-10623889D02*
X3474943Y-10585793D01*
X3474943Y-10585793D02*
X3474943Y-10538174D01*
X3474943Y-10538174D02*
X3484467Y-10500079D01*
X3484467Y-10500079D02*
X3493991Y-10481031D01*
X3493991Y-10481031D02*
X3503515Y-10471508D01*
X3503515Y-10471508D02*
X3522562Y-10461984D01*
X3713039Y-10461984D02*
X3732086Y-10461984D01*
X3732086Y-10461984D02*
X3751134Y-10471508D01*
X3751134Y-10471508D02*
X3760658Y-10481031D01*
X3760658Y-10481031D02*
X3770182Y-10500079D01*
X3770182Y-10500079D02*
X3779705Y-10538174D01*
X3779705Y-10538174D02*
X3779705Y-10585793D01*
X3779705Y-10585793D02*
X3770182Y-10623889D01*
X3770182Y-10623889D02*
X3760658Y-10642936D01*
X3760658Y-10642936D02*
X3751134Y-10652460D01*
X3751134Y-10652460D02*
X3732086Y-10661984D01*
X3732086Y-10661984D02*
X3713039Y-10661984D01*
X3713039Y-10661984D02*
X3693991Y-10652460D01*
X3693991Y-10652460D02*
X3684467Y-10642936D01*
X3684467Y-10642936D02*
X3674943Y-10623889D01*
X3674943Y-10623889D02*
X3665420Y-10585793D01*
X3665420Y-10585793D02*
X3665420Y-10538174D01*
X3665420Y-10538174D02*
X3674943Y-10500079D01*
X3674943Y-10500079D02*
X3684467Y-10481031D01*
X3684467Y-10481031D02*
X3693991Y-10471508D01*
X3693991Y-10471508D02*
X3713039Y-10461984D01*
X3865420Y-10661984D02*
X3865420Y-10528650D01*
X3865420Y-10547698D02*
X3874943Y-10538174D01*
X3874943Y-10538174D02*
X3893991Y-10528650D01*
X3893991Y-10528650D02*
X3922563Y-10528650D01*
X3922563Y-10528650D02*
X3941610Y-10538174D01*
X3941610Y-10538174D02*
X3951134Y-10557222D01*
X3951134Y-10557222D02*
X3951134Y-10661984D01*
X3951134Y-10557222D02*
X3960658Y-10538174D01*
X3960658Y-10538174D02*
X3979705Y-10528650D01*
X3979705Y-10528650D02*
X4008277Y-10528650D01*
X4008277Y-10528650D02*
X4027324Y-10538174D01*
X4027324Y-10538174D02*
X4036848Y-10557222D01*
X4036848Y-10557222D02*
X4036848Y-10661984D01*
X4132086Y-10661984D02*
X4132086Y-10528650D01*
X4132086Y-10547698D02*
X4141610Y-10538174D01*
X4141610Y-10538174D02*
X4160658Y-10528650D01*
X4160658Y-10528650D02*
X4189229Y-10528650D01*
X4189229Y-10528650D02*
X4208277Y-10538174D01*
X4208277Y-10538174D02*
X4217801Y-10557222D01*
X4217801Y-10557222D02*
X4217801Y-10661984D01*
X4217801Y-10557222D02*
X4227325Y-10538174D01*
X4227325Y-10538174D02*
X4246372Y-10528650D01*
X4246372Y-10528650D02*
X4274944Y-10528650D01*
X4274944Y-10528650D02*
X4293991Y-10538174D01*
X4293991Y-10538174D02*
X4303515Y-10557222D01*
X4303515Y-10557222D02*
X4303515Y-10661984D01*
X4693991Y-10452460D02*
X4522563Y-10709603D01*
X4951134Y-10461984D02*
X4970182Y-10461984D01*
X4970182Y-10461984D02*
X4989229Y-10471508D01*
X4989229Y-10471508D02*
X4998753Y-10481031D01*
X4998753Y-10481031D02*
X5008277Y-10500079D01*
X5008277Y-10500079D02*
X5017801Y-10538174D01*
X5017801Y-10538174D02*
X5017801Y-10585793D01*
X5017801Y-10585793D02*
X5008277Y-10623889D01*
X5008277Y-10623889D02*
X4998753Y-10642936D01*
X4998753Y-10642936D02*
X4989229Y-10652460D01*
X4989229Y-10652460D02*
X4970182Y-10661984D01*
X4970182Y-10661984D02*
X4951134Y-10661984D01*
X4951134Y-10661984D02*
X4932087Y-10652460D01*
X4932087Y-10652460D02*
X4922563Y-10642936D01*
X4922563Y-10642936D02*
X4913039Y-10623889D01*
X4913039Y-10623889D02*
X4903515Y-10585793D01*
X4903515Y-10585793D02*
X4903515Y-10538174D01*
X4903515Y-10538174D02*
X4913039Y-10500079D01*
X4913039Y-10500079D02*
X4922563Y-10481031D01*
X4922563Y-10481031D02*
X4932087Y-10471508D01*
X4932087Y-10471508D02*
X4951134Y-10461984D01*
X5103515Y-10642936D02*
X5113039Y-10652460D01*
X5113039Y-10652460D02*
X5103515Y-10661984D01*
X5103515Y-10661984D02*
X5093991Y-10652460D01*
X5093991Y-10652460D02*
X5103515Y-10642936D01*
X5103515Y-10642936D02*
X5103515Y-10661984D01*
X5236848Y-10461984D02*
X5255896Y-10461984D01*
X5255896Y-10461984D02*
X5274944Y-10471508D01*
X5274944Y-10471508D02*
X5284468Y-10481031D01*
X5284468Y-10481031D02*
X5293991Y-10500079D01*
X5293991Y-10500079D02*
X5303515Y-10538174D01*
X5303515Y-10538174D02*
X5303515Y-10585793D01*
X5303515Y-10585793D02*
X5293991Y-10623889D01*
X5293991Y-10623889D02*
X5284468Y-10642936D01*
X5284468Y-10642936D02*
X5274944Y-10652460D01*
X5274944Y-10652460D02*
X5255896Y-10661984D01*
X5255896Y-10661984D02*
X5236848Y-10661984D01*
X5236848Y-10661984D02*
X5217801Y-10652460D01*
X5217801Y-10652460D02*
X5208277Y-10642936D01*
X5208277Y-10642936D02*
X5198753Y-10623889D01*
X5198753Y-10623889D02*
X5189229Y-10585793D01*
X5189229Y-10585793D02*
X5189229Y-10538174D01*
X5189229Y-10538174D02*
X5198753Y-10500079D01*
X5198753Y-10500079D02*
X5208277Y-10481031D01*
X5208277Y-10481031D02*
X5217801Y-10471508D01*
X5217801Y-10471508D02*
X5236848Y-10461984D01*
X5370182Y-10461984D02*
X5493991Y-10461984D01*
X5493991Y-10461984D02*
X5427325Y-10538174D01*
X5427325Y-10538174D02*
X5455896Y-10538174D01*
X5455896Y-10538174D02*
X5474944Y-10547698D01*
X5474944Y-10547698D02*
X5484468Y-10557222D01*
X5484468Y-10557222D02*
X5493991Y-10576270D01*
X5493991Y-10576270D02*
X5493991Y-10623889D01*
X5493991Y-10623889D02*
X5484468Y-10642936D01*
X5484468Y-10642936D02*
X5474944Y-10652460D01*
X5474944Y-10652460D02*
X5455896Y-10661984D01*
X5455896Y-10661984D02*
X5398753Y-10661984D01*
X5398753Y-10661984D02*
X5379706Y-10652460D01*
X5379706Y-10652460D02*
X5370182Y-10642936D01*
X5589229Y-10661984D02*
X5627325Y-10661984D01*
X5627325Y-10661984D02*
X5646372Y-10652460D01*
X5646372Y-10652460D02*
X5655896Y-10642936D01*
X5655896Y-10642936D02*
X5674944Y-10614365D01*
X5674944Y-10614365D02*
X5684467Y-10576270D01*
X5684467Y-10576270D02*
X5684467Y-10500079D01*
X5684467Y-10500079D02*
X5674944Y-10481031D01*
X5674944Y-10481031D02*
X5665420Y-10471508D01*
X5665420Y-10471508D02*
X5646372Y-10461984D01*
X5646372Y-10461984D02*
X5608277Y-10461984D01*
X5608277Y-10461984D02*
X5589229Y-10471508D01*
X5589229Y-10471508D02*
X5579706Y-10481031D01*
X5579706Y-10481031D02*
X5570182Y-10500079D01*
X5570182Y-10500079D02*
X5570182Y-10547698D01*
X5570182Y-10547698D02*
X5579706Y-10566746D01*
X5579706Y-10566746D02*
X5589229Y-10576270D01*
X5589229Y-10576270D02*
X5608277Y-10585793D01*
X5608277Y-10585793D02*
X5646372Y-10585793D01*
X5646372Y-10585793D02*
X5665420Y-10576270D01*
X5665420Y-10576270D02*
X5674944Y-10566746D01*
X5674944Y-10566746D02*
X5684467Y-10547698D01*
X5855896Y-10528650D02*
X5855896Y-10661984D01*
X5808277Y-10452460D02*
X5760658Y-10595317D01*
X5760658Y-10595317D02*
X5884467Y-10595317D01*
X5951134Y-10461984D02*
X5951134Y-10500079D01*
X6027325Y-10461984D02*
X6027325Y-10500079D01*
X6322563Y-10738174D02*
X6313039Y-10728650D01*
X6313039Y-10728650D02*
X6293991Y-10700079D01*
X6293991Y-10700079D02*
X6284468Y-10681031D01*
X6284468Y-10681031D02*
X6274944Y-10652460D01*
X6274944Y-10652460D02*
X6265420Y-10604841D01*
X6265420Y-10604841D02*
X6265420Y-10566746D01*
X6265420Y-10566746D02*
X6274944Y-10519127D01*
X6274944Y-10519127D02*
X6284468Y-10490555D01*
X6284468Y-10490555D02*
X6293991Y-10471508D01*
X6293991Y-10471508D02*
X6313039Y-10442936D01*
X6313039Y-10442936D02*
X6322563Y-10433412D01*
X6503515Y-10661984D02*
X6389229Y-10661984D01*
X6446372Y-10661984D02*
X6446372Y-10461984D01*
X6446372Y-10461984D02*
X6427325Y-10490555D01*
X6427325Y-10490555D02*
X6408277Y-10509603D01*
X6408277Y-10509603D02*
X6389229Y-10519127D01*
X6674944Y-10461984D02*
X6636848Y-10461984D01*
X6636848Y-10461984D02*
X6617801Y-10471508D01*
X6617801Y-10471508D02*
X6608277Y-10481031D01*
X6608277Y-10481031D02*
X6589229Y-10509603D01*
X6589229Y-10509603D02*
X6579706Y-10547698D01*
X6579706Y-10547698D02*
X6579706Y-10623889D01*
X6579706Y-10623889D02*
X6589229Y-10642936D01*
X6589229Y-10642936D02*
X6598753Y-10652460D01*
X6598753Y-10652460D02*
X6617801Y-10661984D01*
X6617801Y-10661984D02*
X6655896Y-10661984D01*
X6655896Y-10661984D02*
X6674944Y-10652460D01*
X6674944Y-10652460D02*
X6684468Y-10642936D01*
X6684468Y-10642936D02*
X6693991Y-10623889D01*
X6693991Y-10623889D02*
X6693991Y-10576270D01*
X6693991Y-10576270D02*
X6684468Y-10557222D01*
X6684468Y-10557222D02*
X6674944Y-10547698D01*
X6674944Y-10547698D02*
X6655896Y-10538174D01*
X6655896Y-10538174D02*
X6617801Y-10538174D01*
X6617801Y-10538174D02*
X6598753Y-10547698D01*
X6598753Y-10547698D02*
X6589229Y-10557222D01*
X6589229Y-10557222D02*
X6579706Y-10576270D01*
X6932087Y-10661984D02*
X6932087Y-10461984D01*
X7017801Y-10661984D02*
X7017801Y-10557222D01*
X7017801Y-10557222D02*
X7008277Y-10538174D01*
X7008277Y-10538174D02*
X6989230Y-10528650D01*
X6989230Y-10528650D02*
X6960658Y-10528650D01*
X6960658Y-10528650D02*
X6941610Y-10538174D01*
X6941610Y-10538174D02*
X6932087Y-10547698D01*
X7141610Y-10661984D02*
X7122563Y-10652460D01*
X7122563Y-10652460D02*
X7113039Y-10642936D01*
X7113039Y-10642936D02*
X7103515Y-10623889D01*
X7103515Y-10623889D02*
X7103515Y-10566746D01*
X7103515Y-10566746D02*
X7113039Y-10547698D01*
X7113039Y-10547698D02*
X7122563Y-10538174D01*
X7122563Y-10538174D02*
X7141610Y-10528650D01*
X7141610Y-10528650D02*
X7170182Y-10528650D01*
X7170182Y-10528650D02*
X7189230Y-10538174D01*
X7189230Y-10538174D02*
X7198753Y-10547698D01*
X7198753Y-10547698D02*
X7208277Y-10566746D01*
X7208277Y-10566746D02*
X7208277Y-10623889D01*
X7208277Y-10623889D02*
X7198753Y-10642936D01*
X7198753Y-10642936D02*
X7189230Y-10652460D01*
X7189230Y-10652460D02*
X7170182Y-10661984D01*
X7170182Y-10661984D02*
X7141610Y-10661984D01*
X7322563Y-10661984D02*
X7303515Y-10652460D01*
X7303515Y-10652460D02*
X7293991Y-10633412D01*
X7293991Y-10633412D02*
X7293991Y-10461984D01*
X7474944Y-10652460D02*
X7455896Y-10661984D01*
X7455896Y-10661984D02*
X7417801Y-10661984D01*
X7417801Y-10661984D02*
X7398753Y-10652460D01*
X7398753Y-10652460D02*
X7389230Y-10633412D01*
X7389230Y-10633412D02*
X7389230Y-10557222D01*
X7389230Y-10557222D02*
X7398753Y-10538174D01*
X7398753Y-10538174D02*
X7417801Y-10528650D01*
X7417801Y-10528650D02*
X7455896Y-10528650D01*
X7455896Y-10528650D02*
X7474944Y-10538174D01*
X7474944Y-10538174D02*
X7484468Y-10557222D01*
X7484468Y-10557222D02*
X7484468Y-10576270D01*
X7484468Y-10576270D02*
X7389230Y-10595317D01*
X7560658Y-10652460D02*
X7579706Y-10661984D01*
X7579706Y-10661984D02*
X7617801Y-10661984D01*
X7617801Y-10661984D02*
X7636849Y-10652460D01*
X7636849Y-10652460D02*
X7646372Y-10633412D01*
X7646372Y-10633412D02*
X7646372Y-10623889D01*
X7646372Y-10623889D02*
X7636849Y-10604841D01*
X7636849Y-10604841D02*
X7617801Y-10595317D01*
X7617801Y-10595317D02*
X7589230Y-10595317D01*
X7589230Y-10595317D02*
X7570182Y-10585793D01*
X7570182Y-10585793D02*
X7560658Y-10566746D01*
X7560658Y-10566746D02*
X7560658Y-10557222D01*
X7560658Y-10557222D02*
X7570182Y-10538174D01*
X7570182Y-10538174D02*
X7589230Y-10528650D01*
X7589230Y-10528650D02*
X7617801Y-10528650D01*
X7617801Y-10528650D02*
X7636849Y-10538174D01*
X7713039Y-10738174D02*
X7722563Y-10728650D01*
X7722563Y-10728650D02*
X7741611Y-10700079D01*
X7741611Y-10700079D02*
X7751134Y-10681031D01*
X7751134Y-10681031D02*
X7760658Y-10652460D01*
X7760658Y-10652460D02*
X7770182Y-10604841D01*
X7770182Y-10604841D02*
X7770182Y-10566746D01*
X7770182Y-10566746D02*
X7760658Y-10519127D01*
X7760658Y-10519127D02*
X7751134Y-10490555D01*
X7751134Y-10490555D02*
X7741611Y-10471508D01*
X7741611Y-10471508D02*
X7722563Y-10442936D01*
X7722563Y-10442936D02*
X7713039Y-10433412D01*
M02*
