%TF.GenerationSoftware,KiCad,Pcbnew,8.0.6*%
%TF.CreationDate,2026-02-10T22:10:33+01:00*%
%TF.ProjectId,keyboard,6b657962-6f61-4726-942e-6b696361645f,rev?*%
%TF.SameCoordinates,Original*%
%TF.FileFunction,Legend,Top*%
%TF.FilePolarity,Positive*%
%FSLAX46Y46*%
G04 Gerber Fmt 4.6, Leading zero omitted, Abs format (unit mm)*
G04 Created by KiCad (PCBNEW 8.0.6) date 2026-02-10 22:10:33*
%MOMM*%
%LPD*%
G01*
G04 APERTURE LIST*
%ADD10C,0.150000*%
%ADD11C,0.120000*%
G04 APERTURE END LIST*
D10*
X271166666Y-81654819D02*
X270833333Y-81178628D01*
X270595238Y-81654819D02*
X270595238Y-80654819D01*
X270595238Y-80654819D02*
X270976190Y-80654819D01*
X270976190Y-80654819D02*
X271071428Y-80702438D01*
X271071428Y-80702438D02*
X271119047Y-80750057D01*
X271119047Y-80750057D02*
X271166666Y-80845295D01*
X271166666Y-80845295D02*
X271166666Y-80988152D01*
X271166666Y-80988152D02*
X271119047Y-81083390D01*
X271119047Y-81083390D02*
X271071428Y-81131009D01*
X271071428Y-81131009D02*
X270976190Y-81178628D01*
X270976190Y-81178628D02*
X270595238Y-81178628D01*
X271595238Y-81131009D02*
X271928571Y-81131009D01*
X272071428Y-81654819D02*
X271595238Y-81654819D01*
X271595238Y-81654819D02*
X271595238Y-80654819D01*
X271595238Y-80654819D02*
X272071428Y-80654819D01*
X272833333Y-81131009D02*
X272500000Y-81131009D01*
X272500000Y-81654819D02*
X272500000Y-80654819D01*
X272500000Y-80654819D02*
X272976190Y-80654819D01*
X273500000Y-80654819D02*
X273500000Y-80892914D01*
X273261905Y-80797676D02*
X273500000Y-80892914D01*
X273500000Y-80892914D02*
X273738095Y-80797676D01*
X273357143Y-81083390D02*
X273500000Y-80892914D01*
X273500000Y-80892914D02*
X273642857Y-81083390D01*
X274261905Y-80654819D02*
X274261905Y-80892914D01*
X274023810Y-80797676D02*
X274261905Y-80892914D01*
X274261905Y-80892914D02*
X274500000Y-80797676D01*
X274119048Y-81083390D02*
X274261905Y-80892914D01*
X274261905Y-80892914D02*
X274404762Y-81083390D01*
X75952381Y-73334819D02*
X75952381Y-72334819D01*
X75952381Y-72334819D02*
X76190476Y-72334819D01*
X76190476Y-72334819D02*
X76333333Y-72382438D01*
X76333333Y-72382438D02*
X76428571Y-72477676D01*
X76428571Y-72477676D02*
X76476190Y-72572914D01*
X76476190Y-72572914D02*
X76523809Y-72763390D01*
X76523809Y-72763390D02*
X76523809Y-72906247D01*
X76523809Y-72906247D02*
X76476190Y-73096723D01*
X76476190Y-73096723D02*
X76428571Y-73191961D01*
X76428571Y-73191961D02*
X76333333Y-73287200D01*
X76333333Y-73287200D02*
X76190476Y-73334819D01*
X76190476Y-73334819D02*
X75952381Y-73334819D01*
X76904762Y-72430057D02*
X76952381Y-72382438D01*
X76952381Y-72382438D02*
X77047619Y-72334819D01*
X77047619Y-72334819D02*
X77285714Y-72334819D01*
X77285714Y-72334819D02*
X77380952Y-72382438D01*
X77380952Y-72382438D02*
X77428571Y-72430057D01*
X77428571Y-72430057D02*
X77476190Y-72525295D01*
X77476190Y-72525295D02*
X77476190Y-72620533D01*
X77476190Y-72620533D02*
X77428571Y-72763390D01*
X77428571Y-72763390D02*
X76857143Y-73334819D01*
X76857143Y-73334819D02*
X77476190Y-73334819D01*
X77809524Y-72334819D02*
X78476190Y-72334819D01*
X78476190Y-72334819D02*
X78047619Y-73334819D01*
X73094762Y-73654819D02*
X73094762Y-72654819D01*
X73666190Y-73654819D02*
X73237619Y-73083390D01*
X73666190Y-72654819D02*
X73094762Y-73226247D01*
X175952381Y-73334819D02*
X175952381Y-72334819D01*
X175952381Y-72334819D02*
X176190476Y-72334819D01*
X176190476Y-72334819D02*
X176333333Y-72382438D01*
X176333333Y-72382438D02*
X176428571Y-72477676D01*
X176428571Y-72477676D02*
X176476190Y-72572914D01*
X176476190Y-72572914D02*
X176523809Y-72763390D01*
X176523809Y-72763390D02*
X176523809Y-72906247D01*
X176523809Y-72906247D02*
X176476190Y-73096723D01*
X176476190Y-73096723D02*
X176428571Y-73191961D01*
X176428571Y-73191961D02*
X176333333Y-73287200D01*
X176333333Y-73287200D02*
X176190476Y-73334819D01*
X176190476Y-73334819D02*
X175952381Y-73334819D01*
X176857143Y-72334819D02*
X177476190Y-72334819D01*
X177476190Y-72334819D02*
X177142857Y-72715771D01*
X177142857Y-72715771D02*
X177285714Y-72715771D01*
X177285714Y-72715771D02*
X177380952Y-72763390D01*
X177380952Y-72763390D02*
X177428571Y-72811009D01*
X177428571Y-72811009D02*
X177476190Y-72906247D01*
X177476190Y-72906247D02*
X177476190Y-73144342D01*
X177476190Y-73144342D02*
X177428571Y-73239580D01*
X177428571Y-73239580D02*
X177380952Y-73287200D01*
X177380952Y-73287200D02*
X177285714Y-73334819D01*
X177285714Y-73334819D02*
X177000000Y-73334819D01*
X177000000Y-73334819D02*
X176904762Y-73287200D01*
X176904762Y-73287200D02*
X176857143Y-73239580D01*
X177857143Y-72430057D02*
X177904762Y-72382438D01*
X177904762Y-72382438D02*
X178000000Y-72334819D01*
X178000000Y-72334819D02*
X178238095Y-72334819D01*
X178238095Y-72334819D02*
X178333333Y-72382438D01*
X178333333Y-72382438D02*
X178380952Y-72430057D01*
X178380952Y-72430057D02*
X178428571Y-72525295D01*
X178428571Y-72525295D02*
X178428571Y-72620533D01*
X178428571Y-72620533D02*
X178380952Y-72763390D01*
X178380952Y-72763390D02*
X177809524Y-73334819D01*
X177809524Y-73334819D02*
X178428571Y-73334819D01*
X173094762Y-73654819D02*
X173094762Y-72654819D01*
X173666190Y-73654819D02*
X173237619Y-73083390D01*
X173666190Y-72654819D02*
X173094762Y-73226247D01*
X229285714Y-33334819D02*
X229285714Y-32334819D01*
X229285714Y-32334819D02*
X229523809Y-32334819D01*
X229523809Y-32334819D02*
X229666666Y-32382438D01*
X229666666Y-32382438D02*
X229761904Y-32477676D01*
X229761904Y-32477676D02*
X229809523Y-32572914D01*
X229809523Y-32572914D02*
X229857142Y-32763390D01*
X229857142Y-32763390D02*
X229857142Y-32906247D01*
X229857142Y-32906247D02*
X229809523Y-33096723D01*
X229809523Y-33096723D02*
X229761904Y-33191961D01*
X229761904Y-33191961D02*
X229666666Y-33287200D01*
X229666666Y-33287200D02*
X229523809Y-33334819D01*
X229523809Y-33334819D02*
X229285714Y-33334819D01*
X230809523Y-33334819D02*
X230238095Y-33334819D01*
X230523809Y-33334819D02*
X230523809Y-32334819D01*
X230523809Y-32334819D02*
X230428571Y-32477676D01*
X230428571Y-32477676D02*
X230333333Y-32572914D01*
X230333333Y-32572914D02*
X230238095Y-32620533D01*
X231428571Y-32334819D02*
X231523809Y-32334819D01*
X231523809Y-32334819D02*
X231619047Y-32382438D01*
X231619047Y-32382438D02*
X231666666Y-32430057D01*
X231666666Y-32430057D02*
X231714285Y-32525295D01*
X231714285Y-32525295D02*
X231761904Y-32715771D01*
X231761904Y-32715771D02*
X231761904Y-32953866D01*
X231761904Y-32953866D02*
X231714285Y-33144342D01*
X231714285Y-33144342D02*
X231666666Y-33239580D01*
X231666666Y-33239580D02*
X231619047Y-33287200D01*
X231619047Y-33287200D02*
X231523809Y-33334819D01*
X231523809Y-33334819D02*
X231428571Y-33334819D01*
X231428571Y-33334819D02*
X231333333Y-33287200D01*
X231333333Y-33287200D02*
X231285714Y-33239580D01*
X231285714Y-33239580D02*
X231238095Y-33144342D01*
X231238095Y-33144342D02*
X231190476Y-32953866D01*
X231190476Y-32953866D02*
X231190476Y-32715771D01*
X231190476Y-32715771D02*
X231238095Y-32525295D01*
X231238095Y-32525295D02*
X231285714Y-32430057D01*
X231285714Y-32430057D02*
X231333333Y-32382438D01*
X231333333Y-32382438D02*
X231428571Y-32334819D01*
X226428095Y-33654819D02*
X226428095Y-32654819D01*
X226999523Y-33654819D02*
X226570952Y-33083390D01*
X226999523Y-32654819D02*
X226428095Y-33226247D01*
X55952381Y-73334819D02*
X55952381Y-72334819D01*
X55952381Y-72334819D02*
X56190476Y-72334819D01*
X56190476Y-72334819D02*
X56333333Y-72382438D01*
X56333333Y-72382438D02*
X56428571Y-72477676D01*
X56428571Y-72477676D02*
X56476190Y-72572914D01*
X56476190Y-72572914D02*
X56523809Y-72763390D01*
X56523809Y-72763390D02*
X56523809Y-72906247D01*
X56523809Y-72906247D02*
X56476190Y-73096723D01*
X56476190Y-73096723D02*
X56428571Y-73191961D01*
X56428571Y-73191961D02*
X56333333Y-73287200D01*
X56333333Y-73287200D02*
X56190476Y-73334819D01*
X56190476Y-73334819D02*
X55952381Y-73334819D01*
X56904762Y-72430057D02*
X56952381Y-72382438D01*
X56952381Y-72382438D02*
X57047619Y-72334819D01*
X57047619Y-72334819D02*
X57285714Y-72334819D01*
X57285714Y-72334819D02*
X57380952Y-72382438D01*
X57380952Y-72382438D02*
X57428571Y-72430057D01*
X57428571Y-72430057D02*
X57476190Y-72525295D01*
X57476190Y-72525295D02*
X57476190Y-72620533D01*
X57476190Y-72620533D02*
X57428571Y-72763390D01*
X57428571Y-72763390D02*
X56857143Y-73334819D01*
X56857143Y-73334819D02*
X57476190Y-73334819D01*
X58333333Y-72334819D02*
X58142857Y-72334819D01*
X58142857Y-72334819D02*
X58047619Y-72382438D01*
X58047619Y-72382438D02*
X58000000Y-72430057D01*
X58000000Y-72430057D02*
X57904762Y-72572914D01*
X57904762Y-72572914D02*
X57857143Y-72763390D01*
X57857143Y-72763390D02*
X57857143Y-73144342D01*
X57857143Y-73144342D02*
X57904762Y-73239580D01*
X57904762Y-73239580D02*
X57952381Y-73287200D01*
X57952381Y-73287200D02*
X58047619Y-73334819D01*
X58047619Y-73334819D02*
X58238095Y-73334819D01*
X58238095Y-73334819D02*
X58333333Y-73287200D01*
X58333333Y-73287200D02*
X58380952Y-73239580D01*
X58380952Y-73239580D02*
X58428571Y-73144342D01*
X58428571Y-73144342D02*
X58428571Y-72906247D01*
X58428571Y-72906247D02*
X58380952Y-72811009D01*
X58380952Y-72811009D02*
X58333333Y-72763390D01*
X58333333Y-72763390D02*
X58238095Y-72715771D01*
X58238095Y-72715771D02*
X58047619Y-72715771D01*
X58047619Y-72715771D02*
X57952381Y-72763390D01*
X57952381Y-72763390D02*
X57904762Y-72811009D01*
X57904762Y-72811009D02*
X57857143Y-72906247D01*
X53094762Y-73654819D02*
X53094762Y-72654819D01*
X53666190Y-73654819D02*
X53237619Y-73083390D01*
X53666190Y-72654819D02*
X53094762Y-73226247D01*
X222619047Y-53334819D02*
X222619047Y-52334819D01*
X222619047Y-52334819D02*
X222857142Y-52334819D01*
X222857142Y-52334819D02*
X222999999Y-52382438D01*
X222999999Y-52382438D02*
X223095237Y-52477676D01*
X223095237Y-52477676D02*
X223142856Y-52572914D01*
X223142856Y-52572914D02*
X223190475Y-52763390D01*
X223190475Y-52763390D02*
X223190475Y-52906247D01*
X223190475Y-52906247D02*
X223142856Y-53096723D01*
X223142856Y-53096723D02*
X223095237Y-53191961D01*
X223095237Y-53191961D02*
X222999999Y-53287200D01*
X222999999Y-53287200D02*
X222857142Y-53334819D01*
X222857142Y-53334819D02*
X222619047Y-53334819D01*
X223571428Y-52430057D02*
X223619047Y-52382438D01*
X223619047Y-52382438D02*
X223714285Y-52334819D01*
X223714285Y-52334819D02*
X223952380Y-52334819D01*
X223952380Y-52334819D02*
X224047618Y-52382438D01*
X224047618Y-52382438D02*
X224095237Y-52430057D01*
X224095237Y-52430057D02*
X224142856Y-52525295D01*
X224142856Y-52525295D02*
X224142856Y-52620533D01*
X224142856Y-52620533D02*
X224095237Y-52763390D01*
X224095237Y-52763390D02*
X223523809Y-53334819D01*
X223523809Y-53334819D02*
X224142856Y-53334819D01*
X224523809Y-52430057D02*
X224571428Y-52382438D01*
X224571428Y-52382438D02*
X224666666Y-52334819D01*
X224666666Y-52334819D02*
X224904761Y-52334819D01*
X224904761Y-52334819D02*
X224999999Y-52382438D01*
X224999999Y-52382438D02*
X225047618Y-52430057D01*
X225047618Y-52430057D02*
X225095237Y-52525295D01*
X225095237Y-52525295D02*
X225095237Y-52620533D01*
X225095237Y-52620533D02*
X225047618Y-52763390D01*
X225047618Y-52763390D02*
X224476190Y-53334819D01*
X224476190Y-53334819D02*
X225095237Y-53334819D01*
X219761428Y-53654819D02*
X219761428Y-52654819D01*
X220332856Y-53654819D02*
X219904285Y-53083390D01*
X220332856Y-52654819D02*
X219761428Y-53226247D01*
X42619047Y-53334819D02*
X42619047Y-52334819D01*
X42619047Y-52334819D02*
X42857142Y-52334819D01*
X42857142Y-52334819D02*
X42999999Y-52382438D01*
X42999999Y-52382438D02*
X43095237Y-52477676D01*
X43095237Y-52477676D02*
X43142856Y-52572914D01*
X43142856Y-52572914D02*
X43190475Y-52763390D01*
X43190475Y-52763390D02*
X43190475Y-52906247D01*
X43190475Y-52906247D02*
X43142856Y-53096723D01*
X43142856Y-53096723D02*
X43095237Y-53191961D01*
X43095237Y-53191961D02*
X42999999Y-53287200D01*
X42999999Y-53287200D02*
X42857142Y-53334819D01*
X42857142Y-53334819D02*
X42619047Y-53334819D01*
X44142856Y-53334819D02*
X43571428Y-53334819D01*
X43857142Y-53334819D02*
X43857142Y-52334819D01*
X43857142Y-52334819D02*
X43761904Y-52477676D01*
X43761904Y-52477676D02*
X43666666Y-52572914D01*
X43666666Y-52572914D02*
X43571428Y-52620533D01*
X44476190Y-52334819D02*
X45095237Y-52334819D01*
X45095237Y-52334819D02*
X44761904Y-52715771D01*
X44761904Y-52715771D02*
X44904761Y-52715771D01*
X44904761Y-52715771D02*
X44999999Y-52763390D01*
X44999999Y-52763390D02*
X45047618Y-52811009D01*
X45047618Y-52811009D02*
X45095237Y-52906247D01*
X45095237Y-52906247D02*
X45095237Y-53144342D01*
X45095237Y-53144342D02*
X45047618Y-53239580D01*
X45047618Y-53239580D02*
X44999999Y-53287200D01*
X44999999Y-53287200D02*
X44904761Y-53334819D01*
X44904761Y-53334819D02*
X44619047Y-53334819D01*
X44619047Y-53334819D02*
X44523809Y-53287200D01*
X44523809Y-53287200D02*
X44476190Y-53239580D01*
X39761428Y-53654819D02*
X39761428Y-52654819D01*
X40332856Y-53654819D02*
X39904285Y-53083390D01*
X40332856Y-52654819D02*
X39761428Y-53226247D01*
X122619047Y-53334819D02*
X122619047Y-52334819D01*
X122619047Y-52334819D02*
X122857142Y-52334819D01*
X122857142Y-52334819D02*
X122999999Y-52382438D01*
X122999999Y-52382438D02*
X123095237Y-52477676D01*
X123095237Y-52477676D02*
X123142856Y-52572914D01*
X123142856Y-52572914D02*
X123190475Y-52763390D01*
X123190475Y-52763390D02*
X123190475Y-52906247D01*
X123190475Y-52906247D02*
X123142856Y-53096723D01*
X123142856Y-53096723D02*
X123095237Y-53191961D01*
X123095237Y-53191961D02*
X122999999Y-53287200D01*
X122999999Y-53287200D02*
X122857142Y-53334819D01*
X122857142Y-53334819D02*
X122619047Y-53334819D01*
X124142856Y-53334819D02*
X123571428Y-53334819D01*
X123857142Y-53334819D02*
X123857142Y-52334819D01*
X123857142Y-52334819D02*
X123761904Y-52477676D01*
X123761904Y-52477676D02*
X123666666Y-52572914D01*
X123666666Y-52572914D02*
X123571428Y-52620533D01*
X124476190Y-52334819D02*
X125142856Y-52334819D01*
X125142856Y-52334819D02*
X124714285Y-53334819D01*
X119761428Y-53654819D02*
X119761428Y-52654819D01*
X120332856Y-53654819D02*
X119904285Y-53083390D01*
X120332856Y-52654819D02*
X119761428Y-53226247D01*
X82619047Y-53334819D02*
X82619047Y-52334819D01*
X82619047Y-52334819D02*
X82857142Y-52334819D01*
X82857142Y-52334819D02*
X82999999Y-52382438D01*
X82999999Y-52382438D02*
X83095237Y-52477676D01*
X83095237Y-52477676D02*
X83142856Y-52572914D01*
X83142856Y-52572914D02*
X83190475Y-52763390D01*
X83190475Y-52763390D02*
X83190475Y-52906247D01*
X83190475Y-52906247D02*
X83142856Y-53096723D01*
X83142856Y-53096723D02*
X83095237Y-53191961D01*
X83095237Y-53191961D02*
X82999999Y-53287200D01*
X82999999Y-53287200D02*
X82857142Y-53334819D01*
X82857142Y-53334819D02*
X82619047Y-53334819D01*
X84142856Y-53334819D02*
X83571428Y-53334819D01*
X83857142Y-53334819D02*
X83857142Y-52334819D01*
X83857142Y-52334819D02*
X83761904Y-52477676D01*
X83761904Y-52477676D02*
X83666666Y-52572914D01*
X83666666Y-52572914D02*
X83571428Y-52620533D01*
X85047618Y-52334819D02*
X84571428Y-52334819D01*
X84571428Y-52334819D02*
X84523809Y-52811009D01*
X84523809Y-52811009D02*
X84571428Y-52763390D01*
X84571428Y-52763390D02*
X84666666Y-52715771D01*
X84666666Y-52715771D02*
X84904761Y-52715771D01*
X84904761Y-52715771D02*
X84999999Y-52763390D01*
X84999999Y-52763390D02*
X85047618Y-52811009D01*
X85047618Y-52811009D02*
X85095237Y-52906247D01*
X85095237Y-52906247D02*
X85095237Y-53144342D01*
X85095237Y-53144342D02*
X85047618Y-53239580D01*
X85047618Y-53239580D02*
X84999999Y-53287200D01*
X84999999Y-53287200D02*
X84904761Y-53334819D01*
X84904761Y-53334819D02*
X84666666Y-53334819D01*
X84666666Y-53334819D02*
X84571428Y-53287200D01*
X84571428Y-53287200D02*
X84523809Y-53239580D01*
X79761428Y-53654819D02*
X79761428Y-52654819D01*
X80332856Y-53654819D02*
X79904285Y-53083390D01*
X80332856Y-52654819D02*
X79761428Y-53226247D01*
X89761905Y-33334819D02*
X89761905Y-32334819D01*
X89761905Y-32334819D02*
X90000000Y-32334819D01*
X90000000Y-32334819D02*
X90142857Y-32382438D01*
X90142857Y-32382438D02*
X90238095Y-32477676D01*
X90238095Y-32477676D02*
X90285714Y-32572914D01*
X90285714Y-32572914D02*
X90333333Y-32763390D01*
X90333333Y-32763390D02*
X90333333Y-32906247D01*
X90333333Y-32906247D02*
X90285714Y-33096723D01*
X90285714Y-33096723D02*
X90238095Y-33191961D01*
X90238095Y-33191961D02*
X90142857Y-33287200D01*
X90142857Y-33287200D02*
X90000000Y-33334819D01*
X90000000Y-33334819D02*
X89761905Y-33334819D01*
X90666667Y-32334819D02*
X91285714Y-32334819D01*
X91285714Y-32334819D02*
X90952381Y-32715771D01*
X90952381Y-32715771D02*
X91095238Y-32715771D01*
X91095238Y-32715771D02*
X91190476Y-32763390D01*
X91190476Y-32763390D02*
X91238095Y-32811009D01*
X91238095Y-32811009D02*
X91285714Y-32906247D01*
X91285714Y-32906247D02*
X91285714Y-33144342D01*
X91285714Y-33144342D02*
X91238095Y-33239580D01*
X91238095Y-33239580D02*
X91190476Y-33287200D01*
X91190476Y-33287200D02*
X91095238Y-33334819D01*
X91095238Y-33334819D02*
X90809524Y-33334819D01*
X90809524Y-33334819D02*
X90714286Y-33287200D01*
X90714286Y-33287200D02*
X90666667Y-33239580D01*
X86428095Y-33654819D02*
X86428095Y-32654819D01*
X86999523Y-33654819D02*
X86570952Y-33083390D01*
X86999523Y-32654819D02*
X86428095Y-33226247D01*
X202619047Y-53334819D02*
X202619047Y-52334819D01*
X202619047Y-52334819D02*
X202857142Y-52334819D01*
X202857142Y-52334819D02*
X202999999Y-52382438D01*
X202999999Y-52382438D02*
X203095237Y-52477676D01*
X203095237Y-52477676D02*
X203142856Y-52572914D01*
X203142856Y-52572914D02*
X203190475Y-52763390D01*
X203190475Y-52763390D02*
X203190475Y-52906247D01*
X203190475Y-52906247D02*
X203142856Y-53096723D01*
X203142856Y-53096723D02*
X203095237Y-53191961D01*
X203095237Y-53191961D02*
X202999999Y-53287200D01*
X202999999Y-53287200D02*
X202857142Y-53334819D01*
X202857142Y-53334819D02*
X202619047Y-53334819D01*
X203571428Y-52430057D02*
X203619047Y-52382438D01*
X203619047Y-52382438D02*
X203714285Y-52334819D01*
X203714285Y-52334819D02*
X203952380Y-52334819D01*
X203952380Y-52334819D02*
X204047618Y-52382438D01*
X204047618Y-52382438D02*
X204095237Y-52430057D01*
X204095237Y-52430057D02*
X204142856Y-52525295D01*
X204142856Y-52525295D02*
X204142856Y-52620533D01*
X204142856Y-52620533D02*
X204095237Y-52763390D01*
X204095237Y-52763390D02*
X203523809Y-53334819D01*
X203523809Y-53334819D02*
X204142856Y-53334819D01*
X205095237Y-53334819D02*
X204523809Y-53334819D01*
X204809523Y-53334819D02*
X204809523Y-52334819D01*
X204809523Y-52334819D02*
X204714285Y-52477676D01*
X204714285Y-52477676D02*
X204619047Y-52572914D01*
X204619047Y-52572914D02*
X204523809Y-52620533D01*
X199761428Y-53654819D02*
X199761428Y-52654819D01*
X200332856Y-53654819D02*
X199904285Y-53083390D01*
X200332856Y-52654819D02*
X199761428Y-53226247D01*
X209761905Y-33334819D02*
X209761905Y-32334819D01*
X209761905Y-32334819D02*
X210000000Y-32334819D01*
X210000000Y-32334819D02*
X210142857Y-32382438D01*
X210142857Y-32382438D02*
X210238095Y-32477676D01*
X210238095Y-32477676D02*
X210285714Y-32572914D01*
X210285714Y-32572914D02*
X210333333Y-32763390D01*
X210333333Y-32763390D02*
X210333333Y-32906247D01*
X210333333Y-32906247D02*
X210285714Y-33096723D01*
X210285714Y-33096723D02*
X210238095Y-33191961D01*
X210238095Y-33191961D02*
X210142857Y-33287200D01*
X210142857Y-33287200D02*
X210000000Y-33334819D01*
X210000000Y-33334819D02*
X209761905Y-33334819D01*
X210809524Y-33334819D02*
X211000000Y-33334819D01*
X211000000Y-33334819D02*
X211095238Y-33287200D01*
X211095238Y-33287200D02*
X211142857Y-33239580D01*
X211142857Y-33239580D02*
X211238095Y-33096723D01*
X211238095Y-33096723D02*
X211285714Y-32906247D01*
X211285714Y-32906247D02*
X211285714Y-32525295D01*
X211285714Y-32525295D02*
X211238095Y-32430057D01*
X211238095Y-32430057D02*
X211190476Y-32382438D01*
X211190476Y-32382438D02*
X211095238Y-32334819D01*
X211095238Y-32334819D02*
X210904762Y-32334819D01*
X210904762Y-32334819D02*
X210809524Y-32382438D01*
X210809524Y-32382438D02*
X210761905Y-32430057D01*
X210761905Y-32430057D02*
X210714286Y-32525295D01*
X210714286Y-32525295D02*
X210714286Y-32763390D01*
X210714286Y-32763390D02*
X210761905Y-32858628D01*
X210761905Y-32858628D02*
X210809524Y-32906247D01*
X210809524Y-32906247D02*
X210904762Y-32953866D01*
X210904762Y-32953866D02*
X211095238Y-32953866D01*
X211095238Y-32953866D02*
X211190476Y-32906247D01*
X211190476Y-32906247D02*
X211238095Y-32858628D01*
X211238095Y-32858628D02*
X211285714Y-32763390D01*
X206428095Y-33654819D02*
X206428095Y-32654819D01*
X206999523Y-33654819D02*
X206570952Y-33083390D01*
X206999523Y-32654819D02*
X206428095Y-33226247D01*
X269285714Y-33334819D02*
X269285714Y-32334819D01*
X269285714Y-32334819D02*
X269523809Y-32334819D01*
X269523809Y-32334819D02*
X269666666Y-32382438D01*
X269666666Y-32382438D02*
X269761904Y-32477676D01*
X269761904Y-32477676D02*
X269809523Y-32572914D01*
X269809523Y-32572914D02*
X269857142Y-32763390D01*
X269857142Y-32763390D02*
X269857142Y-32906247D01*
X269857142Y-32906247D02*
X269809523Y-33096723D01*
X269809523Y-33096723D02*
X269761904Y-33191961D01*
X269761904Y-33191961D02*
X269666666Y-33287200D01*
X269666666Y-33287200D02*
X269523809Y-33334819D01*
X269523809Y-33334819D02*
X269285714Y-33334819D01*
X270809523Y-33334819D02*
X270238095Y-33334819D01*
X270523809Y-33334819D02*
X270523809Y-32334819D01*
X270523809Y-32334819D02*
X270428571Y-32477676D01*
X270428571Y-32477676D02*
X270333333Y-32572914D01*
X270333333Y-32572914D02*
X270238095Y-32620533D01*
X271190476Y-32430057D02*
X271238095Y-32382438D01*
X271238095Y-32382438D02*
X271333333Y-32334819D01*
X271333333Y-32334819D02*
X271571428Y-32334819D01*
X271571428Y-32334819D02*
X271666666Y-32382438D01*
X271666666Y-32382438D02*
X271714285Y-32430057D01*
X271714285Y-32430057D02*
X271761904Y-32525295D01*
X271761904Y-32525295D02*
X271761904Y-32620533D01*
X271761904Y-32620533D02*
X271714285Y-32763390D01*
X271714285Y-32763390D02*
X271142857Y-33334819D01*
X271142857Y-33334819D02*
X271761904Y-33334819D01*
X266428095Y-33654819D02*
X266428095Y-32654819D01*
X266999523Y-33654819D02*
X266570952Y-33083390D01*
X266999523Y-32654819D02*
X266428095Y-33226247D01*
X95952381Y-73334819D02*
X95952381Y-72334819D01*
X95952381Y-72334819D02*
X96190476Y-72334819D01*
X96190476Y-72334819D02*
X96333333Y-72382438D01*
X96333333Y-72382438D02*
X96428571Y-72477676D01*
X96428571Y-72477676D02*
X96476190Y-72572914D01*
X96476190Y-72572914D02*
X96523809Y-72763390D01*
X96523809Y-72763390D02*
X96523809Y-72906247D01*
X96523809Y-72906247D02*
X96476190Y-73096723D01*
X96476190Y-73096723D02*
X96428571Y-73191961D01*
X96428571Y-73191961D02*
X96333333Y-73287200D01*
X96333333Y-73287200D02*
X96190476Y-73334819D01*
X96190476Y-73334819D02*
X95952381Y-73334819D01*
X96904762Y-72430057D02*
X96952381Y-72382438D01*
X96952381Y-72382438D02*
X97047619Y-72334819D01*
X97047619Y-72334819D02*
X97285714Y-72334819D01*
X97285714Y-72334819D02*
X97380952Y-72382438D01*
X97380952Y-72382438D02*
X97428571Y-72430057D01*
X97428571Y-72430057D02*
X97476190Y-72525295D01*
X97476190Y-72525295D02*
X97476190Y-72620533D01*
X97476190Y-72620533D02*
X97428571Y-72763390D01*
X97428571Y-72763390D02*
X96857143Y-73334819D01*
X96857143Y-73334819D02*
X97476190Y-73334819D01*
X98047619Y-72763390D02*
X97952381Y-72715771D01*
X97952381Y-72715771D02*
X97904762Y-72668152D01*
X97904762Y-72668152D02*
X97857143Y-72572914D01*
X97857143Y-72572914D02*
X97857143Y-72525295D01*
X97857143Y-72525295D02*
X97904762Y-72430057D01*
X97904762Y-72430057D02*
X97952381Y-72382438D01*
X97952381Y-72382438D02*
X98047619Y-72334819D01*
X98047619Y-72334819D02*
X98238095Y-72334819D01*
X98238095Y-72334819D02*
X98333333Y-72382438D01*
X98333333Y-72382438D02*
X98380952Y-72430057D01*
X98380952Y-72430057D02*
X98428571Y-72525295D01*
X98428571Y-72525295D02*
X98428571Y-72572914D01*
X98428571Y-72572914D02*
X98380952Y-72668152D01*
X98380952Y-72668152D02*
X98333333Y-72715771D01*
X98333333Y-72715771D02*
X98238095Y-72763390D01*
X98238095Y-72763390D02*
X98047619Y-72763390D01*
X98047619Y-72763390D02*
X97952381Y-72811009D01*
X97952381Y-72811009D02*
X97904762Y-72858628D01*
X97904762Y-72858628D02*
X97857143Y-72953866D01*
X97857143Y-72953866D02*
X97857143Y-73144342D01*
X97857143Y-73144342D02*
X97904762Y-73239580D01*
X97904762Y-73239580D02*
X97952381Y-73287200D01*
X97952381Y-73287200D02*
X98047619Y-73334819D01*
X98047619Y-73334819D02*
X98238095Y-73334819D01*
X98238095Y-73334819D02*
X98333333Y-73287200D01*
X98333333Y-73287200D02*
X98380952Y-73239580D01*
X98380952Y-73239580D02*
X98428571Y-73144342D01*
X98428571Y-73144342D02*
X98428571Y-72953866D01*
X98428571Y-72953866D02*
X98380952Y-72858628D01*
X98380952Y-72858628D02*
X98333333Y-72811009D01*
X98333333Y-72811009D02*
X98238095Y-72763390D01*
X93094762Y-73654819D02*
X93094762Y-72654819D01*
X93666190Y-73654819D02*
X93237619Y-73083390D01*
X93666190Y-72654819D02*
X93094762Y-73226247D01*
X49761905Y-33334819D02*
X49761905Y-32334819D01*
X49761905Y-32334819D02*
X50000000Y-32334819D01*
X50000000Y-32334819D02*
X50142857Y-32382438D01*
X50142857Y-32382438D02*
X50238095Y-32477676D01*
X50238095Y-32477676D02*
X50285714Y-32572914D01*
X50285714Y-32572914D02*
X50333333Y-32763390D01*
X50333333Y-32763390D02*
X50333333Y-32906247D01*
X50333333Y-32906247D02*
X50285714Y-33096723D01*
X50285714Y-33096723D02*
X50238095Y-33191961D01*
X50238095Y-33191961D02*
X50142857Y-33287200D01*
X50142857Y-33287200D02*
X50000000Y-33334819D01*
X50000000Y-33334819D02*
X49761905Y-33334819D01*
X51285714Y-33334819D02*
X50714286Y-33334819D01*
X51000000Y-33334819D02*
X51000000Y-32334819D01*
X51000000Y-32334819D02*
X50904762Y-32477676D01*
X50904762Y-32477676D02*
X50809524Y-32572914D01*
X50809524Y-32572914D02*
X50714286Y-32620533D01*
X46428095Y-33654819D02*
X46428095Y-32654819D01*
X46999523Y-33654819D02*
X46570952Y-33083390D01*
X46999523Y-32654819D02*
X46428095Y-33226247D01*
X155952381Y-73334819D02*
X155952381Y-72334819D01*
X155952381Y-72334819D02*
X156190476Y-72334819D01*
X156190476Y-72334819D02*
X156333333Y-72382438D01*
X156333333Y-72382438D02*
X156428571Y-72477676D01*
X156428571Y-72477676D02*
X156476190Y-72572914D01*
X156476190Y-72572914D02*
X156523809Y-72763390D01*
X156523809Y-72763390D02*
X156523809Y-72906247D01*
X156523809Y-72906247D02*
X156476190Y-73096723D01*
X156476190Y-73096723D02*
X156428571Y-73191961D01*
X156428571Y-73191961D02*
X156333333Y-73287200D01*
X156333333Y-73287200D02*
X156190476Y-73334819D01*
X156190476Y-73334819D02*
X155952381Y-73334819D01*
X156857143Y-72334819D02*
X157476190Y-72334819D01*
X157476190Y-72334819D02*
X157142857Y-72715771D01*
X157142857Y-72715771D02*
X157285714Y-72715771D01*
X157285714Y-72715771D02*
X157380952Y-72763390D01*
X157380952Y-72763390D02*
X157428571Y-72811009D01*
X157428571Y-72811009D02*
X157476190Y-72906247D01*
X157476190Y-72906247D02*
X157476190Y-73144342D01*
X157476190Y-73144342D02*
X157428571Y-73239580D01*
X157428571Y-73239580D02*
X157380952Y-73287200D01*
X157380952Y-73287200D02*
X157285714Y-73334819D01*
X157285714Y-73334819D02*
X157000000Y-73334819D01*
X157000000Y-73334819D02*
X156904762Y-73287200D01*
X156904762Y-73287200D02*
X156857143Y-73239580D01*
X158428571Y-73334819D02*
X157857143Y-73334819D01*
X158142857Y-73334819D02*
X158142857Y-72334819D01*
X158142857Y-72334819D02*
X158047619Y-72477676D01*
X158047619Y-72477676D02*
X157952381Y-72572914D01*
X157952381Y-72572914D02*
X157857143Y-72620533D01*
X153094762Y-73654819D02*
X153094762Y-72654819D01*
X153666190Y-73654819D02*
X153237619Y-73083390D01*
X153666190Y-72654819D02*
X153094762Y-73226247D01*
X195952381Y-73334819D02*
X195952381Y-72334819D01*
X195952381Y-72334819D02*
X196190476Y-72334819D01*
X196190476Y-72334819D02*
X196333333Y-72382438D01*
X196333333Y-72382438D02*
X196428571Y-72477676D01*
X196428571Y-72477676D02*
X196476190Y-72572914D01*
X196476190Y-72572914D02*
X196523809Y-72763390D01*
X196523809Y-72763390D02*
X196523809Y-72906247D01*
X196523809Y-72906247D02*
X196476190Y-73096723D01*
X196476190Y-73096723D02*
X196428571Y-73191961D01*
X196428571Y-73191961D02*
X196333333Y-73287200D01*
X196333333Y-73287200D02*
X196190476Y-73334819D01*
X196190476Y-73334819D02*
X195952381Y-73334819D01*
X196857143Y-72334819D02*
X197476190Y-72334819D01*
X197476190Y-72334819D02*
X197142857Y-72715771D01*
X197142857Y-72715771D02*
X197285714Y-72715771D01*
X197285714Y-72715771D02*
X197380952Y-72763390D01*
X197380952Y-72763390D02*
X197428571Y-72811009D01*
X197428571Y-72811009D02*
X197476190Y-72906247D01*
X197476190Y-72906247D02*
X197476190Y-73144342D01*
X197476190Y-73144342D02*
X197428571Y-73239580D01*
X197428571Y-73239580D02*
X197380952Y-73287200D01*
X197380952Y-73287200D02*
X197285714Y-73334819D01*
X197285714Y-73334819D02*
X197000000Y-73334819D01*
X197000000Y-73334819D02*
X196904762Y-73287200D01*
X196904762Y-73287200D02*
X196857143Y-73239580D01*
X197809524Y-72334819D02*
X198428571Y-72334819D01*
X198428571Y-72334819D02*
X198095238Y-72715771D01*
X198095238Y-72715771D02*
X198238095Y-72715771D01*
X198238095Y-72715771D02*
X198333333Y-72763390D01*
X198333333Y-72763390D02*
X198380952Y-72811009D01*
X198380952Y-72811009D02*
X198428571Y-72906247D01*
X198428571Y-72906247D02*
X198428571Y-73144342D01*
X198428571Y-73144342D02*
X198380952Y-73239580D01*
X198380952Y-73239580D02*
X198333333Y-73287200D01*
X198333333Y-73287200D02*
X198238095Y-73334819D01*
X198238095Y-73334819D02*
X197952381Y-73334819D01*
X197952381Y-73334819D02*
X197857143Y-73287200D01*
X197857143Y-73287200D02*
X197809524Y-73239580D01*
X193094762Y-73654819D02*
X193094762Y-72654819D01*
X193666190Y-73654819D02*
X193237619Y-73083390D01*
X193666190Y-72654819D02*
X193094762Y-73226247D01*
X102619047Y-53334819D02*
X102619047Y-52334819D01*
X102619047Y-52334819D02*
X102857142Y-52334819D01*
X102857142Y-52334819D02*
X102999999Y-52382438D01*
X102999999Y-52382438D02*
X103095237Y-52477676D01*
X103095237Y-52477676D02*
X103142856Y-52572914D01*
X103142856Y-52572914D02*
X103190475Y-52763390D01*
X103190475Y-52763390D02*
X103190475Y-52906247D01*
X103190475Y-52906247D02*
X103142856Y-53096723D01*
X103142856Y-53096723D02*
X103095237Y-53191961D01*
X103095237Y-53191961D02*
X102999999Y-53287200D01*
X102999999Y-53287200D02*
X102857142Y-53334819D01*
X102857142Y-53334819D02*
X102619047Y-53334819D01*
X104142856Y-53334819D02*
X103571428Y-53334819D01*
X103857142Y-53334819D02*
X103857142Y-52334819D01*
X103857142Y-52334819D02*
X103761904Y-52477676D01*
X103761904Y-52477676D02*
X103666666Y-52572914D01*
X103666666Y-52572914D02*
X103571428Y-52620533D01*
X104999999Y-52334819D02*
X104809523Y-52334819D01*
X104809523Y-52334819D02*
X104714285Y-52382438D01*
X104714285Y-52382438D02*
X104666666Y-52430057D01*
X104666666Y-52430057D02*
X104571428Y-52572914D01*
X104571428Y-52572914D02*
X104523809Y-52763390D01*
X104523809Y-52763390D02*
X104523809Y-53144342D01*
X104523809Y-53144342D02*
X104571428Y-53239580D01*
X104571428Y-53239580D02*
X104619047Y-53287200D01*
X104619047Y-53287200D02*
X104714285Y-53334819D01*
X104714285Y-53334819D02*
X104904761Y-53334819D01*
X104904761Y-53334819D02*
X104999999Y-53287200D01*
X104999999Y-53287200D02*
X105047618Y-53239580D01*
X105047618Y-53239580D02*
X105095237Y-53144342D01*
X105095237Y-53144342D02*
X105095237Y-52906247D01*
X105095237Y-52906247D02*
X105047618Y-52811009D01*
X105047618Y-52811009D02*
X104999999Y-52763390D01*
X104999999Y-52763390D02*
X104904761Y-52715771D01*
X104904761Y-52715771D02*
X104714285Y-52715771D01*
X104714285Y-52715771D02*
X104619047Y-52763390D01*
X104619047Y-52763390D02*
X104571428Y-52811009D01*
X104571428Y-52811009D02*
X104523809Y-52906247D01*
X99761428Y-53654819D02*
X99761428Y-52654819D01*
X100332856Y-53654819D02*
X99904285Y-53083390D01*
X100332856Y-52654819D02*
X99761428Y-53226247D01*
X129761905Y-33334819D02*
X129761905Y-32334819D01*
X129761905Y-32334819D02*
X130000000Y-32334819D01*
X130000000Y-32334819D02*
X130142857Y-32382438D01*
X130142857Y-32382438D02*
X130238095Y-32477676D01*
X130238095Y-32477676D02*
X130285714Y-32572914D01*
X130285714Y-32572914D02*
X130333333Y-32763390D01*
X130333333Y-32763390D02*
X130333333Y-32906247D01*
X130333333Y-32906247D02*
X130285714Y-33096723D01*
X130285714Y-33096723D02*
X130238095Y-33191961D01*
X130238095Y-33191961D02*
X130142857Y-33287200D01*
X130142857Y-33287200D02*
X130000000Y-33334819D01*
X130000000Y-33334819D02*
X129761905Y-33334819D01*
X131238095Y-32334819D02*
X130761905Y-32334819D01*
X130761905Y-32334819D02*
X130714286Y-32811009D01*
X130714286Y-32811009D02*
X130761905Y-32763390D01*
X130761905Y-32763390D02*
X130857143Y-32715771D01*
X130857143Y-32715771D02*
X131095238Y-32715771D01*
X131095238Y-32715771D02*
X131190476Y-32763390D01*
X131190476Y-32763390D02*
X131238095Y-32811009D01*
X131238095Y-32811009D02*
X131285714Y-32906247D01*
X131285714Y-32906247D02*
X131285714Y-33144342D01*
X131285714Y-33144342D02*
X131238095Y-33239580D01*
X131238095Y-33239580D02*
X131190476Y-33287200D01*
X131190476Y-33287200D02*
X131095238Y-33334819D01*
X131095238Y-33334819D02*
X130857143Y-33334819D01*
X130857143Y-33334819D02*
X130761905Y-33287200D01*
X130761905Y-33287200D02*
X130714286Y-33239580D01*
X126428095Y-33654819D02*
X126428095Y-32654819D01*
X126999523Y-33654819D02*
X126570952Y-33083390D01*
X126999523Y-32654819D02*
X126428095Y-33226247D01*
X182619047Y-53334819D02*
X182619047Y-52334819D01*
X182619047Y-52334819D02*
X182857142Y-52334819D01*
X182857142Y-52334819D02*
X182999999Y-52382438D01*
X182999999Y-52382438D02*
X183095237Y-52477676D01*
X183095237Y-52477676D02*
X183142856Y-52572914D01*
X183142856Y-52572914D02*
X183190475Y-52763390D01*
X183190475Y-52763390D02*
X183190475Y-52906247D01*
X183190475Y-52906247D02*
X183142856Y-53096723D01*
X183142856Y-53096723D02*
X183095237Y-53191961D01*
X183095237Y-53191961D02*
X182999999Y-53287200D01*
X182999999Y-53287200D02*
X182857142Y-53334819D01*
X182857142Y-53334819D02*
X182619047Y-53334819D01*
X183571428Y-52430057D02*
X183619047Y-52382438D01*
X183619047Y-52382438D02*
X183714285Y-52334819D01*
X183714285Y-52334819D02*
X183952380Y-52334819D01*
X183952380Y-52334819D02*
X184047618Y-52382438D01*
X184047618Y-52382438D02*
X184095237Y-52430057D01*
X184095237Y-52430057D02*
X184142856Y-52525295D01*
X184142856Y-52525295D02*
X184142856Y-52620533D01*
X184142856Y-52620533D02*
X184095237Y-52763390D01*
X184095237Y-52763390D02*
X183523809Y-53334819D01*
X183523809Y-53334819D02*
X184142856Y-53334819D01*
X184761904Y-52334819D02*
X184857142Y-52334819D01*
X184857142Y-52334819D02*
X184952380Y-52382438D01*
X184952380Y-52382438D02*
X184999999Y-52430057D01*
X184999999Y-52430057D02*
X185047618Y-52525295D01*
X185047618Y-52525295D02*
X185095237Y-52715771D01*
X185095237Y-52715771D02*
X185095237Y-52953866D01*
X185095237Y-52953866D02*
X185047618Y-53144342D01*
X185047618Y-53144342D02*
X184999999Y-53239580D01*
X184999999Y-53239580D02*
X184952380Y-53287200D01*
X184952380Y-53287200D02*
X184857142Y-53334819D01*
X184857142Y-53334819D02*
X184761904Y-53334819D01*
X184761904Y-53334819D02*
X184666666Y-53287200D01*
X184666666Y-53287200D02*
X184619047Y-53239580D01*
X184619047Y-53239580D02*
X184571428Y-53144342D01*
X184571428Y-53144342D02*
X184523809Y-52953866D01*
X184523809Y-52953866D02*
X184523809Y-52715771D01*
X184523809Y-52715771D02*
X184571428Y-52525295D01*
X184571428Y-52525295D02*
X184619047Y-52430057D01*
X184619047Y-52430057D02*
X184666666Y-52382438D01*
X184666666Y-52382438D02*
X184761904Y-52334819D01*
X179761428Y-53654819D02*
X179761428Y-52654819D01*
X180332856Y-53654819D02*
X179904285Y-53083390D01*
X180332856Y-52654819D02*
X179761428Y-53226247D01*
X35952381Y-73334819D02*
X35952381Y-72334819D01*
X35952381Y-72334819D02*
X36190476Y-72334819D01*
X36190476Y-72334819D02*
X36333333Y-72382438D01*
X36333333Y-72382438D02*
X36428571Y-72477676D01*
X36428571Y-72477676D02*
X36476190Y-72572914D01*
X36476190Y-72572914D02*
X36523809Y-72763390D01*
X36523809Y-72763390D02*
X36523809Y-72906247D01*
X36523809Y-72906247D02*
X36476190Y-73096723D01*
X36476190Y-73096723D02*
X36428571Y-73191961D01*
X36428571Y-73191961D02*
X36333333Y-73287200D01*
X36333333Y-73287200D02*
X36190476Y-73334819D01*
X36190476Y-73334819D02*
X35952381Y-73334819D01*
X36904762Y-72430057D02*
X36952381Y-72382438D01*
X36952381Y-72382438D02*
X37047619Y-72334819D01*
X37047619Y-72334819D02*
X37285714Y-72334819D01*
X37285714Y-72334819D02*
X37380952Y-72382438D01*
X37380952Y-72382438D02*
X37428571Y-72430057D01*
X37428571Y-72430057D02*
X37476190Y-72525295D01*
X37476190Y-72525295D02*
X37476190Y-72620533D01*
X37476190Y-72620533D02*
X37428571Y-72763390D01*
X37428571Y-72763390D02*
X36857143Y-73334819D01*
X36857143Y-73334819D02*
X37476190Y-73334819D01*
X38380952Y-72334819D02*
X37904762Y-72334819D01*
X37904762Y-72334819D02*
X37857143Y-72811009D01*
X37857143Y-72811009D02*
X37904762Y-72763390D01*
X37904762Y-72763390D02*
X38000000Y-72715771D01*
X38000000Y-72715771D02*
X38238095Y-72715771D01*
X38238095Y-72715771D02*
X38333333Y-72763390D01*
X38333333Y-72763390D02*
X38380952Y-72811009D01*
X38380952Y-72811009D02*
X38428571Y-72906247D01*
X38428571Y-72906247D02*
X38428571Y-73144342D01*
X38428571Y-73144342D02*
X38380952Y-73239580D01*
X38380952Y-73239580D02*
X38333333Y-73287200D01*
X38333333Y-73287200D02*
X38238095Y-73334819D01*
X38238095Y-73334819D02*
X38000000Y-73334819D01*
X38000000Y-73334819D02*
X37904762Y-73287200D01*
X37904762Y-73287200D02*
X37857143Y-73239580D01*
X33094762Y-73654819D02*
X33094762Y-72654819D01*
X33666190Y-73654819D02*
X33237619Y-73083390D01*
X33666190Y-72654819D02*
X33094762Y-73226247D01*
X189761905Y-33334819D02*
X189761905Y-32334819D01*
X189761905Y-32334819D02*
X190000000Y-32334819D01*
X190000000Y-32334819D02*
X190142857Y-32382438D01*
X190142857Y-32382438D02*
X190238095Y-32477676D01*
X190238095Y-32477676D02*
X190285714Y-32572914D01*
X190285714Y-32572914D02*
X190333333Y-32763390D01*
X190333333Y-32763390D02*
X190333333Y-32906247D01*
X190333333Y-32906247D02*
X190285714Y-33096723D01*
X190285714Y-33096723D02*
X190238095Y-33191961D01*
X190238095Y-33191961D02*
X190142857Y-33287200D01*
X190142857Y-33287200D02*
X190000000Y-33334819D01*
X190000000Y-33334819D02*
X189761905Y-33334819D01*
X190904762Y-32763390D02*
X190809524Y-32715771D01*
X190809524Y-32715771D02*
X190761905Y-32668152D01*
X190761905Y-32668152D02*
X190714286Y-32572914D01*
X190714286Y-32572914D02*
X190714286Y-32525295D01*
X190714286Y-32525295D02*
X190761905Y-32430057D01*
X190761905Y-32430057D02*
X190809524Y-32382438D01*
X190809524Y-32382438D02*
X190904762Y-32334819D01*
X190904762Y-32334819D02*
X191095238Y-32334819D01*
X191095238Y-32334819D02*
X191190476Y-32382438D01*
X191190476Y-32382438D02*
X191238095Y-32430057D01*
X191238095Y-32430057D02*
X191285714Y-32525295D01*
X191285714Y-32525295D02*
X191285714Y-32572914D01*
X191285714Y-32572914D02*
X191238095Y-32668152D01*
X191238095Y-32668152D02*
X191190476Y-32715771D01*
X191190476Y-32715771D02*
X191095238Y-32763390D01*
X191095238Y-32763390D02*
X190904762Y-32763390D01*
X190904762Y-32763390D02*
X190809524Y-32811009D01*
X190809524Y-32811009D02*
X190761905Y-32858628D01*
X190761905Y-32858628D02*
X190714286Y-32953866D01*
X190714286Y-32953866D02*
X190714286Y-33144342D01*
X190714286Y-33144342D02*
X190761905Y-33239580D01*
X190761905Y-33239580D02*
X190809524Y-33287200D01*
X190809524Y-33287200D02*
X190904762Y-33334819D01*
X190904762Y-33334819D02*
X191095238Y-33334819D01*
X191095238Y-33334819D02*
X191190476Y-33287200D01*
X191190476Y-33287200D02*
X191238095Y-33239580D01*
X191238095Y-33239580D02*
X191285714Y-33144342D01*
X191285714Y-33144342D02*
X191285714Y-32953866D01*
X191285714Y-32953866D02*
X191238095Y-32858628D01*
X191238095Y-32858628D02*
X191190476Y-32811009D01*
X191190476Y-32811009D02*
X191095238Y-32763390D01*
X186428095Y-33654819D02*
X186428095Y-32654819D01*
X186999523Y-33654819D02*
X186570952Y-33083390D01*
X186999523Y-32654819D02*
X186428095Y-33226247D01*
X142619047Y-53334819D02*
X142619047Y-52334819D01*
X142619047Y-52334819D02*
X142857142Y-52334819D01*
X142857142Y-52334819D02*
X142999999Y-52382438D01*
X142999999Y-52382438D02*
X143095237Y-52477676D01*
X143095237Y-52477676D02*
X143142856Y-52572914D01*
X143142856Y-52572914D02*
X143190475Y-52763390D01*
X143190475Y-52763390D02*
X143190475Y-52906247D01*
X143190475Y-52906247D02*
X143142856Y-53096723D01*
X143142856Y-53096723D02*
X143095237Y-53191961D01*
X143095237Y-53191961D02*
X142999999Y-53287200D01*
X142999999Y-53287200D02*
X142857142Y-53334819D01*
X142857142Y-53334819D02*
X142619047Y-53334819D01*
X144142856Y-53334819D02*
X143571428Y-53334819D01*
X143857142Y-53334819D02*
X143857142Y-52334819D01*
X143857142Y-52334819D02*
X143761904Y-52477676D01*
X143761904Y-52477676D02*
X143666666Y-52572914D01*
X143666666Y-52572914D02*
X143571428Y-52620533D01*
X144714285Y-52763390D02*
X144619047Y-52715771D01*
X144619047Y-52715771D02*
X144571428Y-52668152D01*
X144571428Y-52668152D02*
X144523809Y-52572914D01*
X144523809Y-52572914D02*
X144523809Y-52525295D01*
X144523809Y-52525295D02*
X144571428Y-52430057D01*
X144571428Y-52430057D02*
X144619047Y-52382438D01*
X144619047Y-52382438D02*
X144714285Y-52334819D01*
X144714285Y-52334819D02*
X144904761Y-52334819D01*
X144904761Y-52334819D02*
X144999999Y-52382438D01*
X144999999Y-52382438D02*
X145047618Y-52430057D01*
X145047618Y-52430057D02*
X145095237Y-52525295D01*
X145095237Y-52525295D02*
X145095237Y-52572914D01*
X145095237Y-52572914D02*
X145047618Y-52668152D01*
X145047618Y-52668152D02*
X144999999Y-52715771D01*
X144999999Y-52715771D02*
X144904761Y-52763390D01*
X144904761Y-52763390D02*
X144714285Y-52763390D01*
X144714285Y-52763390D02*
X144619047Y-52811009D01*
X144619047Y-52811009D02*
X144571428Y-52858628D01*
X144571428Y-52858628D02*
X144523809Y-52953866D01*
X144523809Y-52953866D02*
X144523809Y-53144342D01*
X144523809Y-53144342D02*
X144571428Y-53239580D01*
X144571428Y-53239580D02*
X144619047Y-53287200D01*
X144619047Y-53287200D02*
X144714285Y-53334819D01*
X144714285Y-53334819D02*
X144904761Y-53334819D01*
X144904761Y-53334819D02*
X144999999Y-53287200D01*
X144999999Y-53287200D02*
X145047618Y-53239580D01*
X145047618Y-53239580D02*
X145095237Y-53144342D01*
X145095237Y-53144342D02*
X145095237Y-52953866D01*
X145095237Y-52953866D02*
X145047618Y-52858628D01*
X145047618Y-52858628D02*
X144999999Y-52811009D01*
X144999999Y-52811009D02*
X144904761Y-52763390D01*
X139761428Y-53654819D02*
X139761428Y-52654819D01*
X140332856Y-53654819D02*
X139904285Y-53083390D01*
X140332856Y-52654819D02*
X139761428Y-53226247D01*
X249285714Y-33334819D02*
X249285714Y-32334819D01*
X249285714Y-32334819D02*
X249523809Y-32334819D01*
X249523809Y-32334819D02*
X249666666Y-32382438D01*
X249666666Y-32382438D02*
X249761904Y-32477676D01*
X249761904Y-32477676D02*
X249809523Y-32572914D01*
X249809523Y-32572914D02*
X249857142Y-32763390D01*
X249857142Y-32763390D02*
X249857142Y-32906247D01*
X249857142Y-32906247D02*
X249809523Y-33096723D01*
X249809523Y-33096723D02*
X249761904Y-33191961D01*
X249761904Y-33191961D02*
X249666666Y-33287200D01*
X249666666Y-33287200D02*
X249523809Y-33334819D01*
X249523809Y-33334819D02*
X249285714Y-33334819D01*
X250809523Y-33334819D02*
X250238095Y-33334819D01*
X250523809Y-33334819D02*
X250523809Y-32334819D01*
X250523809Y-32334819D02*
X250428571Y-32477676D01*
X250428571Y-32477676D02*
X250333333Y-32572914D01*
X250333333Y-32572914D02*
X250238095Y-32620533D01*
X251761904Y-33334819D02*
X251190476Y-33334819D01*
X251476190Y-33334819D02*
X251476190Y-32334819D01*
X251476190Y-32334819D02*
X251380952Y-32477676D01*
X251380952Y-32477676D02*
X251285714Y-32572914D01*
X251285714Y-32572914D02*
X251190476Y-32620533D01*
X246428095Y-33654819D02*
X246428095Y-32654819D01*
X246999523Y-33654819D02*
X246570952Y-33083390D01*
X246999523Y-32654819D02*
X246428095Y-33226247D01*
X109761905Y-33334819D02*
X109761905Y-32334819D01*
X109761905Y-32334819D02*
X110000000Y-32334819D01*
X110000000Y-32334819D02*
X110142857Y-32382438D01*
X110142857Y-32382438D02*
X110238095Y-32477676D01*
X110238095Y-32477676D02*
X110285714Y-32572914D01*
X110285714Y-32572914D02*
X110333333Y-32763390D01*
X110333333Y-32763390D02*
X110333333Y-32906247D01*
X110333333Y-32906247D02*
X110285714Y-33096723D01*
X110285714Y-33096723D02*
X110238095Y-33191961D01*
X110238095Y-33191961D02*
X110142857Y-33287200D01*
X110142857Y-33287200D02*
X110000000Y-33334819D01*
X110000000Y-33334819D02*
X109761905Y-33334819D01*
X111190476Y-32668152D02*
X111190476Y-33334819D01*
X110952381Y-32287200D02*
X110714286Y-33001485D01*
X110714286Y-33001485D02*
X111333333Y-33001485D01*
X106428095Y-33654819D02*
X106428095Y-32654819D01*
X106999523Y-33654819D02*
X106570952Y-33083390D01*
X106999523Y-32654819D02*
X106428095Y-33226247D01*
X262619047Y-53334819D02*
X262619047Y-52334819D01*
X262619047Y-52334819D02*
X262857142Y-52334819D01*
X262857142Y-52334819D02*
X262999999Y-52382438D01*
X262999999Y-52382438D02*
X263095237Y-52477676D01*
X263095237Y-52477676D02*
X263142856Y-52572914D01*
X263142856Y-52572914D02*
X263190475Y-52763390D01*
X263190475Y-52763390D02*
X263190475Y-52906247D01*
X263190475Y-52906247D02*
X263142856Y-53096723D01*
X263142856Y-53096723D02*
X263095237Y-53191961D01*
X263095237Y-53191961D02*
X262999999Y-53287200D01*
X262999999Y-53287200D02*
X262857142Y-53334819D01*
X262857142Y-53334819D02*
X262619047Y-53334819D01*
X263571428Y-52430057D02*
X263619047Y-52382438D01*
X263619047Y-52382438D02*
X263714285Y-52334819D01*
X263714285Y-52334819D02*
X263952380Y-52334819D01*
X263952380Y-52334819D02*
X264047618Y-52382438D01*
X264047618Y-52382438D02*
X264095237Y-52430057D01*
X264095237Y-52430057D02*
X264142856Y-52525295D01*
X264142856Y-52525295D02*
X264142856Y-52620533D01*
X264142856Y-52620533D02*
X264095237Y-52763390D01*
X264095237Y-52763390D02*
X263523809Y-53334819D01*
X263523809Y-53334819D02*
X264142856Y-53334819D01*
X264999999Y-52668152D02*
X264999999Y-53334819D01*
X264761904Y-52287200D02*
X264523809Y-53001485D01*
X264523809Y-53001485D02*
X265142856Y-53001485D01*
X259761428Y-53654819D02*
X259761428Y-52654819D01*
X260332856Y-53654819D02*
X259904285Y-53083390D01*
X260332856Y-52654819D02*
X259761428Y-53226247D01*
X242619047Y-53334819D02*
X242619047Y-52334819D01*
X242619047Y-52334819D02*
X242857142Y-52334819D01*
X242857142Y-52334819D02*
X242999999Y-52382438D01*
X242999999Y-52382438D02*
X243095237Y-52477676D01*
X243095237Y-52477676D02*
X243142856Y-52572914D01*
X243142856Y-52572914D02*
X243190475Y-52763390D01*
X243190475Y-52763390D02*
X243190475Y-52906247D01*
X243190475Y-52906247D02*
X243142856Y-53096723D01*
X243142856Y-53096723D02*
X243095237Y-53191961D01*
X243095237Y-53191961D02*
X242999999Y-53287200D01*
X242999999Y-53287200D02*
X242857142Y-53334819D01*
X242857142Y-53334819D02*
X242619047Y-53334819D01*
X243571428Y-52430057D02*
X243619047Y-52382438D01*
X243619047Y-52382438D02*
X243714285Y-52334819D01*
X243714285Y-52334819D02*
X243952380Y-52334819D01*
X243952380Y-52334819D02*
X244047618Y-52382438D01*
X244047618Y-52382438D02*
X244095237Y-52430057D01*
X244095237Y-52430057D02*
X244142856Y-52525295D01*
X244142856Y-52525295D02*
X244142856Y-52620533D01*
X244142856Y-52620533D02*
X244095237Y-52763390D01*
X244095237Y-52763390D02*
X243523809Y-53334819D01*
X243523809Y-53334819D02*
X244142856Y-53334819D01*
X244476190Y-52334819D02*
X245095237Y-52334819D01*
X245095237Y-52334819D02*
X244761904Y-52715771D01*
X244761904Y-52715771D02*
X244904761Y-52715771D01*
X244904761Y-52715771D02*
X244999999Y-52763390D01*
X244999999Y-52763390D02*
X245047618Y-52811009D01*
X245047618Y-52811009D02*
X245095237Y-52906247D01*
X245095237Y-52906247D02*
X245095237Y-53144342D01*
X245095237Y-53144342D02*
X245047618Y-53239580D01*
X245047618Y-53239580D02*
X244999999Y-53287200D01*
X244999999Y-53287200D02*
X244904761Y-53334819D01*
X244904761Y-53334819D02*
X244619047Y-53334819D01*
X244619047Y-53334819D02*
X244523809Y-53287200D01*
X244523809Y-53287200D02*
X244476190Y-53239580D01*
X239761428Y-53654819D02*
X239761428Y-52654819D01*
X240332856Y-53654819D02*
X239904285Y-53083390D01*
X240332856Y-52654819D02*
X239761428Y-53226247D01*
X255952381Y-73334819D02*
X255952381Y-72334819D01*
X255952381Y-72334819D02*
X256190476Y-72334819D01*
X256190476Y-72334819D02*
X256333333Y-72382438D01*
X256333333Y-72382438D02*
X256428571Y-72477676D01*
X256428571Y-72477676D02*
X256476190Y-72572914D01*
X256476190Y-72572914D02*
X256523809Y-72763390D01*
X256523809Y-72763390D02*
X256523809Y-72906247D01*
X256523809Y-72906247D02*
X256476190Y-73096723D01*
X256476190Y-73096723D02*
X256428571Y-73191961D01*
X256428571Y-73191961D02*
X256333333Y-73287200D01*
X256333333Y-73287200D02*
X256190476Y-73334819D01*
X256190476Y-73334819D02*
X255952381Y-73334819D01*
X256857143Y-72334819D02*
X257476190Y-72334819D01*
X257476190Y-72334819D02*
X257142857Y-72715771D01*
X257142857Y-72715771D02*
X257285714Y-72715771D01*
X257285714Y-72715771D02*
X257380952Y-72763390D01*
X257380952Y-72763390D02*
X257428571Y-72811009D01*
X257428571Y-72811009D02*
X257476190Y-72906247D01*
X257476190Y-72906247D02*
X257476190Y-73144342D01*
X257476190Y-73144342D02*
X257428571Y-73239580D01*
X257428571Y-73239580D02*
X257380952Y-73287200D01*
X257380952Y-73287200D02*
X257285714Y-73334819D01*
X257285714Y-73334819D02*
X257000000Y-73334819D01*
X257000000Y-73334819D02*
X256904762Y-73287200D01*
X256904762Y-73287200D02*
X256857143Y-73239580D01*
X258333333Y-72334819D02*
X258142857Y-72334819D01*
X258142857Y-72334819D02*
X258047619Y-72382438D01*
X258047619Y-72382438D02*
X258000000Y-72430057D01*
X258000000Y-72430057D02*
X257904762Y-72572914D01*
X257904762Y-72572914D02*
X257857143Y-72763390D01*
X257857143Y-72763390D02*
X257857143Y-73144342D01*
X257857143Y-73144342D02*
X257904762Y-73239580D01*
X257904762Y-73239580D02*
X257952381Y-73287200D01*
X257952381Y-73287200D02*
X258047619Y-73334819D01*
X258047619Y-73334819D02*
X258238095Y-73334819D01*
X258238095Y-73334819D02*
X258333333Y-73287200D01*
X258333333Y-73287200D02*
X258380952Y-73239580D01*
X258380952Y-73239580D02*
X258428571Y-73144342D01*
X258428571Y-73144342D02*
X258428571Y-72906247D01*
X258428571Y-72906247D02*
X258380952Y-72811009D01*
X258380952Y-72811009D02*
X258333333Y-72763390D01*
X258333333Y-72763390D02*
X258238095Y-72715771D01*
X258238095Y-72715771D02*
X258047619Y-72715771D01*
X258047619Y-72715771D02*
X257952381Y-72763390D01*
X257952381Y-72763390D02*
X257904762Y-72811009D01*
X257904762Y-72811009D02*
X257857143Y-72906247D01*
X253094762Y-73654819D02*
X253094762Y-72654819D01*
X253666190Y-73654819D02*
X253237619Y-73083390D01*
X253666190Y-72654819D02*
X253094762Y-73226247D01*
X162619047Y-53334819D02*
X162619047Y-52334819D01*
X162619047Y-52334819D02*
X162857142Y-52334819D01*
X162857142Y-52334819D02*
X162999999Y-52382438D01*
X162999999Y-52382438D02*
X163095237Y-52477676D01*
X163095237Y-52477676D02*
X163142856Y-52572914D01*
X163142856Y-52572914D02*
X163190475Y-52763390D01*
X163190475Y-52763390D02*
X163190475Y-52906247D01*
X163190475Y-52906247D02*
X163142856Y-53096723D01*
X163142856Y-53096723D02*
X163095237Y-53191961D01*
X163095237Y-53191961D02*
X162999999Y-53287200D01*
X162999999Y-53287200D02*
X162857142Y-53334819D01*
X162857142Y-53334819D02*
X162619047Y-53334819D01*
X164142856Y-53334819D02*
X163571428Y-53334819D01*
X163857142Y-53334819D02*
X163857142Y-52334819D01*
X163857142Y-52334819D02*
X163761904Y-52477676D01*
X163761904Y-52477676D02*
X163666666Y-52572914D01*
X163666666Y-52572914D02*
X163571428Y-52620533D01*
X164619047Y-53334819D02*
X164809523Y-53334819D01*
X164809523Y-53334819D02*
X164904761Y-53287200D01*
X164904761Y-53287200D02*
X164952380Y-53239580D01*
X164952380Y-53239580D02*
X165047618Y-53096723D01*
X165047618Y-53096723D02*
X165095237Y-52906247D01*
X165095237Y-52906247D02*
X165095237Y-52525295D01*
X165095237Y-52525295D02*
X165047618Y-52430057D01*
X165047618Y-52430057D02*
X164999999Y-52382438D01*
X164999999Y-52382438D02*
X164904761Y-52334819D01*
X164904761Y-52334819D02*
X164714285Y-52334819D01*
X164714285Y-52334819D02*
X164619047Y-52382438D01*
X164619047Y-52382438D02*
X164571428Y-52430057D01*
X164571428Y-52430057D02*
X164523809Y-52525295D01*
X164523809Y-52525295D02*
X164523809Y-52763390D01*
X164523809Y-52763390D02*
X164571428Y-52858628D01*
X164571428Y-52858628D02*
X164619047Y-52906247D01*
X164619047Y-52906247D02*
X164714285Y-52953866D01*
X164714285Y-52953866D02*
X164904761Y-52953866D01*
X164904761Y-52953866D02*
X164999999Y-52906247D01*
X164999999Y-52906247D02*
X165047618Y-52858628D01*
X165047618Y-52858628D02*
X165095237Y-52763390D01*
X159761428Y-53654819D02*
X159761428Y-52654819D01*
X160332856Y-53654819D02*
X159904285Y-53083390D01*
X160332856Y-52654819D02*
X159761428Y-53226247D01*
X115952381Y-73334819D02*
X115952381Y-72334819D01*
X115952381Y-72334819D02*
X116190476Y-72334819D01*
X116190476Y-72334819D02*
X116333333Y-72382438D01*
X116333333Y-72382438D02*
X116428571Y-72477676D01*
X116428571Y-72477676D02*
X116476190Y-72572914D01*
X116476190Y-72572914D02*
X116523809Y-72763390D01*
X116523809Y-72763390D02*
X116523809Y-72906247D01*
X116523809Y-72906247D02*
X116476190Y-73096723D01*
X116476190Y-73096723D02*
X116428571Y-73191961D01*
X116428571Y-73191961D02*
X116333333Y-73287200D01*
X116333333Y-73287200D02*
X116190476Y-73334819D01*
X116190476Y-73334819D02*
X115952381Y-73334819D01*
X116904762Y-72430057D02*
X116952381Y-72382438D01*
X116952381Y-72382438D02*
X117047619Y-72334819D01*
X117047619Y-72334819D02*
X117285714Y-72334819D01*
X117285714Y-72334819D02*
X117380952Y-72382438D01*
X117380952Y-72382438D02*
X117428571Y-72430057D01*
X117428571Y-72430057D02*
X117476190Y-72525295D01*
X117476190Y-72525295D02*
X117476190Y-72620533D01*
X117476190Y-72620533D02*
X117428571Y-72763390D01*
X117428571Y-72763390D02*
X116857143Y-73334819D01*
X116857143Y-73334819D02*
X117476190Y-73334819D01*
X117952381Y-73334819D02*
X118142857Y-73334819D01*
X118142857Y-73334819D02*
X118238095Y-73287200D01*
X118238095Y-73287200D02*
X118285714Y-73239580D01*
X118285714Y-73239580D02*
X118380952Y-73096723D01*
X118380952Y-73096723D02*
X118428571Y-72906247D01*
X118428571Y-72906247D02*
X118428571Y-72525295D01*
X118428571Y-72525295D02*
X118380952Y-72430057D01*
X118380952Y-72430057D02*
X118333333Y-72382438D01*
X118333333Y-72382438D02*
X118238095Y-72334819D01*
X118238095Y-72334819D02*
X118047619Y-72334819D01*
X118047619Y-72334819D02*
X117952381Y-72382438D01*
X117952381Y-72382438D02*
X117904762Y-72430057D01*
X117904762Y-72430057D02*
X117857143Y-72525295D01*
X117857143Y-72525295D02*
X117857143Y-72763390D01*
X117857143Y-72763390D02*
X117904762Y-72858628D01*
X117904762Y-72858628D02*
X117952381Y-72906247D01*
X117952381Y-72906247D02*
X118047619Y-72953866D01*
X118047619Y-72953866D02*
X118238095Y-72953866D01*
X118238095Y-72953866D02*
X118333333Y-72906247D01*
X118333333Y-72906247D02*
X118380952Y-72858628D01*
X118380952Y-72858628D02*
X118428571Y-72763390D01*
X113094762Y-73654819D02*
X113094762Y-72654819D01*
X113666190Y-73654819D02*
X113237619Y-73083390D01*
X113666190Y-72654819D02*
X113094762Y-73226247D01*
X135952381Y-73334819D02*
X135952381Y-72334819D01*
X135952381Y-72334819D02*
X136190476Y-72334819D01*
X136190476Y-72334819D02*
X136333333Y-72382438D01*
X136333333Y-72382438D02*
X136428571Y-72477676D01*
X136428571Y-72477676D02*
X136476190Y-72572914D01*
X136476190Y-72572914D02*
X136523809Y-72763390D01*
X136523809Y-72763390D02*
X136523809Y-72906247D01*
X136523809Y-72906247D02*
X136476190Y-73096723D01*
X136476190Y-73096723D02*
X136428571Y-73191961D01*
X136428571Y-73191961D02*
X136333333Y-73287200D01*
X136333333Y-73287200D02*
X136190476Y-73334819D01*
X136190476Y-73334819D02*
X135952381Y-73334819D01*
X136857143Y-72334819D02*
X137476190Y-72334819D01*
X137476190Y-72334819D02*
X137142857Y-72715771D01*
X137142857Y-72715771D02*
X137285714Y-72715771D01*
X137285714Y-72715771D02*
X137380952Y-72763390D01*
X137380952Y-72763390D02*
X137428571Y-72811009D01*
X137428571Y-72811009D02*
X137476190Y-72906247D01*
X137476190Y-72906247D02*
X137476190Y-73144342D01*
X137476190Y-73144342D02*
X137428571Y-73239580D01*
X137428571Y-73239580D02*
X137380952Y-73287200D01*
X137380952Y-73287200D02*
X137285714Y-73334819D01*
X137285714Y-73334819D02*
X137000000Y-73334819D01*
X137000000Y-73334819D02*
X136904762Y-73287200D01*
X136904762Y-73287200D02*
X136857143Y-73239580D01*
X138095238Y-72334819D02*
X138190476Y-72334819D01*
X138190476Y-72334819D02*
X138285714Y-72382438D01*
X138285714Y-72382438D02*
X138333333Y-72430057D01*
X138333333Y-72430057D02*
X138380952Y-72525295D01*
X138380952Y-72525295D02*
X138428571Y-72715771D01*
X138428571Y-72715771D02*
X138428571Y-72953866D01*
X138428571Y-72953866D02*
X138380952Y-73144342D01*
X138380952Y-73144342D02*
X138333333Y-73239580D01*
X138333333Y-73239580D02*
X138285714Y-73287200D01*
X138285714Y-73287200D02*
X138190476Y-73334819D01*
X138190476Y-73334819D02*
X138095238Y-73334819D01*
X138095238Y-73334819D02*
X138000000Y-73287200D01*
X138000000Y-73287200D02*
X137952381Y-73239580D01*
X137952381Y-73239580D02*
X137904762Y-73144342D01*
X137904762Y-73144342D02*
X137857143Y-72953866D01*
X137857143Y-72953866D02*
X137857143Y-72715771D01*
X137857143Y-72715771D02*
X137904762Y-72525295D01*
X137904762Y-72525295D02*
X137952381Y-72430057D01*
X137952381Y-72430057D02*
X138000000Y-72382438D01*
X138000000Y-72382438D02*
X138095238Y-72334819D01*
X133094762Y-73654819D02*
X133094762Y-72654819D01*
X133666190Y-73654819D02*
X133237619Y-73083390D01*
X133666190Y-72654819D02*
X133094762Y-73226247D01*
X149761905Y-33334819D02*
X149761905Y-32334819D01*
X149761905Y-32334819D02*
X150000000Y-32334819D01*
X150000000Y-32334819D02*
X150142857Y-32382438D01*
X150142857Y-32382438D02*
X150238095Y-32477676D01*
X150238095Y-32477676D02*
X150285714Y-32572914D01*
X150285714Y-32572914D02*
X150333333Y-32763390D01*
X150333333Y-32763390D02*
X150333333Y-32906247D01*
X150333333Y-32906247D02*
X150285714Y-33096723D01*
X150285714Y-33096723D02*
X150238095Y-33191961D01*
X150238095Y-33191961D02*
X150142857Y-33287200D01*
X150142857Y-33287200D02*
X150000000Y-33334819D01*
X150000000Y-33334819D02*
X149761905Y-33334819D01*
X151190476Y-32334819D02*
X151000000Y-32334819D01*
X151000000Y-32334819D02*
X150904762Y-32382438D01*
X150904762Y-32382438D02*
X150857143Y-32430057D01*
X150857143Y-32430057D02*
X150761905Y-32572914D01*
X150761905Y-32572914D02*
X150714286Y-32763390D01*
X150714286Y-32763390D02*
X150714286Y-33144342D01*
X150714286Y-33144342D02*
X150761905Y-33239580D01*
X150761905Y-33239580D02*
X150809524Y-33287200D01*
X150809524Y-33287200D02*
X150904762Y-33334819D01*
X150904762Y-33334819D02*
X151095238Y-33334819D01*
X151095238Y-33334819D02*
X151190476Y-33287200D01*
X151190476Y-33287200D02*
X151238095Y-33239580D01*
X151238095Y-33239580D02*
X151285714Y-33144342D01*
X151285714Y-33144342D02*
X151285714Y-32906247D01*
X151285714Y-32906247D02*
X151238095Y-32811009D01*
X151238095Y-32811009D02*
X151190476Y-32763390D01*
X151190476Y-32763390D02*
X151095238Y-32715771D01*
X151095238Y-32715771D02*
X150904762Y-32715771D01*
X150904762Y-32715771D02*
X150809524Y-32763390D01*
X150809524Y-32763390D02*
X150761905Y-32811009D01*
X150761905Y-32811009D02*
X150714286Y-32906247D01*
X146428095Y-33654819D02*
X146428095Y-32654819D01*
X146999523Y-33654819D02*
X146570952Y-33083390D01*
X146999523Y-32654819D02*
X146428095Y-33226247D01*
X62619047Y-53334819D02*
X62619047Y-52334819D01*
X62619047Y-52334819D02*
X62857142Y-52334819D01*
X62857142Y-52334819D02*
X62999999Y-52382438D01*
X62999999Y-52382438D02*
X63095237Y-52477676D01*
X63095237Y-52477676D02*
X63142856Y-52572914D01*
X63142856Y-52572914D02*
X63190475Y-52763390D01*
X63190475Y-52763390D02*
X63190475Y-52906247D01*
X63190475Y-52906247D02*
X63142856Y-53096723D01*
X63142856Y-53096723D02*
X63095237Y-53191961D01*
X63095237Y-53191961D02*
X62999999Y-53287200D01*
X62999999Y-53287200D02*
X62857142Y-53334819D01*
X62857142Y-53334819D02*
X62619047Y-53334819D01*
X64142856Y-53334819D02*
X63571428Y-53334819D01*
X63857142Y-53334819D02*
X63857142Y-52334819D01*
X63857142Y-52334819D02*
X63761904Y-52477676D01*
X63761904Y-52477676D02*
X63666666Y-52572914D01*
X63666666Y-52572914D02*
X63571428Y-52620533D01*
X64999999Y-52668152D02*
X64999999Y-53334819D01*
X64761904Y-52287200D02*
X64523809Y-53001485D01*
X64523809Y-53001485D02*
X65142856Y-53001485D01*
X59761428Y-53654819D02*
X59761428Y-52654819D01*
X60332856Y-53654819D02*
X59904285Y-53083390D01*
X60332856Y-52654819D02*
X59761428Y-53226247D01*
X69761905Y-33334819D02*
X69761905Y-32334819D01*
X69761905Y-32334819D02*
X70000000Y-32334819D01*
X70000000Y-32334819D02*
X70142857Y-32382438D01*
X70142857Y-32382438D02*
X70238095Y-32477676D01*
X70238095Y-32477676D02*
X70285714Y-32572914D01*
X70285714Y-32572914D02*
X70333333Y-32763390D01*
X70333333Y-32763390D02*
X70333333Y-32906247D01*
X70333333Y-32906247D02*
X70285714Y-33096723D01*
X70285714Y-33096723D02*
X70238095Y-33191961D01*
X70238095Y-33191961D02*
X70142857Y-33287200D01*
X70142857Y-33287200D02*
X70000000Y-33334819D01*
X70000000Y-33334819D02*
X69761905Y-33334819D01*
X70714286Y-32430057D02*
X70761905Y-32382438D01*
X70761905Y-32382438D02*
X70857143Y-32334819D01*
X70857143Y-32334819D02*
X71095238Y-32334819D01*
X71095238Y-32334819D02*
X71190476Y-32382438D01*
X71190476Y-32382438D02*
X71238095Y-32430057D01*
X71238095Y-32430057D02*
X71285714Y-32525295D01*
X71285714Y-32525295D02*
X71285714Y-32620533D01*
X71285714Y-32620533D02*
X71238095Y-32763390D01*
X71238095Y-32763390D02*
X70666667Y-33334819D01*
X70666667Y-33334819D02*
X71285714Y-33334819D01*
X66428095Y-33654819D02*
X66428095Y-32654819D01*
X66999523Y-33654819D02*
X66570952Y-33083390D01*
X66999523Y-32654819D02*
X66428095Y-33226247D01*
X235952381Y-73334819D02*
X235952381Y-72334819D01*
X235952381Y-72334819D02*
X236190476Y-72334819D01*
X236190476Y-72334819D02*
X236333333Y-72382438D01*
X236333333Y-72382438D02*
X236428571Y-72477676D01*
X236428571Y-72477676D02*
X236476190Y-72572914D01*
X236476190Y-72572914D02*
X236523809Y-72763390D01*
X236523809Y-72763390D02*
X236523809Y-72906247D01*
X236523809Y-72906247D02*
X236476190Y-73096723D01*
X236476190Y-73096723D02*
X236428571Y-73191961D01*
X236428571Y-73191961D02*
X236333333Y-73287200D01*
X236333333Y-73287200D02*
X236190476Y-73334819D01*
X236190476Y-73334819D02*
X235952381Y-73334819D01*
X236857143Y-72334819D02*
X237476190Y-72334819D01*
X237476190Y-72334819D02*
X237142857Y-72715771D01*
X237142857Y-72715771D02*
X237285714Y-72715771D01*
X237285714Y-72715771D02*
X237380952Y-72763390D01*
X237380952Y-72763390D02*
X237428571Y-72811009D01*
X237428571Y-72811009D02*
X237476190Y-72906247D01*
X237476190Y-72906247D02*
X237476190Y-73144342D01*
X237476190Y-73144342D02*
X237428571Y-73239580D01*
X237428571Y-73239580D02*
X237380952Y-73287200D01*
X237380952Y-73287200D02*
X237285714Y-73334819D01*
X237285714Y-73334819D02*
X237000000Y-73334819D01*
X237000000Y-73334819D02*
X236904762Y-73287200D01*
X236904762Y-73287200D02*
X236857143Y-73239580D01*
X238380952Y-72334819D02*
X237904762Y-72334819D01*
X237904762Y-72334819D02*
X237857143Y-72811009D01*
X237857143Y-72811009D02*
X237904762Y-72763390D01*
X237904762Y-72763390D02*
X238000000Y-72715771D01*
X238000000Y-72715771D02*
X238238095Y-72715771D01*
X238238095Y-72715771D02*
X238333333Y-72763390D01*
X238333333Y-72763390D02*
X238380952Y-72811009D01*
X238380952Y-72811009D02*
X238428571Y-72906247D01*
X238428571Y-72906247D02*
X238428571Y-73144342D01*
X238428571Y-73144342D02*
X238380952Y-73239580D01*
X238380952Y-73239580D02*
X238333333Y-73287200D01*
X238333333Y-73287200D02*
X238238095Y-73334819D01*
X238238095Y-73334819D02*
X238000000Y-73334819D01*
X238000000Y-73334819D02*
X237904762Y-73287200D01*
X237904762Y-73287200D02*
X237857143Y-73239580D01*
X233094762Y-73654819D02*
X233094762Y-72654819D01*
X233666190Y-73654819D02*
X233237619Y-73083390D01*
X233666190Y-72654819D02*
X233094762Y-73226247D01*
X169761905Y-33334819D02*
X169761905Y-32334819D01*
X169761905Y-32334819D02*
X170000000Y-32334819D01*
X170000000Y-32334819D02*
X170142857Y-32382438D01*
X170142857Y-32382438D02*
X170238095Y-32477676D01*
X170238095Y-32477676D02*
X170285714Y-32572914D01*
X170285714Y-32572914D02*
X170333333Y-32763390D01*
X170333333Y-32763390D02*
X170333333Y-32906247D01*
X170333333Y-32906247D02*
X170285714Y-33096723D01*
X170285714Y-33096723D02*
X170238095Y-33191961D01*
X170238095Y-33191961D02*
X170142857Y-33287200D01*
X170142857Y-33287200D02*
X170000000Y-33334819D01*
X170000000Y-33334819D02*
X169761905Y-33334819D01*
X170666667Y-32334819D02*
X171333333Y-32334819D01*
X171333333Y-32334819D02*
X170904762Y-33334819D01*
X166428095Y-33654819D02*
X166428095Y-32654819D01*
X166999523Y-33654819D02*
X166570952Y-33083390D01*
X166999523Y-32654819D02*
X166428095Y-33226247D01*
X215952381Y-73334819D02*
X215952381Y-72334819D01*
X215952381Y-72334819D02*
X216190476Y-72334819D01*
X216190476Y-72334819D02*
X216333333Y-72382438D01*
X216333333Y-72382438D02*
X216428571Y-72477676D01*
X216428571Y-72477676D02*
X216476190Y-72572914D01*
X216476190Y-72572914D02*
X216523809Y-72763390D01*
X216523809Y-72763390D02*
X216523809Y-72906247D01*
X216523809Y-72906247D02*
X216476190Y-73096723D01*
X216476190Y-73096723D02*
X216428571Y-73191961D01*
X216428571Y-73191961D02*
X216333333Y-73287200D01*
X216333333Y-73287200D02*
X216190476Y-73334819D01*
X216190476Y-73334819D02*
X215952381Y-73334819D01*
X216857143Y-72334819D02*
X217476190Y-72334819D01*
X217476190Y-72334819D02*
X217142857Y-72715771D01*
X217142857Y-72715771D02*
X217285714Y-72715771D01*
X217285714Y-72715771D02*
X217380952Y-72763390D01*
X217380952Y-72763390D02*
X217428571Y-72811009D01*
X217428571Y-72811009D02*
X217476190Y-72906247D01*
X217476190Y-72906247D02*
X217476190Y-73144342D01*
X217476190Y-73144342D02*
X217428571Y-73239580D01*
X217428571Y-73239580D02*
X217380952Y-73287200D01*
X217380952Y-73287200D02*
X217285714Y-73334819D01*
X217285714Y-73334819D02*
X217000000Y-73334819D01*
X217000000Y-73334819D02*
X216904762Y-73287200D01*
X216904762Y-73287200D02*
X216857143Y-73239580D01*
X218333333Y-72668152D02*
X218333333Y-73334819D01*
X218095238Y-72287200D02*
X217857143Y-73001485D01*
X217857143Y-73001485D02*
X218476190Y-73001485D01*
X213094762Y-73654819D02*
X213094762Y-72654819D01*
X213666190Y-73654819D02*
X213237619Y-73083390D01*
X213666190Y-72654819D02*
X213094762Y-73226247D01*
D11*
%TO.C,D27*%
X74396667Y-75000000D02*
X75046667Y-75000000D01*
X75046667Y-73880000D02*
X75046667Y-76120000D01*
X75046667Y-76120000D02*
X79286667Y-76120000D01*
X75646667Y-73880000D02*
X75646667Y-76120000D01*
X75766667Y-73880000D02*
X75766667Y-76120000D01*
X75886667Y-73880000D02*
X75886667Y-76120000D01*
X79286667Y-73880000D02*
X75046667Y-73880000D01*
X79286667Y-76120000D02*
X79286667Y-73880000D01*
X79936667Y-75000000D02*
X79286667Y-75000000D01*
%TO.C,D32*%
X174396667Y-75000000D02*
X175046667Y-75000000D01*
X175046667Y-73880000D02*
X175046667Y-76120000D01*
X175046667Y-76120000D02*
X179286667Y-76120000D01*
X175646667Y-73880000D02*
X175646667Y-76120000D01*
X175766667Y-73880000D02*
X175766667Y-76120000D01*
X175886667Y-73880000D02*
X175886667Y-76120000D01*
X179286667Y-73880000D02*
X175046667Y-73880000D01*
X179286667Y-76120000D02*
X179286667Y-73880000D01*
X179936667Y-75000000D02*
X179286667Y-75000000D01*
D10*
%TO.C,SW6*%
X143500000Y-38500000D02*
X143500000Y-37500000D01*
X143500000Y-51500000D02*
X143500000Y-50500000D01*
X143500000Y-51500000D02*
X144500000Y-51500000D01*
X144500000Y-37500000D02*
X143500000Y-37500000D01*
X156500000Y-51500000D02*
X157500000Y-51500000D01*
X157500000Y-37500000D02*
X156500000Y-37500000D01*
X157500000Y-37500000D02*
X157500000Y-38500000D01*
X157500000Y-50500000D02*
X157500000Y-51500000D01*
D11*
%TO.C,D10*%
X227730000Y-35000000D02*
X228380000Y-35000000D01*
X228380000Y-33880000D02*
X228380000Y-36120000D01*
X228380000Y-36120000D02*
X232620000Y-36120000D01*
X228980000Y-33880000D02*
X228980000Y-36120000D01*
X229100000Y-33880000D02*
X229100000Y-36120000D01*
X229220000Y-33880000D02*
X229220000Y-36120000D01*
X232620000Y-33880000D02*
X228380000Y-33880000D01*
X232620000Y-36120000D02*
X232620000Y-33880000D01*
X233270000Y-35000000D02*
X232620000Y-35000000D01*
%TO.C,D26*%
X54396667Y-75000000D02*
X55046667Y-75000000D01*
X55046667Y-73880000D02*
X55046667Y-76120000D01*
X55046667Y-76120000D02*
X59286667Y-76120000D01*
X55646667Y-73880000D02*
X55646667Y-76120000D01*
X55766667Y-73880000D02*
X55766667Y-76120000D01*
X55886667Y-73880000D02*
X55886667Y-76120000D01*
X59286667Y-73880000D02*
X55046667Y-73880000D01*
X59286667Y-76120000D02*
X59286667Y-73880000D01*
X59936667Y-75000000D02*
X59286667Y-75000000D01*
D10*
%TO.C,SW29*%
X110166667Y-78500000D02*
X110166667Y-77500000D01*
X110166667Y-91500000D02*
X110166667Y-90500000D01*
X110166667Y-91500000D02*
X111166667Y-91500000D01*
X111166667Y-77500000D02*
X110166667Y-77500000D01*
X123166667Y-91500000D02*
X124166667Y-91500000D01*
X124166667Y-77500000D02*
X123166667Y-77500000D01*
X124166667Y-77500000D02*
X124166667Y-78500000D01*
X124166667Y-90500000D02*
X124166667Y-91500000D01*
%TO.C,SW35*%
X230166667Y-78500000D02*
X230166667Y-77500000D01*
X230166667Y-91500000D02*
X230166667Y-90500000D01*
X230166667Y-91500000D02*
X231166667Y-91500000D01*
X231166667Y-77500000D02*
X230166667Y-77500000D01*
X243166667Y-91500000D02*
X244166667Y-91500000D01*
X244166667Y-77500000D02*
X243166667Y-77500000D01*
X244166667Y-77500000D02*
X244166667Y-78500000D01*
X244166667Y-90500000D02*
X244166667Y-91500000D01*
D11*
%TO.C,D22*%
X221063333Y-55000000D02*
X221713333Y-55000000D01*
X221713333Y-53880000D02*
X221713333Y-56120000D01*
X221713333Y-56120000D02*
X225953333Y-56120000D01*
X222313333Y-53880000D02*
X222313333Y-56120000D01*
X222433333Y-53880000D02*
X222433333Y-56120000D01*
X222553333Y-53880000D02*
X222553333Y-56120000D01*
X225953333Y-53880000D02*
X221713333Y-53880000D01*
X225953333Y-56120000D02*
X225953333Y-53880000D01*
X226603333Y-55000000D02*
X225953333Y-55000000D01*
D10*
%TO.C,SW4*%
X103500000Y-38500000D02*
X103500000Y-37500000D01*
X103500000Y-51500000D02*
X103500000Y-50500000D01*
X103500000Y-51500000D02*
X104500000Y-51500000D01*
X104500000Y-37500000D02*
X103500000Y-37500000D01*
X116500000Y-51500000D02*
X117500000Y-51500000D01*
X117500000Y-37500000D02*
X116500000Y-37500000D01*
X117500000Y-37500000D02*
X117500000Y-38500000D01*
X117500000Y-50500000D02*
X117500000Y-51500000D01*
%TO.C,SW13*%
X36833333Y-58500000D02*
X36833333Y-57500000D01*
X36833333Y-71500000D02*
X36833333Y-70500000D01*
X36833333Y-71500000D02*
X37833333Y-71500000D01*
X37833333Y-57500000D02*
X36833333Y-57500000D01*
X49833333Y-71500000D02*
X50833333Y-71500000D01*
X50833333Y-57500000D02*
X49833333Y-57500000D01*
X50833333Y-57500000D02*
X50833333Y-58500000D01*
X50833333Y-70500000D02*
X50833333Y-71500000D01*
%TO.C,SW1*%
X43500000Y-38500000D02*
X43500000Y-37500000D01*
X43500000Y-51500000D02*
X43500000Y-50500000D01*
X43500000Y-51500000D02*
X44500000Y-51500000D01*
X44500000Y-37500000D02*
X43500000Y-37500000D01*
X56500000Y-51500000D02*
X57500000Y-51500000D01*
X57500000Y-37500000D02*
X56500000Y-37500000D01*
X57500000Y-37500000D02*
X57500000Y-38500000D01*
X57500000Y-50500000D02*
X57500000Y-51500000D01*
%TO.C,SW20*%
X176833333Y-58500000D02*
X176833333Y-57500000D01*
X176833333Y-71500000D02*
X176833333Y-70500000D01*
X176833333Y-71500000D02*
X177833333Y-71500000D01*
X177833333Y-57500000D02*
X176833333Y-57500000D01*
X189833333Y-71500000D02*
X190833333Y-71500000D01*
X190833333Y-57500000D02*
X189833333Y-57500000D01*
X190833333Y-57500000D02*
X190833333Y-58500000D01*
X190833333Y-70500000D02*
X190833333Y-71500000D01*
D11*
%TO.C,D13*%
X41063333Y-55000000D02*
X41713333Y-55000000D01*
X41713333Y-53880000D02*
X41713333Y-56120000D01*
X41713333Y-56120000D02*
X45953333Y-56120000D01*
X42313333Y-53880000D02*
X42313333Y-56120000D01*
X42433333Y-53880000D02*
X42433333Y-56120000D01*
X42553333Y-53880000D02*
X42553333Y-56120000D01*
X45953333Y-53880000D02*
X41713333Y-53880000D01*
X45953333Y-56120000D02*
X45953333Y-53880000D01*
X46603333Y-55000000D02*
X45953333Y-55000000D01*
%TO.C,D17*%
X121063333Y-55000000D02*
X121713333Y-55000000D01*
X121713333Y-53880000D02*
X121713333Y-56120000D01*
X121713333Y-56120000D02*
X125953333Y-56120000D01*
X122313333Y-53880000D02*
X122313333Y-56120000D01*
X122433333Y-53880000D02*
X122433333Y-56120000D01*
X122553333Y-53880000D02*
X122553333Y-56120000D01*
X125953333Y-53880000D02*
X121713333Y-53880000D01*
X125953333Y-56120000D02*
X125953333Y-53880000D01*
X126603333Y-55000000D02*
X125953333Y-55000000D01*
%TO.C,D15*%
X81063333Y-55000000D02*
X81713333Y-55000000D01*
X81713333Y-53880000D02*
X81713333Y-56120000D01*
X81713333Y-56120000D02*
X85953333Y-56120000D01*
X82313333Y-53880000D02*
X82313333Y-56120000D01*
X82433333Y-53880000D02*
X82433333Y-56120000D01*
X82553333Y-53880000D02*
X82553333Y-56120000D01*
X85953333Y-53880000D02*
X81713333Y-53880000D01*
X85953333Y-56120000D02*
X85953333Y-53880000D01*
X86603333Y-55000000D02*
X85953333Y-55000000D01*
%TO.C,D3*%
X87730000Y-35000000D02*
X88380000Y-35000000D01*
X88380000Y-33880000D02*
X88380000Y-36120000D01*
X88380000Y-36120000D02*
X92620000Y-36120000D01*
X88980000Y-33880000D02*
X88980000Y-36120000D01*
X89100000Y-33880000D02*
X89100000Y-36120000D01*
X89220000Y-33880000D02*
X89220000Y-36120000D01*
X92620000Y-33880000D02*
X88380000Y-33880000D01*
X92620000Y-36120000D02*
X92620000Y-33880000D01*
X93270000Y-35000000D02*
X92620000Y-35000000D01*
D10*
%TO.C,SW5*%
X123500000Y-38500000D02*
X123500000Y-37500000D01*
X123500000Y-51500000D02*
X123500000Y-50500000D01*
X123500000Y-51500000D02*
X124500000Y-51500000D01*
X124500000Y-37500000D02*
X123500000Y-37500000D01*
X136500000Y-51500000D02*
X137500000Y-51500000D01*
X137500000Y-37500000D02*
X136500000Y-37500000D01*
X137500000Y-37500000D02*
X137500000Y-38500000D01*
X137500000Y-50500000D02*
X137500000Y-51500000D01*
%TO.C,SW36*%
X250166667Y-78500000D02*
X250166667Y-77500000D01*
X250166667Y-91500000D02*
X250166667Y-90500000D01*
X250166667Y-91500000D02*
X251166667Y-91500000D01*
X251166667Y-77500000D02*
X250166667Y-77500000D01*
X263166667Y-91500000D02*
X264166667Y-91500000D01*
X264166667Y-77500000D02*
X263166667Y-77500000D01*
X264166667Y-77500000D02*
X264166667Y-78500000D01*
X264166667Y-90500000D02*
X264166667Y-91500000D01*
D11*
%TO.C,D21*%
X201063333Y-55000000D02*
X201713333Y-55000000D01*
X201713333Y-53880000D02*
X201713333Y-56120000D01*
X201713333Y-56120000D02*
X205953333Y-56120000D01*
X202313333Y-53880000D02*
X202313333Y-56120000D01*
X202433333Y-53880000D02*
X202433333Y-56120000D01*
X202553333Y-53880000D02*
X202553333Y-56120000D01*
X205953333Y-53880000D02*
X201713333Y-53880000D01*
X205953333Y-56120000D02*
X205953333Y-53880000D01*
X206603333Y-55000000D02*
X205953333Y-55000000D01*
D10*
%TO.C,SW12*%
X263500000Y-38500000D02*
X263500000Y-37500000D01*
X263500000Y-51500000D02*
X263500000Y-50500000D01*
X263500000Y-51500000D02*
X264500000Y-51500000D01*
X264500000Y-37500000D02*
X263500000Y-37500000D01*
X276500000Y-51500000D02*
X277500000Y-51500000D01*
X277500000Y-37500000D02*
X276500000Y-37500000D01*
X277500000Y-37500000D02*
X277500000Y-38500000D01*
X277500000Y-50500000D02*
X277500000Y-51500000D01*
%TO.C,SW3*%
X83500000Y-38500000D02*
X83500000Y-37500000D01*
X83500000Y-51500000D02*
X83500000Y-50500000D01*
X83500000Y-51500000D02*
X84500000Y-51500000D01*
X84500000Y-37500000D02*
X83500000Y-37500000D01*
X96500000Y-51500000D02*
X97500000Y-51500000D01*
X97500000Y-37500000D02*
X96500000Y-37500000D01*
X97500000Y-37500000D02*
X97500000Y-38500000D01*
X97500000Y-50500000D02*
X97500000Y-51500000D01*
%TO.C,SW23*%
X236833333Y-58500000D02*
X236833333Y-57500000D01*
X236833333Y-71500000D02*
X236833333Y-70500000D01*
X236833333Y-71500000D02*
X237833333Y-71500000D01*
X237833333Y-57500000D02*
X236833333Y-57500000D01*
X249833333Y-71500000D02*
X250833333Y-71500000D01*
X250833333Y-57500000D02*
X249833333Y-57500000D01*
X250833333Y-57500000D02*
X250833333Y-58500000D01*
X250833333Y-70500000D02*
X250833333Y-71500000D01*
D11*
%TO.C,D9*%
X207730000Y-35000000D02*
X208380000Y-35000000D01*
X208380000Y-33880000D02*
X208380000Y-36120000D01*
X208380000Y-36120000D02*
X212620000Y-36120000D01*
X208980000Y-33880000D02*
X208980000Y-36120000D01*
X209100000Y-33880000D02*
X209100000Y-36120000D01*
X209220000Y-33880000D02*
X209220000Y-36120000D01*
X212620000Y-33880000D02*
X208380000Y-33880000D01*
X212620000Y-36120000D02*
X212620000Y-33880000D01*
X213270000Y-35000000D02*
X212620000Y-35000000D01*
D10*
%TO.C,SW17*%
X116833333Y-58500000D02*
X116833333Y-57500000D01*
X116833333Y-71500000D02*
X116833333Y-70500000D01*
X116833333Y-71500000D02*
X117833333Y-71500000D01*
X117833333Y-57500000D02*
X116833333Y-57500000D01*
X129833333Y-71500000D02*
X130833333Y-71500000D01*
X130833333Y-57500000D02*
X129833333Y-57500000D01*
X130833333Y-57500000D02*
X130833333Y-58500000D01*
X130833333Y-70500000D02*
X130833333Y-71500000D01*
D11*
%TO.C,D12*%
X267730000Y-35000000D02*
X268380000Y-35000000D01*
X268380000Y-33880000D02*
X268380000Y-36120000D01*
X268380000Y-36120000D02*
X272620000Y-36120000D01*
X268980000Y-33880000D02*
X268980000Y-36120000D01*
X269100000Y-33880000D02*
X269100000Y-36120000D01*
X269220000Y-33880000D02*
X269220000Y-36120000D01*
X272620000Y-33880000D02*
X268380000Y-33880000D01*
X272620000Y-36120000D02*
X272620000Y-33880000D01*
X273270000Y-35000000D02*
X272620000Y-35000000D01*
%TO.C,D28*%
X94396667Y-75000000D02*
X95046667Y-75000000D01*
X95046667Y-73880000D02*
X95046667Y-76120000D01*
X95046667Y-76120000D02*
X99286667Y-76120000D01*
X95646667Y-73880000D02*
X95646667Y-76120000D01*
X95766667Y-73880000D02*
X95766667Y-76120000D01*
X95886667Y-73880000D02*
X95886667Y-76120000D01*
X99286667Y-73880000D02*
X95046667Y-73880000D01*
X99286667Y-76120000D02*
X99286667Y-73880000D01*
X99936667Y-75000000D02*
X99286667Y-75000000D01*
D10*
%TO.C,SW33*%
X190166667Y-78500000D02*
X190166667Y-77500000D01*
X190166667Y-91500000D02*
X190166667Y-90500000D01*
X190166667Y-91500000D02*
X191166667Y-91500000D01*
X191166667Y-77500000D02*
X190166667Y-77500000D01*
X203166667Y-91500000D02*
X204166667Y-91500000D01*
X204166667Y-77500000D02*
X203166667Y-77500000D01*
X204166667Y-77500000D02*
X204166667Y-78500000D01*
X204166667Y-90500000D02*
X204166667Y-91500000D01*
D11*
%TO.C,D1*%
X47730000Y-35000000D02*
X48380000Y-35000000D01*
X48380000Y-33880000D02*
X48380000Y-36120000D01*
X48380000Y-36120000D02*
X52620000Y-36120000D01*
X48980000Y-33880000D02*
X48980000Y-36120000D01*
X49100000Y-33880000D02*
X49100000Y-36120000D01*
X49220000Y-33880000D02*
X49220000Y-36120000D01*
X52620000Y-33880000D02*
X48380000Y-33880000D01*
X52620000Y-36120000D02*
X52620000Y-33880000D01*
X53270000Y-35000000D02*
X52620000Y-35000000D01*
D10*
%TO.C,SW18*%
X136833333Y-58500000D02*
X136833333Y-57500000D01*
X136833333Y-71500000D02*
X136833333Y-70500000D01*
X136833333Y-71500000D02*
X137833333Y-71500000D01*
X137833333Y-57500000D02*
X136833333Y-57500000D01*
X149833333Y-71500000D02*
X150833333Y-71500000D01*
X150833333Y-57500000D02*
X149833333Y-57500000D01*
X150833333Y-57500000D02*
X150833333Y-58500000D01*
X150833333Y-70500000D02*
X150833333Y-71500000D01*
D11*
%TO.C,D31*%
X154396667Y-75000000D02*
X155046667Y-75000000D01*
X155046667Y-73880000D02*
X155046667Y-76120000D01*
X155046667Y-76120000D02*
X159286667Y-76120000D01*
X155646667Y-73880000D02*
X155646667Y-76120000D01*
X155766667Y-73880000D02*
X155766667Y-76120000D01*
X155886667Y-73880000D02*
X155886667Y-76120000D01*
X159286667Y-73880000D02*
X155046667Y-73880000D01*
X159286667Y-76120000D02*
X159286667Y-73880000D01*
X159936667Y-75000000D02*
X159286667Y-75000000D01*
%TO.C,D33*%
X194396667Y-75000000D02*
X195046667Y-75000000D01*
X195046667Y-73880000D02*
X195046667Y-76120000D01*
X195046667Y-76120000D02*
X199286667Y-76120000D01*
X195646667Y-73880000D02*
X195646667Y-76120000D01*
X195766667Y-73880000D02*
X195766667Y-76120000D01*
X195886667Y-73880000D02*
X195886667Y-76120000D01*
X199286667Y-73880000D02*
X195046667Y-73880000D01*
X199286667Y-76120000D02*
X199286667Y-73880000D01*
X199936667Y-75000000D02*
X199286667Y-75000000D01*
%TO.C,D16*%
X101063333Y-55000000D02*
X101713333Y-55000000D01*
X101713333Y-53880000D02*
X101713333Y-56120000D01*
X101713333Y-56120000D02*
X105953333Y-56120000D01*
X102313333Y-53880000D02*
X102313333Y-56120000D01*
X102433333Y-53880000D02*
X102433333Y-56120000D01*
X102553333Y-53880000D02*
X102553333Y-56120000D01*
X105953333Y-53880000D02*
X101713333Y-53880000D01*
X105953333Y-56120000D02*
X105953333Y-53880000D01*
X106603333Y-55000000D02*
X105953333Y-55000000D01*
%TO.C,D5*%
X127730000Y-35000000D02*
X128380000Y-35000000D01*
X128380000Y-33880000D02*
X128380000Y-36120000D01*
X128380000Y-36120000D02*
X132620000Y-36120000D01*
X128980000Y-33880000D02*
X128980000Y-36120000D01*
X129100000Y-33880000D02*
X129100000Y-36120000D01*
X129220000Y-33880000D02*
X129220000Y-36120000D01*
X132620000Y-33880000D02*
X128380000Y-33880000D01*
X132620000Y-36120000D02*
X132620000Y-33880000D01*
X133270000Y-35000000D02*
X132620000Y-35000000D01*
D10*
%TO.C,SW34*%
X210166667Y-78500000D02*
X210166667Y-77500000D01*
X210166667Y-91500000D02*
X210166667Y-90500000D01*
X210166667Y-91500000D02*
X211166667Y-91500000D01*
X211166667Y-77500000D02*
X210166667Y-77500000D01*
X223166667Y-91500000D02*
X224166667Y-91500000D01*
X224166667Y-77500000D02*
X223166667Y-77500000D01*
X224166667Y-77500000D02*
X224166667Y-78500000D01*
X224166667Y-90500000D02*
X224166667Y-91500000D01*
%TO.C,SW26*%
X50166667Y-78500000D02*
X50166667Y-77500000D01*
X50166667Y-91500000D02*
X50166667Y-90500000D01*
X50166667Y-91500000D02*
X51166667Y-91500000D01*
X51166667Y-77500000D02*
X50166667Y-77500000D01*
X63166667Y-91500000D02*
X64166667Y-91500000D01*
X64166667Y-77500000D02*
X63166667Y-77500000D01*
X64166667Y-77500000D02*
X64166667Y-78500000D01*
X64166667Y-90500000D02*
X64166667Y-91500000D01*
D11*
%TO.C,D20*%
X181063333Y-55000000D02*
X181713333Y-55000000D01*
X181713333Y-53880000D02*
X181713333Y-56120000D01*
X181713333Y-56120000D02*
X185953333Y-56120000D01*
X182313333Y-53880000D02*
X182313333Y-56120000D01*
X182433333Y-53880000D02*
X182433333Y-56120000D01*
X182553333Y-53880000D02*
X182553333Y-56120000D01*
X185953333Y-53880000D02*
X181713333Y-53880000D01*
X185953333Y-56120000D02*
X185953333Y-53880000D01*
X186603333Y-55000000D02*
X185953333Y-55000000D01*
D10*
%TO.C,SW24*%
X256833333Y-58500000D02*
X256833333Y-57500000D01*
X256833333Y-71500000D02*
X256833333Y-70500000D01*
X256833333Y-71500000D02*
X257833333Y-71500000D01*
X257833333Y-57500000D02*
X256833333Y-57500000D01*
X269833333Y-71500000D02*
X270833333Y-71500000D01*
X270833333Y-57500000D02*
X269833333Y-57500000D01*
X270833333Y-57500000D02*
X270833333Y-58500000D01*
X270833333Y-70500000D02*
X270833333Y-71500000D01*
%TO.C,SW21*%
X196833333Y-58500000D02*
X196833333Y-57500000D01*
X196833333Y-71500000D02*
X196833333Y-70500000D01*
X196833333Y-71500000D02*
X197833333Y-71500000D01*
X197833333Y-57500000D02*
X196833333Y-57500000D01*
X209833333Y-71500000D02*
X210833333Y-71500000D01*
X210833333Y-57500000D02*
X209833333Y-57500000D01*
X210833333Y-57500000D02*
X210833333Y-58500000D01*
X210833333Y-70500000D02*
X210833333Y-71500000D01*
%TO.C,SW11*%
X243500000Y-38500000D02*
X243500000Y-37500000D01*
X243500000Y-51500000D02*
X243500000Y-50500000D01*
X243500000Y-51500000D02*
X244500000Y-51500000D01*
X244500000Y-37500000D02*
X243500000Y-37500000D01*
X256500000Y-51500000D02*
X257500000Y-51500000D01*
X257500000Y-37500000D02*
X256500000Y-37500000D01*
X257500000Y-37500000D02*
X257500000Y-38500000D01*
X257500000Y-50500000D02*
X257500000Y-51500000D01*
D11*
%TO.C,D25*%
X34396667Y-75000000D02*
X35046667Y-75000000D01*
X35046667Y-73880000D02*
X35046667Y-76120000D01*
X35046667Y-76120000D02*
X39286667Y-76120000D01*
X35646667Y-73880000D02*
X35646667Y-76120000D01*
X35766667Y-73880000D02*
X35766667Y-76120000D01*
X35886667Y-73880000D02*
X35886667Y-76120000D01*
X39286667Y-73880000D02*
X35046667Y-73880000D01*
X39286667Y-76120000D02*
X39286667Y-73880000D01*
X39936667Y-75000000D02*
X39286667Y-75000000D01*
D10*
%TO.C,SW27*%
X70166667Y-78500000D02*
X70166667Y-77500000D01*
X70166667Y-91500000D02*
X70166667Y-90500000D01*
X70166667Y-91500000D02*
X71166667Y-91500000D01*
X71166667Y-77500000D02*
X70166667Y-77500000D01*
X83166667Y-91500000D02*
X84166667Y-91500000D01*
X84166667Y-77500000D02*
X83166667Y-77500000D01*
X84166667Y-77500000D02*
X84166667Y-78500000D01*
X84166667Y-90500000D02*
X84166667Y-91500000D01*
D11*
%TO.C,D8*%
X187730000Y-35000000D02*
X188380000Y-35000000D01*
X188380000Y-33880000D02*
X188380000Y-36120000D01*
X188380000Y-36120000D02*
X192620000Y-36120000D01*
X188980000Y-33880000D02*
X188980000Y-36120000D01*
X189100000Y-33880000D02*
X189100000Y-36120000D01*
X189220000Y-33880000D02*
X189220000Y-36120000D01*
X192620000Y-33880000D02*
X188380000Y-33880000D01*
X192620000Y-36120000D02*
X192620000Y-33880000D01*
X193270000Y-35000000D02*
X192620000Y-35000000D01*
%TO.C,D18*%
X141063333Y-55000000D02*
X141713333Y-55000000D01*
X141713333Y-53880000D02*
X141713333Y-56120000D01*
X141713333Y-56120000D02*
X145953333Y-56120000D01*
X142313333Y-53880000D02*
X142313333Y-56120000D01*
X142433333Y-53880000D02*
X142433333Y-56120000D01*
X142553333Y-53880000D02*
X142553333Y-56120000D01*
X145953333Y-53880000D02*
X141713333Y-53880000D01*
X145953333Y-56120000D02*
X145953333Y-53880000D01*
X146603333Y-55000000D02*
X145953333Y-55000000D01*
D10*
%TO.C,SW2*%
X63500000Y-38500000D02*
X63500000Y-37500000D01*
X63500000Y-51500000D02*
X63500000Y-50500000D01*
X63500000Y-51500000D02*
X64500000Y-51500000D01*
X64500000Y-37500000D02*
X63500000Y-37500000D01*
X76500000Y-51500000D02*
X77500000Y-51500000D01*
X77500000Y-37500000D02*
X76500000Y-37500000D01*
X77500000Y-37500000D02*
X77500000Y-38500000D01*
X77500000Y-50500000D02*
X77500000Y-51500000D01*
%TO.C,SW10*%
X223500000Y-38500000D02*
X223500000Y-37500000D01*
X223500000Y-51500000D02*
X223500000Y-50500000D01*
X223500000Y-51500000D02*
X224500000Y-51500000D01*
X224500000Y-37500000D02*
X223500000Y-37500000D01*
X236500000Y-51500000D02*
X237500000Y-51500000D01*
X237500000Y-37500000D02*
X236500000Y-37500000D01*
X237500000Y-37500000D02*
X237500000Y-38500000D01*
X237500000Y-50500000D02*
X237500000Y-51500000D01*
%TO.C,SW28*%
X90166667Y-78500000D02*
X90166667Y-77500000D01*
X90166667Y-91500000D02*
X90166667Y-90500000D01*
X90166667Y-91500000D02*
X91166667Y-91500000D01*
X91166667Y-77500000D02*
X90166667Y-77500000D01*
X103166667Y-91500000D02*
X104166667Y-91500000D01*
X104166667Y-77500000D02*
X103166667Y-77500000D01*
X104166667Y-77500000D02*
X104166667Y-78500000D01*
X104166667Y-90500000D02*
X104166667Y-91500000D01*
%TO.C,SW32*%
X170166667Y-78500000D02*
X170166667Y-77500000D01*
X170166667Y-91500000D02*
X170166667Y-90500000D01*
X170166667Y-91500000D02*
X171166667Y-91500000D01*
X171166667Y-77500000D02*
X170166667Y-77500000D01*
X183166667Y-91500000D02*
X184166667Y-91500000D01*
X184166667Y-77500000D02*
X183166667Y-77500000D01*
X184166667Y-77500000D02*
X184166667Y-78500000D01*
X184166667Y-90500000D02*
X184166667Y-91500000D01*
%TO.C,SW19*%
X156833333Y-58500000D02*
X156833333Y-57500000D01*
X156833333Y-71500000D02*
X156833333Y-70500000D01*
X156833333Y-71500000D02*
X157833333Y-71500000D01*
X157833333Y-57500000D02*
X156833333Y-57500000D01*
X169833333Y-71500000D02*
X170833333Y-71500000D01*
X170833333Y-57500000D02*
X169833333Y-57500000D01*
X170833333Y-57500000D02*
X170833333Y-58500000D01*
X170833333Y-70500000D02*
X170833333Y-71500000D01*
D11*
%TO.C,D11*%
X247730000Y-35000000D02*
X248380000Y-35000000D01*
X248380000Y-33880000D02*
X248380000Y-36120000D01*
X248380000Y-36120000D02*
X252620000Y-36120000D01*
X248980000Y-33880000D02*
X248980000Y-36120000D01*
X249100000Y-33880000D02*
X249100000Y-36120000D01*
X249220000Y-33880000D02*
X249220000Y-36120000D01*
X252620000Y-33880000D02*
X248380000Y-33880000D01*
X252620000Y-36120000D02*
X252620000Y-33880000D01*
X253270000Y-35000000D02*
X252620000Y-35000000D01*
%TO.C,D4*%
X107730000Y-35000000D02*
X108380000Y-35000000D01*
X108380000Y-33880000D02*
X108380000Y-36120000D01*
X108380000Y-36120000D02*
X112620000Y-36120000D01*
X108980000Y-33880000D02*
X108980000Y-36120000D01*
X109100000Y-33880000D02*
X109100000Y-36120000D01*
X109220000Y-33880000D02*
X109220000Y-36120000D01*
X112620000Y-33880000D02*
X108380000Y-33880000D01*
X112620000Y-36120000D02*
X112620000Y-33880000D01*
X113270000Y-35000000D02*
X112620000Y-35000000D01*
%TO.C,D24*%
X261063333Y-55000000D02*
X261713333Y-55000000D01*
X261713333Y-53880000D02*
X261713333Y-56120000D01*
X261713333Y-56120000D02*
X265953333Y-56120000D01*
X262313333Y-53880000D02*
X262313333Y-56120000D01*
X262433333Y-53880000D02*
X262433333Y-56120000D01*
X262553333Y-53880000D02*
X262553333Y-56120000D01*
X265953333Y-53880000D02*
X261713333Y-53880000D01*
X265953333Y-56120000D02*
X265953333Y-53880000D01*
X266603333Y-55000000D02*
X265953333Y-55000000D01*
D10*
%TO.C,SW31*%
X150166667Y-78500000D02*
X150166667Y-77500000D01*
X150166667Y-91500000D02*
X150166667Y-90500000D01*
X150166667Y-91500000D02*
X151166667Y-91500000D01*
X151166667Y-77500000D02*
X150166667Y-77500000D01*
X163166667Y-91500000D02*
X164166667Y-91500000D01*
X164166667Y-77500000D02*
X163166667Y-77500000D01*
X164166667Y-77500000D02*
X164166667Y-78500000D01*
X164166667Y-90500000D02*
X164166667Y-91500000D01*
%TO.C,SW30*%
X130166667Y-78500000D02*
X130166667Y-77500000D01*
X130166667Y-91500000D02*
X130166667Y-90500000D01*
X130166667Y-91500000D02*
X131166667Y-91500000D01*
X131166667Y-77500000D02*
X130166667Y-77500000D01*
X143166667Y-91500000D02*
X144166667Y-91500000D01*
X144166667Y-77500000D02*
X143166667Y-77500000D01*
X144166667Y-77500000D02*
X144166667Y-78500000D01*
X144166667Y-90500000D02*
X144166667Y-91500000D01*
D11*
%TO.C,D23*%
X241063333Y-55000000D02*
X241713333Y-55000000D01*
X241713333Y-53880000D02*
X241713333Y-56120000D01*
X241713333Y-56120000D02*
X245953333Y-56120000D01*
X242313333Y-53880000D02*
X242313333Y-56120000D01*
X242433333Y-53880000D02*
X242433333Y-56120000D01*
X242553333Y-53880000D02*
X242553333Y-56120000D01*
X245953333Y-53880000D02*
X241713333Y-53880000D01*
X245953333Y-56120000D02*
X245953333Y-53880000D01*
X246603333Y-55000000D02*
X245953333Y-55000000D01*
%TO.C,D36*%
X254396667Y-75000000D02*
X255046667Y-75000000D01*
X255046667Y-73880000D02*
X255046667Y-76120000D01*
X255046667Y-76120000D02*
X259286667Y-76120000D01*
X255646667Y-73880000D02*
X255646667Y-76120000D01*
X255766667Y-73880000D02*
X255766667Y-76120000D01*
X255886667Y-73880000D02*
X255886667Y-76120000D01*
X259286667Y-73880000D02*
X255046667Y-73880000D01*
X259286667Y-76120000D02*
X259286667Y-73880000D01*
X259936667Y-75000000D02*
X259286667Y-75000000D01*
D10*
%TO.C,SW22*%
X216833333Y-58500000D02*
X216833333Y-57500000D01*
X216833333Y-71500000D02*
X216833333Y-70500000D01*
X216833333Y-71500000D02*
X217833333Y-71500000D01*
X217833333Y-57500000D02*
X216833333Y-57500000D01*
X229833333Y-71500000D02*
X230833333Y-71500000D01*
X230833333Y-57500000D02*
X229833333Y-57500000D01*
X230833333Y-57500000D02*
X230833333Y-58500000D01*
X230833333Y-70500000D02*
X230833333Y-71500000D01*
%TO.C,SW8*%
X183500000Y-38500000D02*
X183500000Y-37500000D01*
X183500000Y-51500000D02*
X183500000Y-50500000D01*
X183500000Y-51500000D02*
X184500000Y-51500000D01*
X184500000Y-37500000D02*
X183500000Y-37500000D01*
X196500000Y-51500000D02*
X197500000Y-51500000D01*
X197500000Y-37500000D02*
X196500000Y-37500000D01*
X197500000Y-37500000D02*
X197500000Y-38500000D01*
X197500000Y-50500000D02*
X197500000Y-51500000D01*
%TO.C,SW7*%
X163500000Y-38500000D02*
X163500000Y-37500000D01*
X163500000Y-51500000D02*
X163500000Y-50500000D01*
X163500000Y-51500000D02*
X164500000Y-51500000D01*
X164500000Y-37500000D02*
X163500000Y-37500000D01*
X176500000Y-51500000D02*
X177500000Y-51500000D01*
X177500000Y-37500000D02*
X176500000Y-37500000D01*
X177500000Y-37500000D02*
X177500000Y-38500000D01*
X177500000Y-50500000D02*
X177500000Y-51500000D01*
D11*
%TO.C,D19*%
X161063333Y-55000000D02*
X161713333Y-55000000D01*
X161713333Y-53880000D02*
X161713333Y-56120000D01*
X161713333Y-56120000D02*
X165953333Y-56120000D01*
X162313333Y-53880000D02*
X162313333Y-56120000D01*
X162433333Y-53880000D02*
X162433333Y-56120000D01*
X162553333Y-53880000D02*
X162553333Y-56120000D01*
X165953333Y-53880000D02*
X161713333Y-53880000D01*
X165953333Y-56120000D02*
X165953333Y-53880000D01*
X166603333Y-55000000D02*
X165953333Y-55000000D01*
D10*
%TO.C,SW16*%
X96833333Y-58500000D02*
X96833333Y-57500000D01*
X96833333Y-71500000D02*
X96833333Y-70500000D01*
X96833333Y-71500000D02*
X97833333Y-71500000D01*
X97833333Y-57500000D02*
X96833333Y-57500000D01*
X109833333Y-71500000D02*
X110833333Y-71500000D01*
X110833333Y-57500000D02*
X109833333Y-57500000D01*
X110833333Y-57500000D02*
X110833333Y-58500000D01*
X110833333Y-70500000D02*
X110833333Y-71500000D01*
%TO.C,SW25*%
X30166667Y-78500000D02*
X30166667Y-77500000D01*
X30166667Y-91500000D02*
X30166667Y-90500000D01*
X30166667Y-91500000D02*
X31166667Y-91500000D01*
X31166667Y-77500000D02*
X30166667Y-77500000D01*
X43166667Y-91500000D02*
X44166667Y-91500000D01*
X44166667Y-77500000D02*
X43166667Y-77500000D01*
X44166667Y-77500000D02*
X44166667Y-78500000D01*
X44166667Y-90500000D02*
X44166667Y-91500000D01*
D11*
%TO.C,D29*%
X114396667Y-75000000D02*
X115046667Y-75000000D01*
X115046667Y-73880000D02*
X115046667Y-76120000D01*
X115046667Y-76120000D02*
X119286667Y-76120000D01*
X115646667Y-73880000D02*
X115646667Y-76120000D01*
X115766667Y-73880000D02*
X115766667Y-76120000D01*
X115886667Y-73880000D02*
X115886667Y-76120000D01*
X119286667Y-73880000D02*
X115046667Y-73880000D01*
X119286667Y-76120000D02*
X119286667Y-73880000D01*
X119936667Y-75000000D02*
X119286667Y-75000000D01*
%TO.C,D30*%
X134396667Y-75000000D02*
X135046667Y-75000000D01*
X135046667Y-73880000D02*
X135046667Y-76120000D01*
X135046667Y-76120000D02*
X139286667Y-76120000D01*
X135646667Y-73880000D02*
X135646667Y-76120000D01*
X135766667Y-73880000D02*
X135766667Y-76120000D01*
X135886667Y-73880000D02*
X135886667Y-76120000D01*
X139286667Y-73880000D02*
X135046667Y-73880000D01*
X139286667Y-76120000D02*
X139286667Y-73880000D01*
X139936667Y-75000000D02*
X139286667Y-75000000D01*
%TO.C,D6*%
X147730000Y-35000000D02*
X148380000Y-35000000D01*
X148380000Y-33880000D02*
X148380000Y-36120000D01*
X148380000Y-36120000D02*
X152620000Y-36120000D01*
X148980000Y-33880000D02*
X148980000Y-36120000D01*
X149100000Y-33880000D02*
X149100000Y-36120000D01*
X149220000Y-33880000D02*
X149220000Y-36120000D01*
X152620000Y-33880000D02*
X148380000Y-33880000D01*
X152620000Y-36120000D02*
X152620000Y-33880000D01*
X153270000Y-35000000D02*
X152620000Y-35000000D01*
%TO.C,D14*%
X61063333Y-55000000D02*
X61713333Y-55000000D01*
X61713333Y-53880000D02*
X61713333Y-56120000D01*
X61713333Y-56120000D02*
X65953333Y-56120000D01*
X62313333Y-53880000D02*
X62313333Y-56120000D01*
X62433333Y-53880000D02*
X62433333Y-56120000D01*
X62553333Y-53880000D02*
X62553333Y-56120000D01*
X65953333Y-53880000D02*
X61713333Y-53880000D01*
X65953333Y-56120000D02*
X65953333Y-53880000D01*
X66603333Y-55000000D02*
X65953333Y-55000000D01*
%TO.C,D2*%
X67730000Y-35000000D02*
X68380000Y-35000000D01*
X68380000Y-33880000D02*
X68380000Y-36120000D01*
X68380000Y-36120000D02*
X72620000Y-36120000D01*
X68980000Y-33880000D02*
X68980000Y-36120000D01*
X69100000Y-33880000D02*
X69100000Y-36120000D01*
X69220000Y-33880000D02*
X69220000Y-36120000D01*
X72620000Y-33880000D02*
X68380000Y-33880000D01*
X72620000Y-36120000D02*
X72620000Y-33880000D01*
X73270000Y-35000000D02*
X72620000Y-35000000D01*
D10*
%TO.C,SW9*%
X203500000Y-38500000D02*
X203500000Y-37500000D01*
X203500000Y-51500000D02*
X203500000Y-50500000D01*
X203500000Y-51500000D02*
X204500000Y-51500000D01*
X204500000Y-37500000D02*
X203500000Y-37500000D01*
X216500000Y-51500000D02*
X217500000Y-51500000D01*
X217500000Y-37500000D02*
X216500000Y-37500000D01*
X217500000Y-37500000D02*
X217500000Y-38500000D01*
X217500000Y-50500000D02*
X217500000Y-51500000D01*
D11*
%TO.C,D35*%
X234396667Y-75000000D02*
X235046667Y-75000000D01*
X235046667Y-73880000D02*
X235046667Y-76120000D01*
X235046667Y-76120000D02*
X239286667Y-76120000D01*
X235646667Y-73880000D02*
X235646667Y-76120000D01*
X235766667Y-73880000D02*
X235766667Y-76120000D01*
X235886667Y-73880000D02*
X235886667Y-76120000D01*
X239286667Y-73880000D02*
X235046667Y-73880000D01*
X239286667Y-76120000D02*
X239286667Y-73880000D01*
X239936667Y-75000000D02*
X239286667Y-75000000D01*
%TO.C,D7*%
X167730000Y-35000000D02*
X168380000Y-35000000D01*
X168380000Y-33880000D02*
X168380000Y-36120000D01*
X168380000Y-36120000D02*
X172620000Y-36120000D01*
X168980000Y-33880000D02*
X168980000Y-36120000D01*
X169100000Y-33880000D02*
X169100000Y-36120000D01*
X169220000Y-33880000D02*
X169220000Y-36120000D01*
X172620000Y-33880000D02*
X168380000Y-33880000D01*
X172620000Y-36120000D02*
X172620000Y-33880000D01*
X173270000Y-35000000D02*
X172620000Y-35000000D01*
%TO.C,D34*%
X214396667Y-75000000D02*
X215046667Y-75000000D01*
X215046667Y-73880000D02*
X215046667Y-76120000D01*
X215046667Y-76120000D02*
X219286667Y-76120000D01*
X215646667Y-73880000D02*
X215646667Y-76120000D01*
X215766667Y-73880000D02*
X215766667Y-76120000D01*
X215886667Y-73880000D02*
X215886667Y-76120000D01*
X219286667Y-73880000D02*
X215046667Y-73880000D01*
X219286667Y-76120000D02*
X219286667Y-73880000D01*
X219936667Y-75000000D02*
X219286667Y-75000000D01*
D10*
%TO.C,SW14*%
X56833333Y-58500000D02*
X56833333Y-57500000D01*
X56833333Y-71500000D02*
X56833333Y-70500000D01*
X56833333Y-71500000D02*
X57833333Y-71500000D01*
X57833333Y-57500000D02*
X56833333Y-57500000D01*
X69833333Y-71500000D02*
X70833333Y-71500000D01*
X70833333Y-57500000D02*
X69833333Y-57500000D01*
X70833333Y-57500000D02*
X70833333Y-58500000D01*
X70833333Y-70500000D02*
X70833333Y-71500000D01*
%TO.C,SW15*%
X76833333Y-58500000D02*
X76833333Y-57500000D01*
X76833333Y-71500000D02*
X76833333Y-70500000D01*
X76833333Y-71500000D02*
X77833333Y-71500000D01*
X77833333Y-57500000D02*
X76833333Y-57500000D01*
X89833333Y-71500000D02*
X90833333Y-71500000D01*
X90833333Y-57500000D02*
X89833333Y-57500000D01*
X90833333Y-57500000D02*
X90833333Y-58500000D01*
X90833333Y-70500000D02*
X90833333Y-71500000D01*
%TD*%
M02*
