%TF.GenerationSoftware,KiCad,Pcbnew,8.0.6*%
%TF.CreationDate,2026-02-10T22:10:33+01:00*%
%TF.ProjectId,keyboard,6b657962-6f61-4726-942e-6b696361645f,rev?*%
%TF.SameCoordinates,Original*%
%TF.FileFunction,Soldermask,Top*%
%TF.FilePolarity,Negative*%
%FSLAX46Y46*%
G04 Gerber Fmt 4.6, Leading zero omitted, Abs format (unit mm)*
G04 Created by KiCad (PCBNEW 8.0.6) date 2026-02-10 22:10:33*
%MOMM*%
%LPD*%
G01*
G04 APERTURE LIST*
%ADD10C,3.200000*%
%ADD11R,1.600000X1.600000*%
%ADD12O,1.600000X1.600000*%
%ADD13C,3.000000*%
%ADD14C,5.000000*%
%ADD15R,1.700000X1.700000*%
%ADD16O,1.700000X1.700000*%
G04 APERTURE END LIST*
D10*
%TO.C,REF\u002A\u002A*%
X272500000Y-85000000D03*
%TD*%
D11*
%TO.C,D27*%
X73356667Y-75000000D03*
D12*
X80976667Y-75000000D03*
%TD*%
D11*
%TO.C,D32*%
X173356667Y-75000000D03*
D12*
X180976667Y-75000000D03*
%TD*%
D13*
%TO.C,SW6*%
X146690000Y-41960000D03*
D14*
X150500000Y-44500000D03*
D13*
X153040000Y-39420000D03*
%TD*%
D11*
%TO.C,D10*%
X226690000Y-35000000D03*
D12*
X234310000Y-35000000D03*
%TD*%
D11*
%TO.C,D26*%
X53356667Y-75000000D03*
D12*
X60976667Y-75000000D03*
%TD*%
D13*
%TO.C,SW29*%
X113356667Y-81960000D03*
D14*
X117166667Y-84500000D03*
D13*
X119706667Y-79420000D03*
%TD*%
%TO.C,SW35*%
X233356667Y-81960000D03*
D14*
X237166667Y-84500000D03*
D13*
X239706667Y-79420000D03*
%TD*%
D11*
%TO.C,D22*%
X220023333Y-55000000D03*
D12*
X227643333Y-55000000D03*
%TD*%
D13*
%TO.C,SW4*%
X106690000Y-41960000D03*
D14*
X110500000Y-44500000D03*
D13*
X113040000Y-39420000D03*
%TD*%
%TO.C,SW13*%
X40023333Y-61960000D03*
D14*
X43833333Y-64500000D03*
D13*
X46373333Y-59420000D03*
%TD*%
%TO.C,SW1*%
X46690000Y-41960000D03*
D14*
X50500000Y-44500000D03*
D13*
X53040000Y-39420000D03*
%TD*%
%TO.C,SW20*%
X180023333Y-61960000D03*
D14*
X183833333Y-64500000D03*
D13*
X186373333Y-59420000D03*
%TD*%
D11*
%TO.C,D13*%
X40023333Y-55000000D03*
D12*
X47643333Y-55000000D03*
%TD*%
D11*
%TO.C,D17*%
X120023333Y-55000000D03*
D12*
X127643333Y-55000000D03*
%TD*%
D11*
%TO.C,D15*%
X80023333Y-55000000D03*
D12*
X87643333Y-55000000D03*
%TD*%
D11*
%TO.C,D3*%
X86690000Y-35000000D03*
D12*
X94310000Y-35000000D03*
%TD*%
D13*
%TO.C,SW5*%
X126690000Y-41960000D03*
D14*
X130500000Y-44500000D03*
D13*
X133040000Y-39420000D03*
%TD*%
%TO.C,SW36*%
X253356667Y-81960000D03*
D14*
X257166667Y-84500000D03*
D13*
X259706667Y-79420000D03*
%TD*%
D11*
%TO.C,D21*%
X200023333Y-55000000D03*
D12*
X207643333Y-55000000D03*
%TD*%
D13*
%TO.C,SW12*%
X266690000Y-41960000D03*
D14*
X270500000Y-44500000D03*
D13*
X273040000Y-39420000D03*
%TD*%
%TO.C,SW3*%
X86690000Y-41960000D03*
D14*
X90500000Y-44500000D03*
D13*
X93040000Y-39420000D03*
%TD*%
%TO.C,SW23*%
X240023333Y-61960000D03*
D14*
X243833333Y-64500000D03*
D13*
X246373333Y-59420000D03*
%TD*%
D11*
%TO.C,D9*%
X206690000Y-35000000D03*
D12*
X214310000Y-35000000D03*
%TD*%
D13*
%TO.C,SW17*%
X120023333Y-61960000D03*
D14*
X123833333Y-64500000D03*
D13*
X126373333Y-59420000D03*
%TD*%
D11*
%TO.C,D12*%
X266690000Y-35000000D03*
D12*
X274310000Y-35000000D03*
%TD*%
D11*
%TO.C,D28*%
X93356667Y-75000000D03*
D12*
X100976667Y-75000000D03*
%TD*%
D13*
%TO.C,SW33*%
X193356667Y-81960000D03*
D14*
X197166667Y-84500000D03*
D13*
X199706667Y-79420000D03*
%TD*%
D11*
%TO.C,D1*%
X46690000Y-35000000D03*
D12*
X54310000Y-35000000D03*
%TD*%
D13*
%TO.C,SW18*%
X140023333Y-61960000D03*
D14*
X143833333Y-64500000D03*
D13*
X146373333Y-59420000D03*
%TD*%
D11*
%TO.C,D31*%
X153356667Y-75000000D03*
D12*
X160976667Y-75000000D03*
%TD*%
D11*
%TO.C,D33*%
X193356667Y-75000000D03*
D12*
X200976667Y-75000000D03*
%TD*%
D11*
%TO.C,D16*%
X100023333Y-55000000D03*
D12*
X107643333Y-55000000D03*
%TD*%
D11*
%TO.C,D5*%
X126690000Y-35000000D03*
D12*
X134310000Y-35000000D03*
%TD*%
D13*
%TO.C,SW34*%
X213356667Y-81960000D03*
D14*
X217166667Y-84500000D03*
D13*
X219706667Y-79420000D03*
%TD*%
%TO.C,SW26*%
X53356667Y-81960000D03*
D14*
X57166667Y-84500000D03*
D13*
X59706667Y-79420000D03*
%TD*%
D11*
%TO.C,D20*%
X180023333Y-55000000D03*
D12*
X187643333Y-55000000D03*
%TD*%
D13*
%TO.C,SW24*%
X260023333Y-61960000D03*
D14*
X263833333Y-64500000D03*
D13*
X266373333Y-59420000D03*
%TD*%
%TO.C,SW21*%
X200023333Y-61960000D03*
D14*
X203833333Y-64500000D03*
D13*
X206373333Y-59420000D03*
%TD*%
%TO.C,SW11*%
X246690000Y-41960000D03*
D14*
X250500000Y-44500000D03*
D13*
X253040000Y-39420000D03*
%TD*%
D11*
%TO.C,D25*%
X33356667Y-75000000D03*
D12*
X40976667Y-75000000D03*
%TD*%
D13*
%TO.C,SW27*%
X73356667Y-81960000D03*
D14*
X77166667Y-84500000D03*
D13*
X79706667Y-79420000D03*
%TD*%
D11*
%TO.C,D8*%
X186690000Y-35000000D03*
D12*
X194310000Y-35000000D03*
%TD*%
D11*
%TO.C,D18*%
X140023333Y-55000000D03*
D12*
X147643333Y-55000000D03*
%TD*%
D13*
%TO.C,SW2*%
X66690000Y-41960000D03*
D14*
X70500000Y-44500000D03*
D13*
X73040000Y-39420000D03*
%TD*%
%TO.C,SW10*%
X226690000Y-41960000D03*
D14*
X230500000Y-44500000D03*
D13*
X233040000Y-39420000D03*
%TD*%
%TO.C,SW28*%
X93356667Y-81960000D03*
D14*
X97166667Y-84500000D03*
D13*
X99706667Y-79420000D03*
%TD*%
%TO.C,SW32*%
X173356667Y-81960000D03*
D14*
X177166667Y-84500000D03*
D13*
X179706667Y-79420000D03*
%TD*%
%TO.C,SW19*%
X160023333Y-61960000D03*
D14*
X163833333Y-64500000D03*
D13*
X166373333Y-59420000D03*
%TD*%
D11*
%TO.C,D11*%
X246690000Y-35000000D03*
D12*
X254310000Y-35000000D03*
%TD*%
D11*
%TO.C,D4*%
X106690000Y-35000000D03*
D12*
X114310000Y-35000000D03*
%TD*%
D11*
%TO.C,D24*%
X260023333Y-55000000D03*
D12*
X267643333Y-55000000D03*
%TD*%
D13*
%TO.C,SW31*%
X153356667Y-81960000D03*
D14*
X157166667Y-84500000D03*
D13*
X159706667Y-79420000D03*
%TD*%
%TO.C,SW30*%
X133356667Y-81960000D03*
D14*
X137166667Y-84500000D03*
D13*
X139706667Y-79420000D03*
%TD*%
D11*
%TO.C,D23*%
X240023333Y-55000000D03*
D12*
X247643333Y-55000000D03*
%TD*%
D11*
%TO.C,D36*%
X253356667Y-75000000D03*
D12*
X260976667Y-75000000D03*
%TD*%
D13*
%TO.C,SW22*%
X220023333Y-61960000D03*
D14*
X223833333Y-64500000D03*
D13*
X226373333Y-59420000D03*
%TD*%
%TO.C,SW8*%
X186690000Y-41960000D03*
D14*
X190500000Y-44500000D03*
D13*
X193040000Y-39420000D03*
%TD*%
%TO.C,SW7*%
X166690000Y-41960000D03*
D14*
X170500000Y-44500000D03*
D13*
X173040000Y-39420000D03*
%TD*%
D11*
%TO.C,D19*%
X160023333Y-55000000D03*
D12*
X167643333Y-55000000D03*
%TD*%
D13*
%TO.C,SW16*%
X100023333Y-61960000D03*
D14*
X103833333Y-64500000D03*
D13*
X106373333Y-59420000D03*
%TD*%
%TO.C,SW25*%
X33356667Y-81960000D03*
D14*
X37166667Y-84500000D03*
D13*
X39706667Y-79420000D03*
%TD*%
D11*
%TO.C,D29*%
X113356667Y-75000000D03*
D12*
X120976667Y-75000000D03*
%TD*%
D11*
%TO.C,D30*%
X133356667Y-75000000D03*
D12*
X140976667Y-75000000D03*
%TD*%
D11*
%TO.C,D6*%
X146690000Y-35000000D03*
D12*
X154310000Y-35000000D03*
%TD*%
D11*
%TO.C,D14*%
X60023333Y-55000000D03*
D12*
X67643333Y-55000000D03*
%TD*%
D11*
%TO.C,D2*%
X66690000Y-35000000D03*
D12*
X74310000Y-35000000D03*
%TD*%
D13*
%TO.C,SW9*%
X206690000Y-41960000D03*
D14*
X210500000Y-44500000D03*
D13*
X213040000Y-39420000D03*
%TD*%
D11*
%TO.C,D35*%
X233356667Y-75000000D03*
D12*
X240976667Y-75000000D03*
%TD*%
D11*
%TO.C,D7*%
X166690000Y-35000000D03*
D12*
X174310000Y-35000000D03*
%TD*%
D11*
%TO.C,D34*%
X213356667Y-75000000D03*
D12*
X220976667Y-75000000D03*
%TD*%
D13*
%TO.C,SW14*%
X60023333Y-61960000D03*
D14*
X63833333Y-64500000D03*
D13*
X66373333Y-59420000D03*
%TD*%
%TO.C,SW15*%
X80023333Y-61960000D03*
D14*
X83833333Y-64500000D03*
D13*
X86373333Y-59420000D03*
%TD*%
D15*
%TO.C,J1*%
X35500000Y-35460000D03*
D16*
X32960000Y-35460000D03*
X35500000Y-38000000D03*
X32960000Y-38000000D03*
X35500000Y-40540000D03*
X32960000Y-40540000D03*
X35500000Y-43080000D03*
X32960000Y-43080000D03*
X35500000Y-45620000D03*
X32960000Y-45620000D03*
X35500000Y-48160000D03*
X32960000Y-48160000D03*
X35500000Y-50700000D03*
X32960000Y-50700000D03*
X35500000Y-53240000D03*
X32960000Y-53240000D03*
%TD*%
D10*
%TO.C,*%
X94000000Y-55500000D03*
%TD*%
%TO.C,*%
X174000000Y-55500000D03*
%TD*%
%TO.C,*%
X47000000Y-76000000D03*
%TD*%
%TO.C,*%
X30000000Y-32500000D03*
%TD*%
%TO.C,*%
X276500000Y-32500000D03*
%TD*%
M02*
