M48
; DRILL file {KiCad 8.0.6} date 2026-02-10T22:10:21+0100
; FORMAT={-:-/ absolute / inch / decimal}
; #@! TF.CreationDate,2026-02-10T22:10:21+01:00
; #@! TF.GenerationSoftware,Kicad,Pcbnew,8.0.6
; #@! TF.FileFunction,NonPlated,1,2,NPTH
FMAT,2
INCH
; #@! TA.AperFunction,NonPlated,NPTH,ComponentDrill
T1C0.1181
; #@! TA.AperFunction,NonPlated,NPTH,ComponentDrill
T2C0.1260
; #@! TA.AperFunction,NonPlated,NPTH,ComponentDrill
T3C0.1969
%
G90
G05
T1
X1.3133Y-3.2268
X1.5633Y-3.1268
X1.5757Y-2.4394
X1.8257Y-2.3394
X1.8382Y-1.652
X2.0882Y-1.552
X2.1007Y-3.2268
X2.3507Y-3.1268
X2.3631Y-2.4394
X2.6131Y-2.3394
X2.6256Y-1.652
X2.8756Y-1.552
X2.8881Y-3.2268
X3.1381Y-3.1268
X3.1505Y-2.4394
X3.4005Y-2.3394
X3.413Y-1.652
X3.663Y-1.552
X3.6755Y-3.2268
X3.9255Y-3.1268
X3.9379Y-2.4394
X4.1879Y-2.3394
X4.2004Y-1.652
X4.4504Y-1.552
X4.4629Y-3.2268
X4.7129Y-3.1268
X4.7253Y-2.4394
X4.9753Y-2.3394
X4.9878Y-1.652
X5.2378Y-1.552
X5.2503Y-3.2268
X5.5003Y-3.1268
X5.5127Y-2.4394
X5.7627Y-2.3394
X5.7752Y-1.652
X6.0252Y-1.552
X6.0377Y-3.2268
X6.2877Y-3.1268
X6.3001Y-2.4394
X6.5501Y-2.3394
X6.5626Y-1.652
X6.8126Y-1.552
X6.8251Y-3.2268
X7.0751Y-3.1268
X7.0875Y-2.4394
X7.3375Y-2.3394
X7.35Y-1.652
X7.6Y-1.552
X7.6125Y-3.2268
X7.8625Y-3.1268
X7.8749Y-2.4394
X8.1249Y-2.3394
X8.1374Y-1.652
X8.3874Y-1.552
X8.3999Y-3.2268
X8.6499Y-3.1268
X8.6623Y-2.4394
X8.9123Y-2.3394
X8.9248Y-1.652
X9.1748Y-1.552
X9.1873Y-3.2268
X9.4373Y-3.1268
X9.4497Y-2.4394
X9.6997Y-2.3394
X9.7122Y-1.652
X9.9622Y-1.552
X9.9747Y-3.2268
X10.2247Y-3.1268
X10.2371Y-2.4394
X10.4871Y-2.3394
X10.4996Y-1.652
X10.7496Y-1.552
T2
X1.1811Y-1.2795
X1.8504Y-2.9921
X3.7008Y-2.185
X6.8504Y-2.185
X10.7283Y-3.3465
X10.8858Y-1.2795
T3
X1.4633Y-3.3268
X1.7257Y-2.5394
X1.9882Y-1.752
X2.2507Y-3.3268
X2.5131Y-2.5394
X2.7756Y-1.752
X3.0381Y-3.3268
X3.3005Y-2.5394
X3.563Y-1.752
X3.8255Y-3.3268
X4.0879Y-2.5394
X4.3504Y-1.752
X4.6129Y-3.3268
X4.8753Y-2.5394
X5.1378Y-1.752
X5.4003Y-3.3268
X5.6627Y-2.5394
X5.9252Y-1.752
X6.1877Y-3.3268
X6.4501Y-2.5394
X6.7126Y-1.752
X6.9751Y-3.3268
X7.2375Y-2.5394
X7.5Y-1.752
X7.7625Y-3.3268
X8.0249Y-2.5394
X8.2874Y-1.752
X8.5499Y-3.3268
X8.8123Y-2.5394
X9.0748Y-1.752
X9.3373Y-3.3268
X9.5997Y-2.5394
X9.8622Y-1.752
X10.1247Y-3.3268
X10.3871Y-2.5394
X10.6496Y-1.752
M30
