M48
; DRILL file {KiCad 8.0.6} date 2026-02-10T22:10:21+0100
; FORMAT={-:-/ absolute / inch / decimal}
; #@! TF.CreationDate,2026-02-10T22:10:21+01:00
; #@! TF.GenerationSoftware,Kicad,Pcbnew,8.0.6
; #@! TF.FileFunction,Plated,1,2,PTH
FMAT,2
INCH
; #@! TA.AperFunction,Plated,PTH,ViaDrill
T1C0.0118
; #@! TA.AperFunction,Plated,PTH,ComponentDrill
T2C0.0315
; #@! TA.AperFunction,Plated,PTH,ComponentDrill
T3C0.0394
%
G90
G05
T1
X1.4961Y-2.0866
X1.5157Y-1.2795
X1.8504Y-3.6024
T2
X1.3133Y-2.9528
X1.5757Y-2.1654
X1.6133Y-2.9528
X1.8382Y-1.378
X1.8757Y-2.1654
X2.1007Y-2.9528
X2.1382Y-1.378
X2.3631Y-2.1654
X2.4007Y-2.9528
X2.6256Y-1.378
X2.6631Y-2.1654
X2.8881Y-2.9528
X2.9256Y-1.378
X3.1505Y-2.1654
X3.1881Y-2.9528
X3.413Y-1.378
X3.4505Y-2.1654
X3.6755Y-2.9528
X3.713Y-1.378
X3.9379Y-2.1654
X3.9755Y-2.9528
X4.2004Y-1.378
X4.2379Y-2.1654
X4.4629Y-2.9528
X4.5004Y-1.378
X4.7253Y-2.1654
X4.7629Y-2.9528
X4.9878Y-1.378
X5.0253Y-2.1654
X5.2503Y-2.9528
X5.2878Y-1.378
X5.5127Y-2.1654
X5.5503Y-2.9528
X5.7752Y-1.378
X5.8127Y-2.1654
X6.0377Y-2.9528
X6.0752Y-1.378
X6.3001Y-2.1654
X6.3377Y-2.9528
X6.5626Y-1.378
X6.6001Y-2.1654
X6.8251Y-2.9528
X6.8626Y-1.378
X7.0875Y-2.1654
X7.1251Y-2.9528
X7.35Y-1.378
X7.3875Y-2.1654
X7.6125Y-2.9528
X7.65Y-1.378
X7.8749Y-2.1654
X7.9125Y-2.9528
X8.1374Y-1.378
X8.1749Y-2.1654
X8.3999Y-2.9528
X8.4374Y-1.378
X8.6623Y-2.1654
X8.6999Y-2.9528
X8.9248Y-1.378
X8.9623Y-2.1654
X9.1873Y-2.9528
X9.2248Y-1.378
X9.4497Y-2.1654
X9.4873Y-2.9528
X9.7122Y-1.378
X9.7497Y-2.1654
X9.9747Y-2.9528
X10.0122Y-1.378
X10.2371Y-2.1654
X10.2747Y-2.9528
X10.4996Y-1.378
X10.5371Y-2.1654
X10.7996Y-1.378
T3
X1.2976Y-1.3961
X1.2976Y-1.4961
X1.2976Y-1.5961
X1.2976Y-1.6961
X1.2976Y-1.7961
X1.2976Y-1.8961
X1.2976Y-1.9961
X1.2976Y-2.0961
X1.3976Y-1.3961
X1.3976Y-1.4961
X1.3976Y-1.5961
X1.3976Y-1.6961
X1.3976Y-1.7961
X1.3976Y-1.8961
X1.3976Y-1.9961
X1.3976Y-2.0961
M30
