%TF.GenerationSoftware,KiCad,Pcbnew,8.0.6*%
%TF.CreationDate,2026-02-10T22:10:20+01:00*%
%TF.ProjectId,keyboard,6b657962-6f61-4726-942e-6b696361645f,rev?*%
%TF.SameCoordinates,Original*%
%TF.FileFunction,Drillmap*%
%TF.FilePolarity,Positive*%
%FSLAX45Y45*%
G04 Gerber Fmt 4.5, Leading zero omitted, Abs format (unit mm)*
G04 Created by KiCad (PCBNEW 8.0.6) date 2026-02-10 22:10:20*
%MOMM*%
%LPD*%
G01*
G04 APERTURE LIST*
%ADD10C,0.050000*%
%ADD11C,0.200000*%
%ADD12C,0.300000*%
%ADD13C,0.320000*%
%ADD14C,0.500000*%
G04 APERTURE END LIST*
D10*
X2750000Y-3000000D02*
X27900000Y-3000000D01*
X27900000Y-9400000D01*
X2750000Y-9400000D01*
X2750000Y-3000000D01*
D11*
D12*
X3185667Y-8046000D02*
X3485667Y-8346000D01*
X3485667Y-8046000D02*
X3185667Y-8346000D01*
X3820667Y-7792000D02*
X4120667Y-8092000D01*
X4120667Y-7792000D02*
X3820667Y-8092000D01*
X3852333Y-6046000D02*
X4152333Y-6346000D01*
X4152333Y-6046000D02*
X3852333Y-6346000D01*
X4487333Y-5792000D02*
X4787333Y-6092000D01*
X4787333Y-5792000D02*
X4487333Y-6092000D01*
X4519000Y-4046000D02*
X4819000Y-4346000D01*
X4819000Y-4046000D02*
X4519000Y-4346000D01*
X5154000Y-3792000D02*
X5454000Y-4092000D01*
X5454000Y-3792000D02*
X5154000Y-4092000D01*
X5185667Y-8046000D02*
X5485667Y-8346000D01*
X5485667Y-8046000D02*
X5185667Y-8346000D01*
X5820667Y-7792000D02*
X6120667Y-8092000D01*
X6120667Y-7792000D02*
X5820667Y-8092000D01*
X5852333Y-6046000D02*
X6152333Y-6346000D01*
X6152333Y-6046000D02*
X5852333Y-6346000D01*
X6487333Y-5792000D02*
X6787333Y-6092000D01*
X6787333Y-5792000D02*
X6487333Y-6092000D01*
X6519000Y-4046000D02*
X6819000Y-4346000D01*
X6819000Y-4046000D02*
X6519000Y-4346000D01*
X7154000Y-3792000D02*
X7454000Y-4092000D01*
X7454000Y-3792000D02*
X7154000Y-4092000D01*
X7185667Y-8046000D02*
X7485667Y-8346000D01*
X7485667Y-8046000D02*
X7185667Y-8346000D01*
X7820667Y-7792000D02*
X8120667Y-8092000D01*
X8120667Y-7792000D02*
X7820667Y-8092000D01*
X7852333Y-6046000D02*
X8152333Y-6346000D01*
X8152333Y-6046000D02*
X7852333Y-6346000D01*
X8487333Y-5792000D02*
X8787333Y-6092000D01*
X8787333Y-5792000D02*
X8487333Y-6092000D01*
X8519000Y-4046000D02*
X8819000Y-4346000D01*
X8819000Y-4046000D02*
X8519000Y-4346000D01*
X9154000Y-3792000D02*
X9454000Y-4092000D01*
X9454000Y-3792000D02*
X9154000Y-4092000D01*
X9185667Y-8046000D02*
X9485667Y-8346000D01*
X9485667Y-8046000D02*
X9185667Y-8346000D01*
X9820667Y-7792000D02*
X10120667Y-8092000D01*
X10120667Y-7792000D02*
X9820667Y-8092000D01*
X9852333Y-6046000D02*
X10152333Y-6346000D01*
X10152333Y-6046000D02*
X9852333Y-6346000D01*
X10487333Y-5792000D02*
X10787333Y-6092000D01*
X10787333Y-5792000D02*
X10487333Y-6092000D01*
X10519000Y-4046000D02*
X10819000Y-4346000D01*
X10819000Y-4046000D02*
X10519000Y-4346000D01*
X11154000Y-3792000D02*
X11454000Y-4092000D01*
X11454000Y-3792000D02*
X11154000Y-4092000D01*
X11185667Y-8046000D02*
X11485667Y-8346000D01*
X11485667Y-8046000D02*
X11185667Y-8346000D01*
X11820667Y-7792000D02*
X12120667Y-8092000D01*
X12120667Y-7792000D02*
X11820667Y-8092000D01*
X11852333Y-6046000D02*
X12152333Y-6346000D01*
X12152333Y-6046000D02*
X11852333Y-6346000D01*
X12487333Y-5792000D02*
X12787333Y-6092000D01*
X12787333Y-5792000D02*
X12487333Y-6092000D01*
X12519000Y-4046000D02*
X12819000Y-4346000D01*
X12819000Y-4046000D02*
X12519000Y-4346000D01*
X13154000Y-3792000D02*
X13454000Y-4092000D01*
X13454000Y-3792000D02*
X13154000Y-4092000D01*
X13185667Y-8046000D02*
X13485667Y-8346000D01*
X13485667Y-8046000D02*
X13185667Y-8346000D01*
X13820667Y-7792000D02*
X14120667Y-8092000D01*
X14120667Y-7792000D02*
X13820667Y-8092000D01*
X13852333Y-6046000D02*
X14152333Y-6346000D01*
X14152333Y-6046000D02*
X13852333Y-6346000D01*
X14487333Y-5792000D02*
X14787333Y-6092000D01*
X14787333Y-5792000D02*
X14487333Y-6092000D01*
X14519000Y-4046000D02*
X14819000Y-4346000D01*
X14819000Y-4046000D02*
X14519000Y-4346000D01*
X15154000Y-3792000D02*
X15454000Y-4092000D01*
X15454000Y-3792000D02*
X15154000Y-4092000D01*
X15185667Y-8046000D02*
X15485667Y-8346000D01*
X15485667Y-8046000D02*
X15185667Y-8346000D01*
X15820667Y-7792000D02*
X16120667Y-8092000D01*
X16120667Y-7792000D02*
X15820667Y-8092000D01*
X15852333Y-6046000D02*
X16152333Y-6346000D01*
X16152333Y-6046000D02*
X15852333Y-6346000D01*
X16487333Y-5792000D02*
X16787333Y-6092000D01*
X16787333Y-5792000D02*
X16487333Y-6092000D01*
X16519000Y-4046000D02*
X16819000Y-4346000D01*
X16819000Y-4046000D02*
X16519000Y-4346000D01*
X17154000Y-3792000D02*
X17454000Y-4092000D01*
X17454000Y-3792000D02*
X17154000Y-4092000D01*
X17185667Y-8046000D02*
X17485667Y-8346000D01*
X17485667Y-8046000D02*
X17185667Y-8346000D01*
X17820667Y-7792000D02*
X18120667Y-8092000D01*
X18120667Y-7792000D02*
X17820667Y-8092000D01*
X17852333Y-6046000D02*
X18152333Y-6346000D01*
X18152333Y-6046000D02*
X17852333Y-6346000D01*
X18487333Y-5792000D02*
X18787333Y-6092000D01*
X18787333Y-5792000D02*
X18487333Y-6092000D01*
X18519000Y-4046000D02*
X18819000Y-4346000D01*
X18819000Y-4046000D02*
X18519000Y-4346000D01*
X19154000Y-3792000D02*
X19454000Y-4092000D01*
X19454000Y-3792000D02*
X19154000Y-4092000D01*
X19185667Y-8046000D02*
X19485667Y-8346000D01*
X19485667Y-8046000D02*
X19185667Y-8346000D01*
X19820667Y-7792000D02*
X20120667Y-8092000D01*
X20120667Y-7792000D02*
X19820667Y-8092000D01*
X19852333Y-6046000D02*
X20152333Y-6346000D01*
X20152333Y-6046000D02*
X19852333Y-6346000D01*
X20487333Y-5792000D02*
X20787333Y-6092000D01*
X20787333Y-5792000D02*
X20487333Y-6092000D01*
X20519000Y-4046000D02*
X20819000Y-4346000D01*
X20819000Y-4046000D02*
X20519000Y-4346000D01*
X21154000Y-3792000D02*
X21454000Y-4092000D01*
X21454000Y-3792000D02*
X21154000Y-4092000D01*
X21185667Y-8046000D02*
X21485667Y-8346000D01*
X21485667Y-8046000D02*
X21185667Y-8346000D01*
X21820667Y-7792000D02*
X22120667Y-8092000D01*
X22120667Y-7792000D02*
X21820667Y-8092000D01*
X21852333Y-6046000D02*
X22152333Y-6346000D01*
X22152333Y-6046000D02*
X21852333Y-6346000D01*
X22487333Y-5792000D02*
X22787333Y-6092000D01*
X22787333Y-5792000D02*
X22487333Y-6092000D01*
X22519000Y-4046000D02*
X22819000Y-4346000D01*
X22819000Y-4046000D02*
X22519000Y-4346000D01*
X23154000Y-3792000D02*
X23454000Y-4092000D01*
X23454000Y-3792000D02*
X23154000Y-4092000D01*
X23185667Y-8046000D02*
X23485667Y-8346000D01*
X23485667Y-8046000D02*
X23185667Y-8346000D01*
X23820667Y-7792000D02*
X24120667Y-8092000D01*
X24120667Y-7792000D02*
X23820667Y-8092000D01*
X23852333Y-6046000D02*
X24152333Y-6346000D01*
X24152333Y-6046000D02*
X23852333Y-6346000D01*
X24487333Y-5792000D02*
X24787333Y-6092000D01*
X24787333Y-5792000D02*
X24487333Y-6092000D01*
X24519000Y-4046000D02*
X24819000Y-4346000D01*
X24819000Y-4046000D02*
X24519000Y-4346000D01*
X25154000Y-3792000D02*
X25454000Y-4092000D01*
X25454000Y-3792000D02*
X25154000Y-4092000D01*
X25185667Y-8046000D02*
X25485667Y-8346000D01*
X25485667Y-8046000D02*
X25185667Y-8346000D01*
X25820667Y-7792000D02*
X26120667Y-8092000D01*
X26120667Y-7792000D02*
X25820667Y-8092000D01*
X25852333Y-6046000D02*
X26152333Y-6346000D01*
X26152333Y-6046000D02*
X25852333Y-6346000D01*
X26487333Y-5792000D02*
X26787333Y-6092000D01*
X26787333Y-5792000D02*
X26487333Y-6092000D01*
X26519000Y-4046000D02*
X26819000Y-4346000D01*
X26819000Y-4046000D02*
X26519000Y-4346000D01*
X27154000Y-3792000D02*
X27454000Y-4092000D01*
X27454000Y-3792000D02*
X27154000Y-4092000D01*
D13*
X3160000Y-3250000D02*
G75*
G02*
X2840000Y-3250000I-160000J0D01*
G01*
X2840000Y-3250000D02*
G75*
G02*
X3160000Y-3250000I160000J0D01*
G01*
X4860000Y-7600000D02*
G75*
G02*
X4540000Y-7600000I-160000J0D01*
G01*
X4540000Y-7600000D02*
G75*
G02*
X4860000Y-7600000I160000J0D01*
G01*
X9560000Y-5550000D02*
G75*
G02*
X9240000Y-5550000I-160000J0D01*
G01*
X9240000Y-5550000D02*
G75*
G02*
X9560000Y-5550000I160000J0D01*
G01*
X17560000Y-5550000D02*
G75*
G02*
X17240000Y-5550000I-160000J0D01*
G01*
X17240000Y-5550000D02*
G75*
G02*
X17560000Y-5550000I160000J0D01*
G01*
X27410000Y-8500000D02*
G75*
G02*
X27090000Y-8500000I-160000J0D01*
G01*
X27090000Y-8500000D02*
G75*
G02*
X27410000Y-8500000I160000J0D01*
G01*
X27810000Y-3250000D02*
G75*
G02*
X27490000Y-3250000I-160000J0D01*
G01*
X27490000Y-3250000D02*
G75*
G02*
X27810000Y-3250000I160000J0D01*
G01*
D14*
X3716667Y-8200000D02*
X3716667Y-8700000D01*
X3466667Y-8450000D02*
X3966667Y-8450000D01*
X4383333Y-6200000D02*
X4383333Y-6700000D01*
X4133333Y-6450000D02*
X4633333Y-6450000D01*
X5050000Y-4200000D02*
X5050000Y-4700000D01*
X4800000Y-4450000D02*
X5300000Y-4450000D01*
X5716667Y-8200000D02*
X5716667Y-8700000D01*
X5466667Y-8450000D02*
X5966667Y-8450000D01*
X6383333Y-6200000D02*
X6383333Y-6700000D01*
X6133333Y-6450000D02*
X6633333Y-6450000D01*
X7050000Y-4200000D02*
X7050000Y-4700000D01*
X6800000Y-4450000D02*
X7300000Y-4450000D01*
X7716667Y-8200000D02*
X7716667Y-8700000D01*
X7466667Y-8450000D02*
X7966667Y-8450000D01*
X8383333Y-6200000D02*
X8383333Y-6700000D01*
X8133333Y-6450000D02*
X8633333Y-6450000D01*
X9050000Y-4200000D02*
X9050000Y-4700000D01*
X8800000Y-4450000D02*
X9300000Y-4450000D01*
X9716667Y-8200000D02*
X9716667Y-8700000D01*
X9466667Y-8450000D02*
X9966667Y-8450000D01*
X10383333Y-6200000D02*
X10383333Y-6700000D01*
X10133333Y-6450000D02*
X10633333Y-6450000D01*
X11050000Y-4200000D02*
X11050000Y-4700000D01*
X10800000Y-4450000D02*
X11300000Y-4450000D01*
X11716667Y-8200000D02*
X11716667Y-8700000D01*
X11466667Y-8450000D02*
X11966667Y-8450000D01*
X12383333Y-6200000D02*
X12383333Y-6700000D01*
X12133333Y-6450000D02*
X12633333Y-6450000D01*
X13050000Y-4200000D02*
X13050000Y-4700000D01*
X12800000Y-4450000D02*
X13300000Y-4450000D01*
X13716667Y-8200000D02*
X13716667Y-8700000D01*
X13466667Y-8450000D02*
X13966667Y-8450000D01*
X14383333Y-6200000D02*
X14383333Y-6700000D01*
X14133333Y-6450000D02*
X14633333Y-6450000D01*
X15050000Y-4200000D02*
X15050000Y-4700000D01*
X14800000Y-4450000D02*
X15300000Y-4450000D01*
X15716667Y-8200000D02*
X15716667Y-8700000D01*
X15466667Y-8450000D02*
X15966667Y-8450000D01*
X16383333Y-6200000D02*
X16383333Y-6700000D01*
X16133333Y-6450000D02*
X16633333Y-6450000D01*
X17050000Y-4200000D02*
X17050000Y-4700000D01*
X16800000Y-4450000D02*
X17300000Y-4450000D01*
X17716667Y-8200000D02*
X17716667Y-8700000D01*
X17466667Y-8450000D02*
X17966667Y-8450000D01*
X18383333Y-6200000D02*
X18383333Y-6700000D01*
X18133333Y-6450000D02*
X18633333Y-6450000D01*
X19050000Y-4200000D02*
X19050000Y-4700000D01*
X18800000Y-4450000D02*
X19300000Y-4450000D01*
X19716667Y-8200000D02*
X19716667Y-8700000D01*
X19466667Y-8450000D02*
X19966667Y-8450000D01*
X20383333Y-6200000D02*
X20383333Y-6700000D01*
X20133333Y-6450000D02*
X20633333Y-6450000D01*
X21050000Y-4200000D02*
X21050000Y-4700000D01*
X20800000Y-4450000D02*
X21300000Y-4450000D01*
X21716667Y-8200000D02*
X21716667Y-8700000D01*
X21466667Y-8450000D02*
X21966667Y-8450000D01*
X22383333Y-6200000D02*
X22383333Y-6700000D01*
X22133333Y-6450000D02*
X22633333Y-6450000D01*
X23050000Y-4200000D02*
X23050000Y-4700000D01*
X22800000Y-4450000D02*
X23300000Y-4450000D01*
X23716667Y-8200000D02*
X23716667Y-8700000D01*
X23466667Y-8450000D02*
X23966667Y-8450000D01*
X24383333Y-6200000D02*
X24383333Y-6700000D01*
X24133333Y-6450000D02*
X24633333Y-6450000D01*
X25050000Y-4200000D02*
X25050000Y-4700000D01*
X24800000Y-4450000D02*
X25300000Y-4450000D01*
X25716667Y-8200000D02*
X25716667Y-8700000D01*
X25466667Y-8450000D02*
X25966667Y-8450000D01*
X26383333Y-6200000D02*
X26383333Y-6700000D01*
X26133333Y-6450000D02*
X26633333Y-6450000D01*
X27050000Y-4200000D02*
X27050000Y-4700000D01*
X26800000Y-4450000D02*
X27300000Y-4450000D01*
D11*
X3008277Y-9713984D02*
X3008277Y-9513984D01*
X3008277Y-9513984D02*
X3055896Y-9513984D01*
X3055896Y-9513984D02*
X3084467Y-9523508D01*
X3084467Y-9523508D02*
X3103515Y-9542555D01*
X3103515Y-9542555D02*
X3113039Y-9561603D01*
X3113039Y-9561603D02*
X3122562Y-9599698D01*
X3122562Y-9599698D02*
X3122562Y-9628270D01*
X3122562Y-9628270D02*
X3113039Y-9666365D01*
X3113039Y-9666365D02*
X3103515Y-9685412D01*
X3103515Y-9685412D02*
X3084467Y-9704460D01*
X3084467Y-9704460D02*
X3055896Y-9713984D01*
X3055896Y-9713984D02*
X3008277Y-9713984D01*
X3208277Y-9713984D02*
X3208277Y-9580650D01*
X3208277Y-9618746D02*
X3217801Y-9599698D01*
X3217801Y-9599698D02*
X3227324Y-9590174D01*
X3227324Y-9590174D02*
X3246372Y-9580650D01*
X3246372Y-9580650D02*
X3265420Y-9580650D01*
X3332086Y-9713984D02*
X3332086Y-9580650D01*
X3332086Y-9513984D02*
X3322562Y-9523508D01*
X3322562Y-9523508D02*
X3332086Y-9533031D01*
X3332086Y-9533031D02*
X3341610Y-9523508D01*
X3341610Y-9523508D02*
X3332086Y-9513984D01*
X3332086Y-9513984D02*
X3332086Y-9533031D01*
X3455896Y-9713984D02*
X3436848Y-9704460D01*
X3436848Y-9704460D02*
X3427324Y-9685412D01*
X3427324Y-9685412D02*
X3427324Y-9513984D01*
X3560658Y-9713984D02*
X3541610Y-9704460D01*
X3541610Y-9704460D02*
X3532086Y-9685412D01*
X3532086Y-9685412D02*
X3532086Y-9513984D01*
X3789229Y-9713984D02*
X3789229Y-9513984D01*
X3789229Y-9513984D02*
X3855896Y-9656841D01*
X3855896Y-9656841D02*
X3922562Y-9513984D01*
X3922562Y-9513984D02*
X3922562Y-9713984D01*
X4103515Y-9713984D02*
X4103515Y-9609222D01*
X4103515Y-9609222D02*
X4093991Y-9590174D01*
X4093991Y-9590174D02*
X4074943Y-9580650D01*
X4074943Y-9580650D02*
X4036848Y-9580650D01*
X4036848Y-9580650D02*
X4017801Y-9590174D01*
X4103515Y-9704460D02*
X4084467Y-9713984D01*
X4084467Y-9713984D02*
X4036848Y-9713984D01*
X4036848Y-9713984D02*
X4017801Y-9704460D01*
X4017801Y-9704460D02*
X4008277Y-9685412D01*
X4008277Y-9685412D02*
X4008277Y-9666365D01*
X4008277Y-9666365D02*
X4017801Y-9647317D01*
X4017801Y-9647317D02*
X4036848Y-9637793D01*
X4036848Y-9637793D02*
X4084467Y-9637793D01*
X4084467Y-9637793D02*
X4103515Y-9628270D01*
X4198753Y-9580650D02*
X4198753Y-9780650D01*
X4198753Y-9590174D02*
X4217801Y-9580650D01*
X4217801Y-9580650D02*
X4255896Y-9580650D01*
X4255896Y-9580650D02*
X4274944Y-9590174D01*
X4274944Y-9590174D02*
X4284467Y-9599698D01*
X4284467Y-9599698D02*
X4293991Y-9618746D01*
X4293991Y-9618746D02*
X4293991Y-9675889D01*
X4293991Y-9675889D02*
X4284467Y-9694936D01*
X4284467Y-9694936D02*
X4274944Y-9704460D01*
X4274944Y-9704460D02*
X4255896Y-9713984D01*
X4255896Y-9713984D02*
X4217801Y-9713984D01*
X4217801Y-9713984D02*
X4198753Y-9704460D01*
X4379705Y-9694936D02*
X4389229Y-9704460D01*
X4389229Y-9704460D02*
X4379705Y-9713984D01*
X4379705Y-9713984D02*
X4370182Y-9704460D01*
X4370182Y-9704460D02*
X4379705Y-9694936D01*
X4379705Y-9694936D02*
X4379705Y-9713984D01*
X4379705Y-9590174D02*
X4389229Y-9599698D01*
X4389229Y-9599698D02*
X4379705Y-9609222D01*
X4379705Y-9609222D02*
X4370182Y-9599698D01*
X4370182Y-9599698D02*
X4379705Y-9590174D01*
X4379705Y-9590174D02*
X4379705Y-9609222D01*
X2547500Y-9942500D02*
X2747500Y-10142500D01*
X2747500Y-9942500D02*
X2547500Y-10142500D01*
X2989229Y-9933984D02*
X3113039Y-9933984D01*
X3113039Y-9933984D02*
X3046372Y-10010174D01*
X3046372Y-10010174D02*
X3074943Y-10010174D01*
X3074943Y-10010174D02*
X3093991Y-10019698D01*
X3093991Y-10019698D02*
X3103515Y-10029222D01*
X3103515Y-10029222D02*
X3113039Y-10048270D01*
X3113039Y-10048270D02*
X3113039Y-10095889D01*
X3113039Y-10095889D02*
X3103515Y-10114936D01*
X3103515Y-10114936D02*
X3093991Y-10124460D01*
X3093991Y-10124460D02*
X3074943Y-10133984D01*
X3074943Y-10133984D02*
X3017801Y-10133984D01*
X3017801Y-10133984D02*
X2998753Y-10124460D01*
X2998753Y-10124460D02*
X2989229Y-10114936D01*
X3198753Y-10114936D02*
X3208277Y-10124460D01*
X3208277Y-10124460D02*
X3198753Y-10133984D01*
X3198753Y-10133984D02*
X3189229Y-10124460D01*
X3189229Y-10124460D02*
X3198753Y-10114936D01*
X3198753Y-10114936D02*
X3198753Y-10133984D01*
X3332086Y-9933984D02*
X3351134Y-9933984D01*
X3351134Y-9933984D02*
X3370182Y-9943508D01*
X3370182Y-9943508D02*
X3379705Y-9953031D01*
X3379705Y-9953031D02*
X3389229Y-9972079D01*
X3389229Y-9972079D02*
X3398753Y-10010174D01*
X3398753Y-10010174D02*
X3398753Y-10057793D01*
X3398753Y-10057793D02*
X3389229Y-10095889D01*
X3389229Y-10095889D02*
X3379705Y-10114936D01*
X3379705Y-10114936D02*
X3370182Y-10124460D01*
X3370182Y-10124460D02*
X3351134Y-10133984D01*
X3351134Y-10133984D02*
X3332086Y-10133984D01*
X3332086Y-10133984D02*
X3313039Y-10124460D01*
X3313039Y-10124460D02*
X3303515Y-10114936D01*
X3303515Y-10114936D02*
X3293991Y-10095889D01*
X3293991Y-10095889D02*
X3284467Y-10057793D01*
X3284467Y-10057793D02*
X3284467Y-10010174D01*
X3284467Y-10010174D02*
X3293991Y-9972079D01*
X3293991Y-9972079D02*
X3303515Y-9953031D01*
X3303515Y-9953031D02*
X3313039Y-9943508D01*
X3313039Y-9943508D02*
X3332086Y-9933984D01*
X3522562Y-9933984D02*
X3541610Y-9933984D01*
X3541610Y-9933984D02*
X3560658Y-9943508D01*
X3560658Y-9943508D02*
X3570182Y-9953031D01*
X3570182Y-9953031D02*
X3579705Y-9972079D01*
X3579705Y-9972079D02*
X3589229Y-10010174D01*
X3589229Y-10010174D02*
X3589229Y-10057793D01*
X3589229Y-10057793D02*
X3579705Y-10095889D01*
X3579705Y-10095889D02*
X3570182Y-10114936D01*
X3570182Y-10114936D02*
X3560658Y-10124460D01*
X3560658Y-10124460D02*
X3541610Y-10133984D01*
X3541610Y-10133984D02*
X3522562Y-10133984D01*
X3522562Y-10133984D02*
X3503515Y-10124460D01*
X3503515Y-10124460D02*
X3493991Y-10114936D01*
X3493991Y-10114936D02*
X3484467Y-10095889D01*
X3484467Y-10095889D02*
X3474943Y-10057793D01*
X3474943Y-10057793D02*
X3474943Y-10010174D01*
X3474943Y-10010174D02*
X3484467Y-9972079D01*
X3484467Y-9972079D02*
X3493991Y-9953031D01*
X3493991Y-9953031D02*
X3503515Y-9943508D01*
X3503515Y-9943508D02*
X3522562Y-9933984D01*
X3713039Y-9933984D02*
X3732086Y-9933984D01*
X3732086Y-9933984D02*
X3751134Y-9943508D01*
X3751134Y-9943508D02*
X3760658Y-9953031D01*
X3760658Y-9953031D02*
X3770182Y-9972079D01*
X3770182Y-9972079D02*
X3779705Y-10010174D01*
X3779705Y-10010174D02*
X3779705Y-10057793D01*
X3779705Y-10057793D02*
X3770182Y-10095889D01*
X3770182Y-10095889D02*
X3760658Y-10114936D01*
X3760658Y-10114936D02*
X3751134Y-10124460D01*
X3751134Y-10124460D02*
X3732086Y-10133984D01*
X3732086Y-10133984D02*
X3713039Y-10133984D01*
X3713039Y-10133984D02*
X3693991Y-10124460D01*
X3693991Y-10124460D02*
X3684467Y-10114936D01*
X3684467Y-10114936D02*
X3674943Y-10095889D01*
X3674943Y-10095889D02*
X3665420Y-10057793D01*
X3665420Y-10057793D02*
X3665420Y-10010174D01*
X3665420Y-10010174D02*
X3674943Y-9972079D01*
X3674943Y-9972079D02*
X3684467Y-9953031D01*
X3684467Y-9953031D02*
X3693991Y-9943508D01*
X3693991Y-9943508D02*
X3713039Y-9933984D01*
X3865420Y-10133984D02*
X3865420Y-10000650D01*
X3865420Y-10019698D02*
X3874943Y-10010174D01*
X3874943Y-10010174D02*
X3893991Y-10000650D01*
X3893991Y-10000650D02*
X3922563Y-10000650D01*
X3922563Y-10000650D02*
X3941610Y-10010174D01*
X3941610Y-10010174D02*
X3951134Y-10029222D01*
X3951134Y-10029222D02*
X3951134Y-10133984D01*
X3951134Y-10029222D02*
X3960658Y-10010174D01*
X3960658Y-10010174D02*
X3979705Y-10000650D01*
X3979705Y-10000650D02*
X4008277Y-10000650D01*
X4008277Y-10000650D02*
X4027324Y-10010174D01*
X4027324Y-10010174D02*
X4036848Y-10029222D01*
X4036848Y-10029222D02*
X4036848Y-10133984D01*
X4132086Y-10133984D02*
X4132086Y-10000650D01*
X4132086Y-10019698D02*
X4141610Y-10010174D01*
X4141610Y-10010174D02*
X4160658Y-10000650D01*
X4160658Y-10000650D02*
X4189229Y-10000650D01*
X4189229Y-10000650D02*
X4208277Y-10010174D01*
X4208277Y-10010174D02*
X4217801Y-10029222D01*
X4217801Y-10029222D02*
X4217801Y-10133984D01*
X4217801Y-10029222D02*
X4227325Y-10010174D01*
X4227325Y-10010174D02*
X4246372Y-10000650D01*
X4246372Y-10000650D02*
X4274944Y-10000650D01*
X4274944Y-10000650D02*
X4293991Y-10010174D01*
X4293991Y-10010174D02*
X4303515Y-10029222D01*
X4303515Y-10029222D02*
X4303515Y-10133984D01*
X4693991Y-9924460D02*
X4522563Y-10181603D01*
X4951134Y-9933984D02*
X4970182Y-9933984D01*
X4970182Y-9933984D02*
X4989229Y-9943508D01*
X4989229Y-9943508D02*
X4998753Y-9953031D01*
X4998753Y-9953031D02*
X5008277Y-9972079D01*
X5008277Y-9972079D02*
X5017801Y-10010174D01*
X5017801Y-10010174D02*
X5017801Y-10057793D01*
X5017801Y-10057793D02*
X5008277Y-10095889D01*
X5008277Y-10095889D02*
X4998753Y-10114936D01*
X4998753Y-10114936D02*
X4989229Y-10124460D01*
X4989229Y-10124460D02*
X4970182Y-10133984D01*
X4970182Y-10133984D02*
X4951134Y-10133984D01*
X4951134Y-10133984D02*
X4932087Y-10124460D01*
X4932087Y-10124460D02*
X4922563Y-10114936D01*
X4922563Y-10114936D02*
X4913039Y-10095889D01*
X4913039Y-10095889D02*
X4903515Y-10057793D01*
X4903515Y-10057793D02*
X4903515Y-10010174D01*
X4903515Y-10010174D02*
X4913039Y-9972079D01*
X4913039Y-9972079D02*
X4922563Y-9953031D01*
X4922563Y-9953031D02*
X4932087Y-9943508D01*
X4932087Y-9943508D02*
X4951134Y-9933984D01*
X5103515Y-10114936D02*
X5113039Y-10124460D01*
X5113039Y-10124460D02*
X5103515Y-10133984D01*
X5103515Y-10133984D02*
X5093991Y-10124460D01*
X5093991Y-10124460D02*
X5103515Y-10114936D01*
X5103515Y-10114936D02*
X5103515Y-10133984D01*
X5303515Y-10133984D02*
X5189229Y-10133984D01*
X5246372Y-10133984D02*
X5246372Y-9933984D01*
X5246372Y-9933984D02*
X5227325Y-9962555D01*
X5227325Y-9962555D02*
X5208277Y-9981603D01*
X5208277Y-9981603D02*
X5189229Y-9991127D01*
X5493991Y-10133984D02*
X5379706Y-10133984D01*
X5436848Y-10133984D02*
X5436848Y-9933984D01*
X5436848Y-9933984D02*
X5417801Y-9962555D01*
X5417801Y-9962555D02*
X5398753Y-9981603D01*
X5398753Y-9981603D02*
X5379706Y-9991127D01*
X5608277Y-10019698D02*
X5589229Y-10010174D01*
X5589229Y-10010174D02*
X5579706Y-10000650D01*
X5579706Y-10000650D02*
X5570182Y-9981603D01*
X5570182Y-9981603D02*
X5570182Y-9972079D01*
X5570182Y-9972079D02*
X5579706Y-9953031D01*
X5579706Y-9953031D02*
X5589229Y-9943508D01*
X5589229Y-9943508D02*
X5608277Y-9933984D01*
X5608277Y-9933984D02*
X5646372Y-9933984D01*
X5646372Y-9933984D02*
X5665420Y-9943508D01*
X5665420Y-9943508D02*
X5674944Y-9953031D01*
X5674944Y-9953031D02*
X5684467Y-9972079D01*
X5684467Y-9972079D02*
X5684467Y-9981603D01*
X5684467Y-9981603D02*
X5674944Y-10000650D01*
X5674944Y-10000650D02*
X5665420Y-10010174D01*
X5665420Y-10010174D02*
X5646372Y-10019698D01*
X5646372Y-10019698D02*
X5608277Y-10019698D01*
X5608277Y-10019698D02*
X5589229Y-10029222D01*
X5589229Y-10029222D02*
X5579706Y-10038746D01*
X5579706Y-10038746D02*
X5570182Y-10057793D01*
X5570182Y-10057793D02*
X5570182Y-10095889D01*
X5570182Y-10095889D02*
X5579706Y-10114936D01*
X5579706Y-10114936D02*
X5589229Y-10124460D01*
X5589229Y-10124460D02*
X5608277Y-10133984D01*
X5608277Y-10133984D02*
X5646372Y-10133984D01*
X5646372Y-10133984D02*
X5665420Y-10124460D01*
X5665420Y-10124460D02*
X5674944Y-10114936D01*
X5674944Y-10114936D02*
X5684467Y-10095889D01*
X5684467Y-10095889D02*
X5684467Y-10057793D01*
X5684467Y-10057793D02*
X5674944Y-10038746D01*
X5674944Y-10038746D02*
X5665420Y-10029222D01*
X5665420Y-10029222D02*
X5646372Y-10019698D01*
X5874944Y-10133984D02*
X5760658Y-10133984D01*
X5817801Y-10133984D02*
X5817801Y-9933984D01*
X5817801Y-9933984D02*
X5798753Y-9962555D01*
X5798753Y-9962555D02*
X5779706Y-9981603D01*
X5779706Y-9981603D02*
X5760658Y-9991127D01*
X5951134Y-9933984D02*
X5951134Y-9972079D01*
X6027325Y-9933984D02*
X6027325Y-9972079D01*
X6322563Y-10210174D02*
X6313039Y-10200650D01*
X6313039Y-10200650D02*
X6293991Y-10172079D01*
X6293991Y-10172079D02*
X6284468Y-10153031D01*
X6284468Y-10153031D02*
X6274944Y-10124460D01*
X6274944Y-10124460D02*
X6265420Y-10076841D01*
X6265420Y-10076841D02*
X6265420Y-10038746D01*
X6265420Y-10038746D02*
X6274944Y-9991127D01*
X6274944Y-9991127D02*
X6284468Y-9962555D01*
X6284468Y-9962555D02*
X6293991Y-9943508D01*
X6293991Y-9943508D02*
X6313039Y-9914936D01*
X6313039Y-9914936D02*
X6322563Y-9905412D01*
X6379706Y-9933984D02*
X6513039Y-9933984D01*
X6513039Y-9933984D02*
X6427325Y-10133984D01*
X6579706Y-9953031D02*
X6589229Y-9943508D01*
X6589229Y-9943508D02*
X6608277Y-9933984D01*
X6608277Y-9933984D02*
X6655896Y-9933984D01*
X6655896Y-9933984D02*
X6674944Y-9943508D01*
X6674944Y-9943508D02*
X6684468Y-9953031D01*
X6684468Y-9953031D02*
X6693991Y-9972079D01*
X6693991Y-9972079D02*
X6693991Y-9991127D01*
X6693991Y-9991127D02*
X6684468Y-10019698D01*
X6684468Y-10019698D02*
X6570182Y-10133984D01*
X6570182Y-10133984D02*
X6693991Y-10133984D01*
X6932087Y-10133984D02*
X6932087Y-9933984D01*
X7017801Y-10133984D02*
X7017801Y-10029222D01*
X7017801Y-10029222D02*
X7008277Y-10010174D01*
X7008277Y-10010174D02*
X6989230Y-10000650D01*
X6989230Y-10000650D02*
X6960658Y-10000650D01*
X6960658Y-10000650D02*
X6941610Y-10010174D01*
X6941610Y-10010174D02*
X6932087Y-10019698D01*
X7141610Y-10133984D02*
X7122563Y-10124460D01*
X7122563Y-10124460D02*
X7113039Y-10114936D01*
X7113039Y-10114936D02*
X7103515Y-10095889D01*
X7103515Y-10095889D02*
X7103515Y-10038746D01*
X7103515Y-10038746D02*
X7113039Y-10019698D01*
X7113039Y-10019698D02*
X7122563Y-10010174D01*
X7122563Y-10010174D02*
X7141610Y-10000650D01*
X7141610Y-10000650D02*
X7170182Y-10000650D01*
X7170182Y-10000650D02*
X7189230Y-10010174D01*
X7189230Y-10010174D02*
X7198753Y-10019698D01*
X7198753Y-10019698D02*
X7208277Y-10038746D01*
X7208277Y-10038746D02*
X7208277Y-10095889D01*
X7208277Y-10095889D02*
X7198753Y-10114936D01*
X7198753Y-10114936D02*
X7189230Y-10124460D01*
X7189230Y-10124460D02*
X7170182Y-10133984D01*
X7170182Y-10133984D02*
X7141610Y-10133984D01*
X7322563Y-10133984D02*
X7303515Y-10124460D01*
X7303515Y-10124460D02*
X7293991Y-10105412D01*
X7293991Y-10105412D02*
X7293991Y-9933984D01*
X7474944Y-10124460D02*
X7455896Y-10133984D01*
X7455896Y-10133984D02*
X7417801Y-10133984D01*
X7417801Y-10133984D02*
X7398753Y-10124460D01*
X7398753Y-10124460D02*
X7389230Y-10105412D01*
X7389230Y-10105412D02*
X7389230Y-10029222D01*
X7389230Y-10029222D02*
X7398753Y-10010174D01*
X7398753Y-10010174D02*
X7417801Y-10000650D01*
X7417801Y-10000650D02*
X7455896Y-10000650D01*
X7455896Y-10000650D02*
X7474944Y-10010174D01*
X7474944Y-10010174D02*
X7484468Y-10029222D01*
X7484468Y-10029222D02*
X7484468Y-10048270D01*
X7484468Y-10048270D02*
X7389230Y-10067317D01*
X7560658Y-10124460D02*
X7579706Y-10133984D01*
X7579706Y-10133984D02*
X7617801Y-10133984D01*
X7617801Y-10133984D02*
X7636849Y-10124460D01*
X7636849Y-10124460D02*
X7646372Y-10105412D01*
X7646372Y-10105412D02*
X7646372Y-10095889D01*
X7646372Y-10095889D02*
X7636849Y-10076841D01*
X7636849Y-10076841D02*
X7617801Y-10067317D01*
X7617801Y-10067317D02*
X7589230Y-10067317D01*
X7589230Y-10067317D02*
X7570182Y-10057793D01*
X7570182Y-10057793D02*
X7560658Y-10038746D01*
X7560658Y-10038746D02*
X7560658Y-10029222D01*
X7560658Y-10029222D02*
X7570182Y-10010174D01*
X7570182Y-10010174D02*
X7589230Y-10000650D01*
X7589230Y-10000650D02*
X7617801Y-10000650D01*
X7617801Y-10000650D02*
X7636849Y-10010174D01*
X7713039Y-10210174D02*
X7722563Y-10200650D01*
X7722563Y-10200650D02*
X7741611Y-10172079D01*
X7741611Y-10172079D02*
X7751134Y-10153031D01*
X7751134Y-10153031D02*
X7760658Y-10124460D01*
X7760658Y-10124460D02*
X7770182Y-10076841D01*
X7770182Y-10076841D02*
X7770182Y-10038746D01*
X7770182Y-10038746D02*
X7760658Y-9991127D01*
X7760658Y-9991127D02*
X7751134Y-9962555D01*
X7751134Y-9962555D02*
X7741611Y-9943508D01*
X7741611Y-9943508D02*
X7722563Y-9914936D01*
X7722563Y-9914936D02*
X7713039Y-9905412D01*
X8074944Y-10210174D02*
X8065420Y-10200650D01*
X8065420Y-10200650D02*
X8046372Y-10172079D01*
X8046372Y-10172079D02*
X8036849Y-10153031D01*
X8036849Y-10153031D02*
X8027325Y-10124460D01*
X8027325Y-10124460D02*
X8017801Y-10076841D01*
X8017801Y-10076841D02*
X8017801Y-10038746D01*
X8017801Y-10038746D02*
X8027325Y-9991127D01*
X8027325Y-9991127D02*
X8036849Y-9962555D01*
X8036849Y-9962555D02*
X8046372Y-9943508D01*
X8046372Y-9943508D02*
X8065420Y-9914936D01*
X8065420Y-9914936D02*
X8074944Y-9905412D01*
X8151134Y-10000650D02*
X8151134Y-10133984D01*
X8151134Y-10019698D02*
X8160658Y-10010174D01*
X8160658Y-10010174D02*
X8179706Y-10000650D01*
X8179706Y-10000650D02*
X8208277Y-10000650D01*
X8208277Y-10000650D02*
X8227325Y-10010174D01*
X8227325Y-10010174D02*
X8236849Y-10029222D01*
X8236849Y-10029222D02*
X8236849Y-10133984D01*
X8360658Y-10133984D02*
X8341611Y-10124460D01*
X8341611Y-10124460D02*
X8332087Y-10114936D01*
X8332087Y-10114936D02*
X8322563Y-10095889D01*
X8322563Y-10095889D02*
X8322563Y-10038746D01*
X8322563Y-10038746D02*
X8332087Y-10019698D01*
X8332087Y-10019698D02*
X8341611Y-10010174D01*
X8341611Y-10010174D02*
X8360658Y-10000650D01*
X8360658Y-10000650D02*
X8389230Y-10000650D01*
X8389230Y-10000650D02*
X8408277Y-10010174D01*
X8408277Y-10010174D02*
X8417801Y-10019698D01*
X8417801Y-10019698D02*
X8427325Y-10038746D01*
X8427325Y-10038746D02*
X8427325Y-10095889D01*
X8427325Y-10095889D02*
X8417801Y-10114936D01*
X8417801Y-10114936D02*
X8408277Y-10124460D01*
X8408277Y-10124460D02*
X8389230Y-10133984D01*
X8389230Y-10133984D02*
X8360658Y-10133984D01*
X8484468Y-10000650D02*
X8560658Y-10000650D01*
X8513039Y-9933984D02*
X8513039Y-10105412D01*
X8513039Y-10105412D02*
X8522563Y-10124460D01*
X8522563Y-10124460D02*
X8541611Y-10133984D01*
X8541611Y-10133984D02*
X8560658Y-10133984D01*
X8779706Y-10000650D02*
X8779706Y-10200650D01*
X8779706Y-10010174D02*
X8798754Y-10000650D01*
X8798754Y-10000650D02*
X8836849Y-10000650D01*
X8836849Y-10000650D02*
X8855896Y-10010174D01*
X8855896Y-10010174D02*
X8865420Y-10019698D01*
X8865420Y-10019698D02*
X8874944Y-10038746D01*
X8874944Y-10038746D02*
X8874944Y-10095889D01*
X8874944Y-10095889D02*
X8865420Y-10114936D01*
X8865420Y-10114936D02*
X8855896Y-10124460D01*
X8855896Y-10124460D02*
X8836849Y-10133984D01*
X8836849Y-10133984D02*
X8798754Y-10133984D01*
X8798754Y-10133984D02*
X8779706Y-10124460D01*
X8989230Y-10133984D02*
X8970182Y-10124460D01*
X8970182Y-10124460D02*
X8960658Y-10105412D01*
X8960658Y-10105412D02*
X8960658Y-9933984D01*
X9151135Y-10133984D02*
X9151135Y-10029222D01*
X9151135Y-10029222D02*
X9141611Y-10010174D01*
X9141611Y-10010174D02*
X9122563Y-10000650D01*
X9122563Y-10000650D02*
X9084468Y-10000650D01*
X9084468Y-10000650D02*
X9065420Y-10010174D01*
X9151135Y-10124460D02*
X9132087Y-10133984D01*
X9132087Y-10133984D02*
X9084468Y-10133984D01*
X9084468Y-10133984D02*
X9065420Y-10124460D01*
X9065420Y-10124460D02*
X9055896Y-10105412D01*
X9055896Y-10105412D02*
X9055896Y-10086365D01*
X9055896Y-10086365D02*
X9065420Y-10067317D01*
X9065420Y-10067317D02*
X9084468Y-10057793D01*
X9084468Y-10057793D02*
X9132087Y-10057793D01*
X9132087Y-10057793D02*
X9151135Y-10048270D01*
X9217801Y-10000650D02*
X9293992Y-10000650D01*
X9246373Y-9933984D02*
X9246373Y-10105412D01*
X9246373Y-10105412D02*
X9255896Y-10124460D01*
X9255896Y-10124460D02*
X9274944Y-10133984D01*
X9274944Y-10133984D02*
X9293992Y-10133984D01*
X9436849Y-10124460D02*
X9417801Y-10133984D01*
X9417801Y-10133984D02*
X9379706Y-10133984D01*
X9379706Y-10133984D02*
X9360658Y-10124460D01*
X9360658Y-10124460D02*
X9351135Y-10105412D01*
X9351135Y-10105412D02*
X9351135Y-10029222D01*
X9351135Y-10029222D02*
X9360658Y-10010174D01*
X9360658Y-10010174D02*
X9379706Y-10000650D01*
X9379706Y-10000650D02*
X9417801Y-10000650D01*
X9417801Y-10000650D02*
X9436849Y-10010174D01*
X9436849Y-10010174D02*
X9446373Y-10029222D01*
X9446373Y-10029222D02*
X9446373Y-10048270D01*
X9446373Y-10048270D02*
X9351135Y-10067317D01*
X9617801Y-10133984D02*
X9617801Y-9933984D01*
X9617801Y-10124460D02*
X9598754Y-10133984D01*
X9598754Y-10133984D02*
X9560658Y-10133984D01*
X9560658Y-10133984D02*
X9541611Y-10124460D01*
X9541611Y-10124460D02*
X9532087Y-10114936D01*
X9532087Y-10114936D02*
X9522563Y-10095889D01*
X9522563Y-10095889D02*
X9522563Y-10038746D01*
X9522563Y-10038746D02*
X9532087Y-10019698D01*
X9532087Y-10019698D02*
X9541611Y-10010174D01*
X9541611Y-10010174D02*
X9560658Y-10000650D01*
X9560658Y-10000650D02*
X9598754Y-10000650D01*
X9598754Y-10000650D02*
X9617801Y-10010174D01*
X9693992Y-10210174D02*
X9703516Y-10200650D01*
X9703516Y-10200650D02*
X9722563Y-10172079D01*
X9722563Y-10172079D02*
X9732087Y-10153031D01*
X9732087Y-10153031D02*
X9741611Y-10124460D01*
X9741611Y-10124460D02*
X9751135Y-10076841D01*
X9751135Y-10076841D02*
X9751135Y-10038746D01*
X9751135Y-10038746D02*
X9741611Y-9991127D01*
X9741611Y-9991127D02*
X9732087Y-9962555D01*
X9732087Y-9962555D02*
X9722563Y-9943508D01*
X9722563Y-9943508D02*
X9703516Y-9914936D01*
X9703516Y-9914936D02*
X9693992Y-9905412D01*
X2747500Y-10362500D02*
G75*
G02*
X2547500Y-10362500I-100000J0D01*
G01*
X2547500Y-10362500D02*
G75*
G02*
X2747500Y-10362500I100000J0D01*
G01*
X2989229Y-10253984D02*
X3113039Y-10253984D01*
X3113039Y-10253984D02*
X3046372Y-10330174D01*
X3046372Y-10330174D02*
X3074943Y-10330174D01*
X3074943Y-10330174D02*
X3093991Y-10339698D01*
X3093991Y-10339698D02*
X3103515Y-10349222D01*
X3103515Y-10349222D02*
X3113039Y-10368270D01*
X3113039Y-10368270D02*
X3113039Y-10415889D01*
X3113039Y-10415889D02*
X3103515Y-10434936D01*
X3103515Y-10434936D02*
X3093991Y-10444460D01*
X3093991Y-10444460D02*
X3074943Y-10453984D01*
X3074943Y-10453984D02*
X3017801Y-10453984D01*
X3017801Y-10453984D02*
X2998753Y-10444460D01*
X2998753Y-10444460D02*
X2989229Y-10434936D01*
X3198753Y-10434936D02*
X3208277Y-10444460D01*
X3208277Y-10444460D02*
X3198753Y-10453984D01*
X3198753Y-10453984D02*
X3189229Y-10444460D01*
X3189229Y-10444460D02*
X3198753Y-10434936D01*
X3198753Y-10434936D02*
X3198753Y-10453984D01*
X3284467Y-10273031D02*
X3293991Y-10263508D01*
X3293991Y-10263508D02*
X3313039Y-10253984D01*
X3313039Y-10253984D02*
X3360658Y-10253984D01*
X3360658Y-10253984D02*
X3379705Y-10263508D01*
X3379705Y-10263508D02*
X3389229Y-10273031D01*
X3389229Y-10273031D02*
X3398753Y-10292079D01*
X3398753Y-10292079D02*
X3398753Y-10311127D01*
X3398753Y-10311127D02*
X3389229Y-10339698D01*
X3389229Y-10339698D02*
X3274943Y-10453984D01*
X3274943Y-10453984D02*
X3398753Y-10453984D01*
X3522562Y-10253984D02*
X3541610Y-10253984D01*
X3541610Y-10253984D02*
X3560658Y-10263508D01*
X3560658Y-10263508D02*
X3570182Y-10273031D01*
X3570182Y-10273031D02*
X3579705Y-10292079D01*
X3579705Y-10292079D02*
X3589229Y-10330174D01*
X3589229Y-10330174D02*
X3589229Y-10377793D01*
X3589229Y-10377793D02*
X3579705Y-10415889D01*
X3579705Y-10415889D02*
X3570182Y-10434936D01*
X3570182Y-10434936D02*
X3560658Y-10444460D01*
X3560658Y-10444460D02*
X3541610Y-10453984D01*
X3541610Y-10453984D02*
X3522562Y-10453984D01*
X3522562Y-10453984D02*
X3503515Y-10444460D01*
X3503515Y-10444460D02*
X3493991Y-10434936D01*
X3493991Y-10434936D02*
X3484467Y-10415889D01*
X3484467Y-10415889D02*
X3474943Y-10377793D01*
X3474943Y-10377793D02*
X3474943Y-10330174D01*
X3474943Y-10330174D02*
X3484467Y-10292079D01*
X3484467Y-10292079D02*
X3493991Y-10273031D01*
X3493991Y-10273031D02*
X3503515Y-10263508D01*
X3503515Y-10263508D02*
X3522562Y-10253984D01*
X3713039Y-10253984D02*
X3732086Y-10253984D01*
X3732086Y-10253984D02*
X3751134Y-10263508D01*
X3751134Y-10263508D02*
X3760658Y-10273031D01*
X3760658Y-10273031D02*
X3770182Y-10292079D01*
X3770182Y-10292079D02*
X3779705Y-10330174D01*
X3779705Y-10330174D02*
X3779705Y-10377793D01*
X3779705Y-10377793D02*
X3770182Y-10415889D01*
X3770182Y-10415889D02*
X3760658Y-10434936D01*
X3760658Y-10434936D02*
X3751134Y-10444460D01*
X3751134Y-10444460D02*
X3732086Y-10453984D01*
X3732086Y-10453984D02*
X3713039Y-10453984D01*
X3713039Y-10453984D02*
X3693991Y-10444460D01*
X3693991Y-10444460D02*
X3684467Y-10434936D01*
X3684467Y-10434936D02*
X3674943Y-10415889D01*
X3674943Y-10415889D02*
X3665420Y-10377793D01*
X3665420Y-10377793D02*
X3665420Y-10330174D01*
X3665420Y-10330174D02*
X3674943Y-10292079D01*
X3674943Y-10292079D02*
X3684467Y-10273031D01*
X3684467Y-10273031D02*
X3693991Y-10263508D01*
X3693991Y-10263508D02*
X3713039Y-10253984D01*
X3865420Y-10453984D02*
X3865420Y-10320650D01*
X3865420Y-10339698D02*
X3874943Y-10330174D01*
X3874943Y-10330174D02*
X3893991Y-10320650D01*
X3893991Y-10320650D02*
X3922563Y-10320650D01*
X3922563Y-10320650D02*
X3941610Y-10330174D01*
X3941610Y-10330174D02*
X3951134Y-10349222D01*
X3951134Y-10349222D02*
X3951134Y-10453984D01*
X3951134Y-10349222D02*
X3960658Y-10330174D01*
X3960658Y-10330174D02*
X3979705Y-10320650D01*
X3979705Y-10320650D02*
X4008277Y-10320650D01*
X4008277Y-10320650D02*
X4027324Y-10330174D01*
X4027324Y-10330174D02*
X4036848Y-10349222D01*
X4036848Y-10349222D02*
X4036848Y-10453984D01*
X4132086Y-10453984D02*
X4132086Y-10320650D01*
X4132086Y-10339698D02*
X4141610Y-10330174D01*
X4141610Y-10330174D02*
X4160658Y-10320650D01*
X4160658Y-10320650D02*
X4189229Y-10320650D01*
X4189229Y-10320650D02*
X4208277Y-10330174D01*
X4208277Y-10330174D02*
X4217801Y-10349222D01*
X4217801Y-10349222D02*
X4217801Y-10453984D01*
X4217801Y-10349222D02*
X4227325Y-10330174D01*
X4227325Y-10330174D02*
X4246372Y-10320650D01*
X4246372Y-10320650D02*
X4274944Y-10320650D01*
X4274944Y-10320650D02*
X4293991Y-10330174D01*
X4293991Y-10330174D02*
X4303515Y-10349222D01*
X4303515Y-10349222D02*
X4303515Y-10453984D01*
X4693991Y-10244460D02*
X4522563Y-10501603D01*
X4951134Y-10253984D02*
X4970182Y-10253984D01*
X4970182Y-10253984D02*
X4989229Y-10263508D01*
X4989229Y-10263508D02*
X4998753Y-10273031D01*
X4998753Y-10273031D02*
X5008277Y-10292079D01*
X5008277Y-10292079D02*
X5017801Y-10330174D01*
X5017801Y-10330174D02*
X5017801Y-10377793D01*
X5017801Y-10377793D02*
X5008277Y-10415889D01*
X5008277Y-10415889D02*
X4998753Y-10434936D01*
X4998753Y-10434936D02*
X4989229Y-10444460D01*
X4989229Y-10444460D02*
X4970182Y-10453984D01*
X4970182Y-10453984D02*
X4951134Y-10453984D01*
X4951134Y-10453984D02*
X4932087Y-10444460D01*
X4932087Y-10444460D02*
X4922563Y-10434936D01*
X4922563Y-10434936D02*
X4913039Y-10415889D01*
X4913039Y-10415889D02*
X4903515Y-10377793D01*
X4903515Y-10377793D02*
X4903515Y-10330174D01*
X4903515Y-10330174D02*
X4913039Y-10292079D01*
X4913039Y-10292079D02*
X4922563Y-10273031D01*
X4922563Y-10273031D02*
X4932087Y-10263508D01*
X4932087Y-10263508D02*
X4951134Y-10253984D01*
X5103515Y-10434936D02*
X5113039Y-10444460D01*
X5113039Y-10444460D02*
X5103515Y-10453984D01*
X5103515Y-10453984D02*
X5093991Y-10444460D01*
X5093991Y-10444460D02*
X5103515Y-10434936D01*
X5103515Y-10434936D02*
X5103515Y-10453984D01*
X5303515Y-10453984D02*
X5189229Y-10453984D01*
X5246372Y-10453984D02*
X5246372Y-10253984D01*
X5246372Y-10253984D02*
X5227325Y-10282555D01*
X5227325Y-10282555D02*
X5208277Y-10301603D01*
X5208277Y-10301603D02*
X5189229Y-10311127D01*
X5379706Y-10273031D02*
X5389229Y-10263508D01*
X5389229Y-10263508D02*
X5408277Y-10253984D01*
X5408277Y-10253984D02*
X5455896Y-10253984D01*
X5455896Y-10253984D02*
X5474944Y-10263508D01*
X5474944Y-10263508D02*
X5484468Y-10273031D01*
X5484468Y-10273031D02*
X5493991Y-10292079D01*
X5493991Y-10292079D02*
X5493991Y-10311127D01*
X5493991Y-10311127D02*
X5484468Y-10339698D01*
X5484468Y-10339698D02*
X5370182Y-10453984D01*
X5370182Y-10453984D02*
X5493991Y-10453984D01*
X5665420Y-10253984D02*
X5627325Y-10253984D01*
X5627325Y-10253984D02*
X5608277Y-10263508D01*
X5608277Y-10263508D02*
X5598753Y-10273031D01*
X5598753Y-10273031D02*
X5579706Y-10301603D01*
X5579706Y-10301603D02*
X5570182Y-10339698D01*
X5570182Y-10339698D02*
X5570182Y-10415889D01*
X5570182Y-10415889D02*
X5579706Y-10434936D01*
X5579706Y-10434936D02*
X5589229Y-10444460D01*
X5589229Y-10444460D02*
X5608277Y-10453984D01*
X5608277Y-10453984D02*
X5646372Y-10453984D01*
X5646372Y-10453984D02*
X5665420Y-10444460D01*
X5665420Y-10444460D02*
X5674944Y-10434936D01*
X5674944Y-10434936D02*
X5684467Y-10415889D01*
X5684467Y-10415889D02*
X5684467Y-10368270D01*
X5684467Y-10368270D02*
X5674944Y-10349222D01*
X5674944Y-10349222D02*
X5665420Y-10339698D01*
X5665420Y-10339698D02*
X5646372Y-10330174D01*
X5646372Y-10330174D02*
X5608277Y-10330174D01*
X5608277Y-10330174D02*
X5589229Y-10339698D01*
X5589229Y-10339698D02*
X5579706Y-10349222D01*
X5579706Y-10349222D02*
X5570182Y-10368270D01*
X5808277Y-10253984D02*
X5827325Y-10253984D01*
X5827325Y-10253984D02*
X5846372Y-10263508D01*
X5846372Y-10263508D02*
X5855896Y-10273031D01*
X5855896Y-10273031D02*
X5865420Y-10292079D01*
X5865420Y-10292079D02*
X5874944Y-10330174D01*
X5874944Y-10330174D02*
X5874944Y-10377793D01*
X5874944Y-10377793D02*
X5865420Y-10415889D01*
X5865420Y-10415889D02*
X5855896Y-10434936D01*
X5855896Y-10434936D02*
X5846372Y-10444460D01*
X5846372Y-10444460D02*
X5827325Y-10453984D01*
X5827325Y-10453984D02*
X5808277Y-10453984D01*
X5808277Y-10453984D02*
X5789229Y-10444460D01*
X5789229Y-10444460D02*
X5779706Y-10434936D01*
X5779706Y-10434936D02*
X5770182Y-10415889D01*
X5770182Y-10415889D02*
X5760658Y-10377793D01*
X5760658Y-10377793D02*
X5760658Y-10330174D01*
X5760658Y-10330174D02*
X5770182Y-10292079D01*
X5770182Y-10292079D02*
X5779706Y-10273031D01*
X5779706Y-10273031D02*
X5789229Y-10263508D01*
X5789229Y-10263508D02*
X5808277Y-10253984D01*
X5951134Y-10253984D02*
X5951134Y-10292079D01*
X6027325Y-10253984D02*
X6027325Y-10292079D01*
X6322563Y-10530174D02*
X6313039Y-10520650D01*
X6313039Y-10520650D02*
X6293991Y-10492079D01*
X6293991Y-10492079D02*
X6284468Y-10473031D01*
X6284468Y-10473031D02*
X6274944Y-10444460D01*
X6274944Y-10444460D02*
X6265420Y-10396841D01*
X6265420Y-10396841D02*
X6265420Y-10358746D01*
X6265420Y-10358746D02*
X6274944Y-10311127D01*
X6274944Y-10311127D02*
X6284468Y-10282555D01*
X6284468Y-10282555D02*
X6293991Y-10263508D01*
X6293991Y-10263508D02*
X6313039Y-10234936D01*
X6313039Y-10234936D02*
X6322563Y-10225412D01*
X6484468Y-10253984D02*
X6446372Y-10253984D01*
X6446372Y-10253984D02*
X6427325Y-10263508D01*
X6427325Y-10263508D02*
X6417801Y-10273031D01*
X6417801Y-10273031D02*
X6398753Y-10301603D01*
X6398753Y-10301603D02*
X6389229Y-10339698D01*
X6389229Y-10339698D02*
X6389229Y-10415889D01*
X6389229Y-10415889D02*
X6398753Y-10434936D01*
X6398753Y-10434936D02*
X6408277Y-10444460D01*
X6408277Y-10444460D02*
X6427325Y-10453984D01*
X6427325Y-10453984D02*
X6465420Y-10453984D01*
X6465420Y-10453984D02*
X6484468Y-10444460D01*
X6484468Y-10444460D02*
X6493991Y-10434936D01*
X6493991Y-10434936D02*
X6503515Y-10415889D01*
X6503515Y-10415889D02*
X6503515Y-10368270D01*
X6503515Y-10368270D02*
X6493991Y-10349222D01*
X6493991Y-10349222D02*
X6484468Y-10339698D01*
X6484468Y-10339698D02*
X6465420Y-10330174D01*
X6465420Y-10330174D02*
X6427325Y-10330174D01*
X6427325Y-10330174D02*
X6408277Y-10339698D01*
X6408277Y-10339698D02*
X6398753Y-10349222D01*
X6398753Y-10349222D02*
X6389229Y-10368270D01*
X6741610Y-10453984D02*
X6741610Y-10253984D01*
X6827325Y-10453984D02*
X6827325Y-10349222D01*
X6827325Y-10349222D02*
X6817801Y-10330174D01*
X6817801Y-10330174D02*
X6798753Y-10320650D01*
X6798753Y-10320650D02*
X6770182Y-10320650D01*
X6770182Y-10320650D02*
X6751134Y-10330174D01*
X6751134Y-10330174D02*
X6741610Y-10339698D01*
X6951134Y-10453984D02*
X6932087Y-10444460D01*
X6932087Y-10444460D02*
X6922563Y-10434936D01*
X6922563Y-10434936D02*
X6913039Y-10415889D01*
X6913039Y-10415889D02*
X6913039Y-10358746D01*
X6913039Y-10358746D02*
X6922563Y-10339698D01*
X6922563Y-10339698D02*
X6932087Y-10330174D01*
X6932087Y-10330174D02*
X6951134Y-10320650D01*
X6951134Y-10320650D02*
X6979706Y-10320650D01*
X6979706Y-10320650D02*
X6998753Y-10330174D01*
X6998753Y-10330174D02*
X7008277Y-10339698D01*
X7008277Y-10339698D02*
X7017801Y-10358746D01*
X7017801Y-10358746D02*
X7017801Y-10415889D01*
X7017801Y-10415889D02*
X7008277Y-10434936D01*
X7008277Y-10434936D02*
X6998753Y-10444460D01*
X6998753Y-10444460D02*
X6979706Y-10453984D01*
X6979706Y-10453984D02*
X6951134Y-10453984D01*
X7132087Y-10453984D02*
X7113039Y-10444460D01*
X7113039Y-10444460D02*
X7103515Y-10425412D01*
X7103515Y-10425412D02*
X7103515Y-10253984D01*
X7284468Y-10444460D02*
X7265420Y-10453984D01*
X7265420Y-10453984D02*
X7227325Y-10453984D01*
X7227325Y-10453984D02*
X7208277Y-10444460D01*
X7208277Y-10444460D02*
X7198753Y-10425412D01*
X7198753Y-10425412D02*
X7198753Y-10349222D01*
X7198753Y-10349222D02*
X7208277Y-10330174D01*
X7208277Y-10330174D02*
X7227325Y-10320650D01*
X7227325Y-10320650D02*
X7265420Y-10320650D01*
X7265420Y-10320650D02*
X7284468Y-10330174D01*
X7284468Y-10330174D02*
X7293991Y-10349222D01*
X7293991Y-10349222D02*
X7293991Y-10368270D01*
X7293991Y-10368270D02*
X7198753Y-10387317D01*
X7370182Y-10444460D02*
X7389230Y-10453984D01*
X7389230Y-10453984D02*
X7427325Y-10453984D01*
X7427325Y-10453984D02*
X7446372Y-10444460D01*
X7446372Y-10444460D02*
X7455896Y-10425412D01*
X7455896Y-10425412D02*
X7455896Y-10415889D01*
X7455896Y-10415889D02*
X7446372Y-10396841D01*
X7446372Y-10396841D02*
X7427325Y-10387317D01*
X7427325Y-10387317D02*
X7398753Y-10387317D01*
X7398753Y-10387317D02*
X7379706Y-10377793D01*
X7379706Y-10377793D02*
X7370182Y-10358746D01*
X7370182Y-10358746D02*
X7370182Y-10349222D01*
X7370182Y-10349222D02*
X7379706Y-10330174D01*
X7379706Y-10330174D02*
X7398753Y-10320650D01*
X7398753Y-10320650D02*
X7427325Y-10320650D01*
X7427325Y-10320650D02*
X7446372Y-10330174D01*
X7522563Y-10530174D02*
X7532087Y-10520650D01*
X7532087Y-10520650D02*
X7551134Y-10492079D01*
X7551134Y-10492079D02*
X7560658Y-10473031D01*
X7560658Y-10473031D02*
X7570182Y-10444460D01*
X7570182Y-10444460D02*
X7579706Y-10396841D01*
X7579706Y-10396841D02*
X7579706Y-10358746D01*
X7579706Y-10358746D02*
X7570182Y-10311127D01*
X7570182Y-10311127D02*
X7560658Y-10282555D01*
X7560658Y-10282555D02*
X7551134Y-10263508D01*
X7551134Y-10263508D02*
X7532087Y-10234936D01*
X7532087Y-10234936D02*
X7522563Y-10225412D01*
X7884468Y-10530174D02*
X7874944Y-10520650D01*
X7874944Y-10520650D02*
X7855896Y-10492079D01*
X7855896Y-10492079D02*
X7846372Y-10473031D01*
X7846372Y-10473031D02*
X7836849Y-10444460D01*
X7836849Y-10444460D02*
X7827325Y-10396841D01*
X7827325Y-10396841D02*
X7827325Y-10358746D01*
X7827325Y-10358746D02*
X7836849Y-10311127D01*
X7836849Y-10311127D02*
X7846372Y-10282555D01*
X7846372Y-10282555D02*
X7855896Y-10263508D01*
X7855896Y-10263508D02*
X7874944Y-10234936D01*
X7874944Y-10234936D02*
X7884468Y-10225412D01*
X7960658Y-10320650D02*
X7960658Y-10453984D01*
X7960658Y-10339698D02*
X7970182Y-10330174D01*
X7970182Y-10330174D02*
X7989230Y-10320650D01*
X7989230Y-10320650D02*
X8017801Y-10320650D01*
X8017801Y-10320650D02*
X8036849Y-10330174D01*
X8036849Y-10330174D02*
X8046372Y-10349222D01*
X8046372Y-10349222D02*
X8046372Y-10453984D01*
X8170182Y-10453984D02*
X8151134Y-10444460D01*
X8151134Y-10444460D02*
X8141611Y-10434936D01*
X8141611Y-10434936D02*
X8132087Y-10415889D01*
X8132087Y-10415889D02*
X8132087Y-10358746D01*
X8132087Y-10358746D02*
X8141611Y-10339698D01*
X8141611Y-10339698D02*
X8151134Y-10330174D01*
X8151134Y-10330174D02*
X8170182Y-10320650D01*
X8170182Y-10320650D02*
X8198753Y-10320650D01*
X8198753Y-10320650D02*
X8217801Y-10330174D01*
X8217801Y-10330174D02*
X8227325Y-10339698D01*
X8227325Y-10339698D02*
X8236849Y-10358746D01*
X8236849Y-10358746D02*
X8236849Y-10415889D01*
X8236849Y-10415889D02*
X8227325Y-10434936D01*
X8227325Y-10434936D02*
X8217801Y-10444460D01*
X8217801Y-10444460D02*
X8198753Y-10453984D01*
X8198753Y-10453984D02*
X8170182Y-10453984D01*
X8293992Y-10320650D02*
X8370182Y-10320650D01*
X8322563Y-10253984D02*
X8322563Y-10425412D01*
X8322563Y-10425412D02*
X8332087Y-10444460D01*
X8332087Y-10444460D02*
X8351134Y-10453984D01*
X8351134Y-10453984D02*
X8370182Y-10453984D01*
X8589230Y-10320650D02*
X8589230Y-10520650D01*
X8589230Y-10330174D02*
X8608277Y-10320650D01*
X8608277Y-10320650D02*
X8646373Y-10320650D01*
X8646373Y-10320650D02*
X8665420Y-10330174D01*
X8665420Y-10330174D02*
X8674944Y-10339698D01*
X8674944Y-10339698D02*
X8684468Y-10358746D01*
X8684468Y-10358746D02*
X8684468Y-10415889D01*
X8684468Y-10415889D02*
X8674944Y-10434936D01*
X8674944Y-10434936D02*
X8665420Y-10444460D01*
X8665420Y-10444460D02*
X8646373Y-10453984D01*
X8646373Y-10453984D02*
X8608277Y-10453984D01*
X8608277Y-10453984D02*
X8589230Y-10444460D01*
X8798754Y-10453984D02*
X8779706Y-10444460D01*
X8779706Y-10444460D02*
X8770182Y-10425412D01*
X8770182Y-10425412D02*
X8770182Y-10253984D01*
X8960658Y-10453984D02*
X8960658Y-10349222D01*
X8960658Y-10349222D02*
X8951135Y-10330174D01*
X8951135Y-10330174D02*
X8932087Y-10320650D01*
X8932087Y-10320650D02*
X8893992Y-10320650D01*
X8893992Y-10320650D02*
X8874944Y-10330174D01*
X8960658Y-10444460D02*
X8941611Y-10453984D01*
X8941611Y-10453984D02*
X8893992Y-10453984D01*
X8893992Y-10453984D02*
X8874944Y-10444460D01*
X8874944Y-10444460D02*
X8865420Y-10425412D01*
X8865420Y-10425412D02*
X8865420Y-10406365D01*
X8865420Y-10406365D02*
X8874944Y-10387317D01*
X8874944Y-10387317D02*
X8893992Y-10377793D01*
X8893992Y-10377793D02*
X8941611Y-10377793D01*
X8941611Y-10377793D02*
X8960658Y-10368270D01*
X9027325Y-10320650D02*
X9103515Y-10320650D01*
X9055896Y-10253984D02*
X9055896Y-10425412D01*
X9055896Y-10425412D02*
X9065420Y-10444460D01*
X9065420Y-10444460D02*
X9084468Y-10453984D01*
X9084468Y-10453984D02*
X9103515Y-10453984D01*
X9246373Y-10444460D02*
X9227325Y-10453984D01*
X9227325Y-10453984D02*
X9189230Y-10453984D01*
X9189230Y-10453984D02*
X9170182Y-10444460D01*
X9170182Y-10444460D02*
X9160658Y-10425412D01*
X9160658Y-10425412D02*
X9160658Y-10349222D01*
X9160658Y-10349222D02*
X9170182Y-10330174D01*
X9170182Y-10330174D02*
X9189230Y-10320650D01*
X9189230Y-10320650D02*
X9227325Y-10320650D01*
X9227325Y-10320650D02*
X9246373Y-10330174D01*
X9246373Y-10330174D02*
X9255896Y-10349222D01*
X9255896Y-10349222D02*
X9255896Y-10368270D01*
X9255896Y-10368270D02*
X9160658Y-10387317D01*
X9427325Y-10453984D02*
X9427325Y-10253984D01*
X9427325Y-10444460D02*
X9408277Y-10453984D01*
X9408277Y-10453984D02*
X9370182Y-10453984D01*
X9370182Y-10453984D02*
X9351135Y-10444460D01*
X9351135Y-10444460D02*
X9341611Y-10434936D01*
X9341611Y-10434936D02*
X9332087Y-10415889D01*
X9332087Y-10415889D02*
X9332087Y-10358746D01*
X9332087Y-10358746D02*
X9341611Y-10339698D01*
X9341611Y-10339698D02*
X9351135Y-10330174D01*
X9351135Y-10330174D02*
X9370182Y-10320650D01*
X9370182Y-10320650D02*
X9408277Y-10320650D01*
X9408277Y-10320650D02*
X9427325Y-10330174D01*
X9503516Y-10530174D02*
X9513039Y-10520650D01*
X9513039Y-10520650D02*
X9532087Y-10492079D01*
X9532087Y-10492079D02*
X9541611Y-10473031D01*
X9541611Y-10473031D02*
X9551135Y-10444460D01*
X9551135Y-10444460D02*
X9560658Y-10396841D01*
X9560658Y-10396841D02*
X9560658Y-10358746D01*
X9560658Y-10358746D02*
X9551135Y-10311127D01*
X9551135Y-10311127D02*
X9541611Y-10282555D01*
X9541611Y-10282555D02*
X9532087Y-10263508D01*
X9532087Y-10263508D02*
X9513039Y-10234936D01*
X9513039Y-10234936D02*
X9503516Y-10225412D01*
X2647500Y-10582500D02*
X2647500Y-10782500D01*
X2547500Y-10682500D02*
X2747500Y-10682500D01*
X3103515Y-10573984D02*
X3008277Y-10573984D01*
X3008277Y-10573984D02*
X2998753Y-10669222D01*
X2998753Y-10669222D02*
X3008277Y-10659698D01*
X3008277Y-10659698D02*
X3027324Y-10650174D01*
X3027324Y-10650174D02*
X3074943Y-10650174D01*
X3074943Y-10650174D02*
X3093991Y-10659698D01*
X3093991Y-10659698D02*
X3103515Y-10669222D01*
X3103515Y-10669222D02*
X3113039Y-10688270D01*
X3113039Y-10688270D02*
X3113039Y-10735889D01*
X3113039Y-10735889D02*
X3103515Y-10754936D01*
X3103515Y-10754936D02*
X3093991Y-10764460D01*
X3093991Y-10764460D02*
X3074943Y-10773984D01*
X3074943Y-10773984D02*
X3027324Y-10773984D01*
X3027324Y-10773984D02*
X3008277Y-10764460D01*
X3008277Y-10764460D02*
X2998753Y-10754936D01*
X3198753Y-10754936D02*
X3208277Y-10764460D01*
X3208277Y-10764460D02*
X3198753Y-10773984D01*
X3198753Y-10773984D02*
X3189229Y-10764460D01*
X3189229Y-10764460D02*
X3198753Y-10754936D01*
X3198753Y-10754936D02*
X3198753Y-10773984D01*
X3332086Y-10573984D02*
X3351134Y-10573984D01*
X3351134Y-10573984D02*
X3370182Y-10583508D01*
X3370182Y-10583508D02*
X3379705Y-10593031D01*
X3379705Y-10593031D02*
X3389229Y-10612079D01*
X3389229Y-10612079D02*
X3398753Y-10650174D01*
X3398753Y-10650174D02*
X3398753Y-10697793D01*
X3398753Y-10697793D02*
X3389229Y-10735889D01*
X3389229Y-10735889D02*
X3379705Y-10754936D01*
X3379705Y-10754936D02*
X3370182Y-10764460D01*
X3370182Y-10764460D02*
X3351134Y-10773984D01*
X3351134Y-10773984D02*
X3332086Y-10773984D01*
X3332086Y-10773984D02*
X3313039Y-10764460D01*
X3313039Y-10764460D02*
X3303515Y-10754936D01*
X3303515Y-10754936D02*
X3293991Y-10735889D01*
X3293991Y-10735889D02*
X3284467Y-10697793D01*
X3284467Y-10697793D02*
X3284467Y-10650174D01*
X3284467Y-10650174D02*
X3293991Y-10612079D01*
X3293991Y-10612079D02*
X3303515Y-10593031D01*
X3303515Y-10593031D02*
X3313039Y-10583508D01*
X3313039Y-10583508D02*
X3332086Y-10573984D01*
X3522562Y-10573984D02*
X3541610Y-10573984D01*
X3541610Y-10573984D02*
X3560658Y-10583508D01*
X3560658Y-10583508D02*
X3570182Y-10593031D01*
X3570182Y-10593031D02*
X3579705Y-10612079D01*
X3579705Y-10612079D02*
X3589229Y-10650174D01*
X3589229Y-10650174D02*
X3589229Y-10697793D01*
X3589229Y-10697793D02*
X3579705Y-10735889D01*
X3579705Y-10735889D02*
X3570182Y-10754936D01*
X3570182Y-10754936D02*
X3560658Y-10764460D01*
X3560658Y-10764460D02*
X3541610Y-10773984D01*
X3541610Y-10773984D02*
X3522562Y-10773984D01*
X3522562Y-10773984D02*
X3503515Y-10764460D01*
X3503515Y-10764460D02*
X3493991Y-10754936D01*
X3493991Y-10754936D02*
X3484467Y-10735889D01*
X3484467Y-10735889D02*
X3474943Y-10697793D01*
X3474943Y-10697793D02*
X3474943Y-10650174D01*
X3474943Y-10650174D02*
X3484467Y-10612079D01*
X3484467Y-10612079D02*
X3493991Y-10593031D01*
X3493991Y-10593031D02*
X3503515Y-10583508D01*
X3503515Y-10583508D02*
X3522562Y-10573984D01*
X3713039Y-10573984D02*
X3732086Y-10573984D01*
X3732086Y-10573984D02*
X3751134Y-10583508D01*
X3751134Y-10583508D02*
X3760658Y-10593031D01*
X3760658Y-10593031D02*
X3770182Y-10612079D01*
X3770182Y-10612079D02*
X3779705Y-10650174D01*
X3779705Y-10650174D02*
X3779705Y-10697793D01*
X3779705Y-10697793D02*
X3770182Y-10735889D01*
X3770182Y-10735889D02*
X3760658Y-10754936D01*
X3760658Y-10754936D02*
X3751134Y-10764460D01*
X3751134Y-10764460D02*
X3732086Y-10773984D01*
X3732086Y-10773984D02*
X3713039Y-10773984D01*
X3713039Y-10773984D02*
X3693991Y-10764460D01*
X3693991Y-10764460D02*
X3684467Y-10754936D01*
X3684467Y-10754936D02*
X3674943Y-10735889D01*
X3674943Y-10735889D02*
X3665420Y-10697793D01*
X3665420Y-10697793D02*
X3665420Y-10650174D01*
X3665420Y-10650174D02*
X3674943Y-10612079D01*
X3674943Y-10612079D02*
X3684467Y-10593031D01*
X3684467Y-10593031D02*
X3693991Y-10583508D01*
X3693991Y-10583508D02*
X3713039Y-10573984D01*
X3865420Y-10773984D02*
X3865420Y-10640650D01*
X3865420Y-10659698D02*
X3874943Y-10650174D01*
X3874943Y-10650174D02*
X3893991Y-10640650D01*
X3893991Y-10640650D02*
X3922563Y-10640650D01*
X3922563Y-10640650D02*
X3941610Y-10650174D01*
X3941610Y-10650174D02*
X3951134Y-10669222D01*
X3951134Y-10669222D02*
X3951134Y-10773984D01*
X3951134Y-10669222D02*
X3960658Y-10650174D01*
X3960658Y-10650174D02*
X3979705Y-10640650D01*
X3979705Y-10640650D02*
X4008277Y-10640650D01*
X4008277Y-10640650D02*
X4027324Y-10650174D01*
X4027324Y-10650174D02*
X4036848Y-10669222D01*
X4036848Y-10669222D02*
X4036848Y-10773984D01*
X4132086Y-10773984D02*
X4132086Y-10640650D01*
X4132086Y-10659698D02*
X4141610Y-10650174D01*
X4141610Y-10650174D02*
X4160658Y-10640650D01*
X4160658Y-10640650D02*
X4189229Y-10640650D01*
X4189229Y-10640650D02*
X4208277Y-10650174D01*
X4208277Y-10650174D02*
X4217801Y-10669222D01*
X4217801Y-10669222D02*
X4217801Y-10773984D01*
X4217801Y-10669222D02*
X4227325Y-10650174D01*
X4227325Y-10650174D02*
X4246372Y-10640650D01*
X4246372Y-10640650D02*
X4274944Y-10640650D01*
X4274944Y-10640650D02*
X4293991Y-10650174D01*
X4293991Y-10650174D02*
X4303515Y-10669222D01*
X4303515Y-10669222D02*
X4303515Y-10773984D01*
X4693991Y-10564460D02*
X4522563Y-10821603D01*
X4951134Y-10573984D02*
X4970182Y-10573984D01*
X4970182Y-10573984D02*
X4989229Y-10583508D01*
X4989229Y-10583508D02*
X4998753Y-10593031D01*
X4998753Y-10593031D02*
X5008277Y-10612079D01*
X5008277Y-10612079D02*
X5017801Y-10650174D01*
X5017801Y-10650174D02*
X5017801Y-10697793D01*
X5017801Y-10697793D02*
X5008277Y-10735889D01*
X5008277Y-10735889D02*
X4998753Y-10754936D01*
X4998753Y-10754936D02*
X4989229Y-10764460D01*
X4989229Y-10764460D02*
X4970182Y-10773984D01*
X4970182Y-10773984D02*
X4951134Y-10773984D01*
X4951134Y-10773984D02*
X4932087Y-10764460D01*
X4932087Y-10764460D02*
X4922563Y-10754936D01*
X4922563Y-10754936D02*
X4913039Y-10735889D01*
X4913039Y-10735889D02*
X4903515Y-10697793D01*
X4903515Y-10697793D02*
X4903515Y-10650174D01*
X4903515Y-10650174D02*
X4913039Y-10612079D01*
X4913039Y-10612079D02*
X4922563Y-10593031D01*
X4922563Y-10593031D02*
X4932087Y-10583508D01*
X4932087Y-10583508D02*
X4951134Y-10573984D01*
X5103515Y-10754936D02*
X5113039Y-10764460D01*
X5113039Y-10764460D02*
X5103515Y-10773984D01*
X5103515Y-10773984D02*
X5093991Y-10764460D01*
X5093991Y-10764460D02*
X5103515Y-10754936D01*
X5103515Y-10754936D02*
X5103515Y-10773984D01*
X5303515Y-10773984D02*
X5189229Y-10773984D01*
X5246372Y-10773984D02*
X5246372Y-10573984D01*
X5246372Y-10573984D02*
X5227325Y-10602555D01*
X5227325Y-10602555D02*
X5208277Y-10621603D01*
X5208277Y-10621603D02*
X5189229Y-10631127D01*
X5398753Y-10773984D02*
X5436848Y-10773984D01*
X5436848Y-10773984D02*
X5455896Y-10764460D01*
X5455896Y-10764460D02*
X5465420Y-10754936D01*
X5465420Y-10754936D02*
X5484468Y-10726365D01*
X5484468Y-10726365D02*
X5493991Y-10688270D01*
X5493991Y-10688270D02*
X5493991Y-10612079D01*
X5493991Y-10612079D02*
X5484468Y-10593031D01*
X5484468Y-10593031D02*
X5474944Y-10583508D01*
X5474944Y-10583508D02*
X5455896Y-10573984D01*
X5455896Y-10573984D02*
X5417801Y-10573984D01*
X5417801Y-10573984D02*
X5398753Y-10583508D01*
X5398753Y-10583508D02*
X5389229Y-10593031D01*
X5389229Y-10593031D02*
X5379706Y-10612079D01*
X5379706Y-10612079D02*
X5379706Y-10659698D01*
X5379706Y-10659698D02*
X5389229Y-10678746D01*
X5389229Y-10678746D02*
X5398753Y-10688270D01*
X5398753Y-10688270D02*
X5417801Y-10697793D01*
X5417801Y-10697793D02*
X5455896Y-10697793D01*
X5455896Y-10697793D02*
X5474944Y-10688270D01*
X5474944Y-10688270D02*
X5484468Y-10678746D01*
X5484468Y-10678746D02*
X5493991Y-10659698D01*
X5665420Y-10573984D02*
X5627325Y-10573984D01*
X5627325Y-10573984D02*
X5608277Y-10583508D01*
X5608277Y-10583508D02*
X5598753Y-10593031D01*
X5598753Y-10593031D02*
X5579706Y-10621603D01*
X5579706Y-10621603D02*
X5570182Y-10659698D01*
X5570182Y-10659698D02*
X5570182Y-10735889D01*
X5570182Y-10735889D02*
X5579706Y-10754936D01*
X5579706Y-10754936D02*
X5589229Y-10764460D01*
X5589229Y-10764460D02*
X5608277Y-10773984D01*
X5608277Y-10773984D02*
X5646372Y-10773984D01*
X5646372Y-10773984D02*
X5665420Y-10764460D01*
X5665420Y-10764460D02*
X5674944Y-10754936D01*
X5674944Y-10754936D02*
X5684467Y-10735889D01*
X5684467Y-10735889D02*
X5684467Y-10688270D01*
X5684467Y-10688270D02*
X5674944Y-10669222D01*
X5674944Y-10669222D02*
X5665420Y-10659698D01*
X5665420Y-10659698D02*
X5646372Y-10650174D01*
X5646372Y-10650174D02*
X5608277Y-10650174D01*
X5608277Y-10650174D02*
X5589229Y-10659698D01*
X5589229Y-10659698D02*
X5579706Y-10669222D01*
X5579706Y-10669222D02*
X5570182Y-10688270D01*
X5779706Y-10773984D02*
X5817801Y-10773984D01*
X5817801Y-10773984D02*
X5836848Y-10764460D01*
X5836848Y-10764460D02*
X5846372Y-10754936D01*
X5846372Y-10754936D02*
X5865420Y-10726365D01*
X5865420Y-10726365D02*
X5874944Y-10688270D01*
X5874944Y-10688270D02*
X5874944Y-10612079D01*
X5874944Y-10612079D02*
X5865420Y-10593031D01*
X5865420Y-10593031D02*
X5855896Y-10583508D01*
X5855896Y-10583508D02*
X5836848Y-10573984D01*
X5836848Y-10573984D02*
X5798753Y-10573984D01*
X5798753Y-10573984D02*
X5779706Y-10583508D01*
X5779706Y-10583508D02*
X5770182Y-10593031D01*
X5770182Y-10593031D02*
X5760658Y-10612079D01*
X5760658Y-10612079D02*
X5760658Y-10659698D01*
X5760658Y-10659698D02*
X5770182Y-10678746D01*
X5770182Y-10678746D02*
X5779706Y-10688270D01*
X5779706Y-10688270D02*
X5798753Y-10697793D01*
X5798753Y-10697793D02*
X5836848Y-10697793D01*
X5836848Y-10697793D02*
X5855896Y-10688270D01*
X5855896Y-10688270D02*
X5865420Y-10678746D01*
X5865420Y-10678746D02*
X5874944Y-10659698D01*
X5951134Y-10573984D02*
X5951134Y-10612079D01*
X6027325Y-10573984D02*
X6027325Y-10612079D01*
X6322563Y-10850174D02*
X6313039Y-10840650D01*
X6313039Y-10840650D02*
X6293991Y-10812079D01*
X6293991Y-10812079D02*
X6284468Y-10793031D01*
X6284468Y-10793031D02*
X6274944Y-10764460D01*
X6274944Y-10764460D02*
X6265420Y-10716841D01*
X6265420Y-10716841D02*
X6265420Y-10678746D01*
X6265420Y-10678746D02*
X6274944Y-10631127D01*
X6274944Y-10631127D02*
X6284468Y-10602555D01*
X6284468Y-10602555D02*
X6293991Y-10583508D01*
X6293991Y-10583508D02*
X6313039Y-10554936D01*
X6313039Y-10554936D02*
X6322563Y-10545412D01*
X6379706Y-10573984D02*
X6503515Y-10573984D01*
X6503515Y-10573984D02*
X6436848Y-10650174D01*
X6436848Y-10650174D02*
X6465420Y-10650174D01*
X6465420Y-10650174D02*
X6484468Y-10659698D01*
X6484468Y-10659698D02*
X6493991Y-10669222D01*
X6493991Y-10669222D02*
X6503515Y-10688270D01*
X6503515Y-10688270D02*
X6503515Y-10735889D01*
X6503515Y-10735889D02*
X6493991Y-10754936D01*
X6493991Y-10754936D02*
X6484468Y-10764460D01*
X6484468Y-10764460D02*
X6465420Y-10773984D01*
X6465420Y-10773984D02*
X6408277Y-10773984D01*
X6408277Y-10773984D02*
X6389229Y-10764460D01*
X6389229Y-10764460D02*
X6379706Y-10754936D01*
X6674944Y-10573984D02*
X6636848Y-10573984D01*
X6636848Y-10573984D02*
X6617801Y-10583508D01*
X6617801Y-10583508D02*
X6608277Y-10593031D01*
X6608277Y-10593031D02*
X6589229Y-10621603D01*
X6589229Y-10621603D02*
X6579706Y-10659698D01*
X6579706Y-10659698D02*
X6579706Y-10735889D01*
X6579706Y-10735889D02*
X6589229Y-10754936D01*
X6589229Y-10754936D02*
X6598753Y-10764460D01*
X6598753Y-10764460D02*
X6617801Y-10773984D01*
X6617801Y-10773984D02*
X6655896Y-10773984D01*
X6655896Y-10773984D02*
X6674944Y-10764460D01*
X6674944Y-10764460D02*
X6684468Y-10754936D01*
X6684468Y-10754936D02*
X6693991Y-10735889D01*
X6693991Y-10735889D02*
X6693991Y-10688270D01*
X6693991Y-10688270D02*
X6684468Y-10669222D01*
X6684468Y-10669222D02*
X6674944Y-10659698D01*
X6674944Y-10659698D02*
X6655896Y-10650174D01*
X6655896Y-10650174D02*
X6617801Y-10650174D01*
X6617801Y-10650174D02*
X6598753Y-10659698D01*
X6598753Y-10659698D02*
X6589229Y-10669222D01*
X6589229Y-10669222D02*
X6579706Y-10688270D01*
X6932087Y-10773984D02*
X6932087Y-10573984D01*
X7017801Y-10773984D02*
X7017801Y-10669222D01*
X7017801Y-10669222D02*
X7008277Y-10650174D01*
X7008277Y-10650174D02*
X6989230Y-10640650D01*
X6989230Y-10640650D02*
X6960658Y-10640650D01*
X6960658Y-10640650D02*
X6941610Y-10650174D01*
X6941610Y-10650174D02*
X6932087Y-10659698D01*
X7141610Y-10773984D02*
X7122563Y-10764460D01*
X7122563Y-10764460D02*
X7113039Y-10754936D01*
X7113039Y-10754936D02*
X7103515Y-10735889D01*
X7103515Y-10735889D02*
X7103515Y-10678746D01*
X7103515Y-10678746D02*
X7113039Y-10659698D01*
X7113039Y-10659698D02*
X7122563Y-10650174D01*
X7122563Y-10650174D02*
X7141610Y-10640650D01*
X7141610Y-10640650D02*
X7170182Y-10640650D01*
X7170182Y-10640650D02*
X7189230Y-10650174D01*
X7189230Y-10650174D02*
X7198753Y-10659698D01*
X7198753Y-10659698D02*
X7208277Y-10678746D01*
X7208277Y-10678746D02*
X7208277Y-10735889D01*
X7208277Y-10735889D02*
X7198753Y-10754936D01*
X7198753Y-10754936D02*
X7189230Y-10764460D01*
X7189230Y-10764460D02*
X7170182Y-10773984D01*
X7170182Y-10773984D02*
X7141610Y-10773984D01*
X7322563Y-10773984D02*
X7303515Y-10764460D01*
X7303515Y-10764460D02*
X7293991Y-10745412D01*
X7293991Y-10745412D02*
X7293991Y-10573984D01*
X7474944Y-10764460D02*
X7455896Y-10773984D01*
X7455896Y-10773984D02*
X7417801Y-10773984D01*
X7417801Y-10773984D02*
X7398753Y-10764460D01*
X7398753Y-10764460D02*
X7389230Y-10745412D01*
X7389230Y-10745412D02*
X7389230Y-10669222D01*
X7389230Y-10669222D02*
X7398753Y-10650174D01*
X7398753Y-10650174D02*
X7417801Y-10640650D01*
X7417801Y-10640650D02*
X7455896Y-10640650D01*
X7455896Y-10640650D02*
X7474944Y-10650174D01*
X7474944Y-10650174D02*
X7484468Y-10669222D01*
X7484468Y-10669222D02*
X7484468Y-10688270D01*
X7484468Y-10688270D02*
X7389230Y-10707317D01*
X7560658Y-10764460D02*
X7579706Y-10773984D01*
X7579706Y-10773984D02*
X7617801Y-10773984D01*
X7617801Y-10773984D02*
X7636849Y-10764460D01*
X7636849Y-10764460D02*
X7646372Y-10745412D01*
X7646372Y-10745412D02*
X7646372Y-10735889D01*
X7646372Y-10735889D02*
X7636849Y-10716841D01*
X7636849Y-10716841D02*
X7617801Y-10707317D01*
X7617801Y-10707317D02*
X7589230Y-10707317D01*
X7589230Y-10707317D02*
X7570182Y-10697793D01*
X7570182Y-10697793D02*
X7560658Y-10678746D01*
X7560658Y-10678746D02*
X7560658Y-10669222D01*
X7560658Y-10669222D02*
X7570182Y-10650174D01*
X7570182Y-10650174D02*
X7589230Y-10640650D01*
X7589230Y-10640650D02*
X7617801Y-10640650D01*
X7617801Y-10640650D02*
X7636849Y-10650174D01*
X7713039Y-10850174D02*
X7722563Y-10840650D01*
X7722563Y-10840650D02*
X7741611Y-10812079D01*
X7741611Y-10812079D02*
X7751134Y-10793031D01*
X7751134Y-10793031D02*
X7760658Y-10764460D01*
X7760658Y-10764460D02*
X7770182Y-10716841D01*
X7770182Y-10716841D02*
X7770182Y-10678746D01*
X7770182Y-10678746D02*
X7760658Y-10631127D01*
X7760658Y-10631127D02*
X7751134Y-10602555D01*
X7751134Y-10602555D02*
X7741611Y-10583508D01*
X7741611Y-10583508D02*
X7722563Y-10554936D01*
X7722563Y-10554936D02*
X7713039Y-10545412D01*
X8074944Y-10850174D02*
X8065420Y-10840650D01*
X8065420Y-10840650D02*
X8046372Y-10812079D01*
X8046372Y-10812079D02*
X8036849Y-10793031D01*
X8036849Y-10793031D02*
X8027325Y-10764460D01*
X8027325Y-10764460D02*
X8017801Y-10716841D01*
X8017801Y-10716841D02*
X8017801Y-10678746D01*
X8017801Y-10678746D02*
X8027325Y-10631127D01*
X8027325Y-10631127D02*
X8036849Y-10602555D01*
X8036849Y-10602555D02*
X8046372Y-10583508D01*
X8046372Y-10583508D02*
X8065420Y-10554936D01*
X8065420Y-10554936D02*
X8074944Y-10545412D01*
X8151134Y-10640650D02*
X8151134Y-10773984D01*
X8151134Y-10659698D02*
X8160658Y-10650174D01*
X8160658Y-10650174D02*
X8179706Y-10640650D01*
X8179706Y-10640650D02*
X8208277Y-10640650D01*
X8208277Y-10640650D02*
X8227325Y-10650174D01*
X8227325Y-10650174D02*
X8236849Y-10669222D01*
X8236849Y-10669222D02*
X8236849Y-10773984D01*
X8360658Y-10773984D02*
X8341611Y-10764460D01*
X8341611Y-10764460D02*
X8332087Y-10754936D01*
X8332087Y-10754936D02*
X8322563Y-10735889D01*
X8322563Y-10735889D02*
X8322563Y-10678746D01*
X8322563Y-10678746D02*
X8332087Y-10659698D01*
X8332087Y-10659698D02*
X8341611Y-10650174D01*
X8341611Y-10650174D02*
X8360658Y-10640650D01*
X8360658Y-10640650D02*
X8389230Y-10640650D01*
X8389230Y-10640650D02*
X8408277Y-10650174D01*
X8408277Y-10650174D02*
X8417801Y-10659698D01*
X8417801Y-10659698D02*
X8427325Y-10678746D01*
X8427325Y-10678746D02*
X8427325Y-10735889D01*
X8427325Y-10735889D02*
X8417801Y-10754936D01*
X8417801Y-10754936D02*
X8408277Y-10764460D01*
X8408277Y-10764460D02*
X8389230Y-10773984D01*
X8389230Y-10773984D02*
X8360658Y-10773984D01*
X8484468Y-10640650D02*
X8560658Y-10640650D01*
X8513039Y-10573984D02*
X8513039Y-10745412D01*
X8513039Y-10745412D02*
X8522563Y-10764460D01*
X8522563Y-10764460D02*
X8541611Y-10773984D01*
X8541611Y-10773984D02*
X8560658Y-10773984D01*
X8779706Y-10640650D02*
X8779706Y-10840650D01*
X8779706Y-10650174D02*
X8798754Y-10640650D01*
X8798754Y-10640650D02*
X8836849Y-10640650D01*
X8836849Y-10640650D02*
X8855896Y-10650174D01*
X8855896Y-10650174D02*
X8865420Y-10659698D01*
X8865420Y-10659698D02*
X8874944Y-10678746D01*
X8874944Y-10678746D02*
X8874944Y-10735889D01*
X8874944Y-10735889D02*
X8865420Y-10754936D01*
X8865420Y-10754936D02*
X8855896Y-10764460D01*
X8855896Y-10764460D02*
X8836849Y-10773984D01*
X8836849Y-10773984D02*
X8798754Y-10773984D01*
X8798754Y-10773984D02*
X8779706Y-10764460D01*
X8989230Y-10773984D02*
X8970182Y-10764460D01*
X8970182Y-10764460D02*
X8960658Y-10745412D01*
X8960658Y-10745412D02*
X8960658Y-10573984D01*
X9151135Y-10773984D02*
X9151135Y-10669222D01*
X9151135Y-10669222D02*
X9141611Y-10650174D01*
X9141611Y-10650174D02*
X9122563Y-10640650D01*
X9122563Y-10640650D02*
X9084468Y-10640650D01*
X9084468Y-10640650D02*
X9065420Y-10650174D01*
X9151135Y-10764460D02*
X9132087Y-10773984D01*
X9132087Y-10773984D02*
X9084468Y-10773984D01*
X9084468Y-10773984D02*
X9065420Y-10764460D01*
X9065420Y-10764460D02*
X9055896Y-10745412D01*
X9055896Y-10745412D02*
X9055896Y-10726365D01*
X9055896Y-10726365D02*
X9065420Y-10707317D01*
X9065420Y-10707317D02*
X9084468Y-10697793D01*
X9084468Y-10697793D02*
X9132087Y-10697793D01*
X9132087Y-10697793D02*
X9151135Y-10688270D01*
X9217801Y-10640650D02*
X9293992Y-10640650D01*
X9246373Y-10573984D02*
X9246373Y-10745412D01*
X9246373Y-10745412D02*
X9255896Y-10764460D01*
X9255896Y-10764460D02*
X9274944Y-10773984D01*
X9274944Y-10773984D02*
X9293992Y-10773984D01*
X9436849Y-10764460D02*
X9417801Y-10773984D01*
X9417801Y-10773984D02*
X9379706Y-10773984D01*
X9379706Y-10773984D02*
X9360658Y-10764460D01*
X9360658Y-10764460D02*
X9351135Y-10745412D01*
X9351135Y-10745412D02*
X9351135Y-10669222D01*
X9351135Y-10669222D02*
X9360658Y-10650174D01*
X9360658Y-10650174D02*
X9379706Y-10640650D01*
X9379706Y-10640650D02*
X9417801Y-10640650D01*
X9417801Y-10640650D02*
X9436849Y-10650174D01*
X9436849Y-10650174D02*
X9446373Y-10669222D01*
X9446373Y-10669222D02*
X9446373Y-10688270D01*
X9446373Y-10688270D02*
X9351135Y-10707317D01*
X9617801Y-10773984D02*
X9617801Y-10573984D01*
X9617801Y-10764460D02*
X9598754Y-10773984D01*
X9598754Y-10773984D02*
X9560658Y-10773984D01*
X9560658Y-10773984D02*
X9541611Y-10764460D01*
X9541611Y-10764460D02*
X9532087Y-10754936D01*
X9532087Y-10754936D02*
X9522563Y-10735889D01*
X9522563Y-10735889D02*
X9522563Y-10678746D01*
X9522563Y-10678746D02*
X9532087Y-10659698D01*
X9532087Y-10659698D02*
X9541611Y-10650174D01*
X9541611Y-10650174D02*
X9560658Y-10640650D01*
X9560658Y-10640650D02*
X9598754Y-10640650D01*
X9598754Y-10640650D02*
X9617801Y-10650174D01*
X9693992Y-10850174D02*
X9703516Y-10840650D01*
X9703516Y-10840650D02*
X9722563Y-10812079D01*
X9722563Y-10812079D02*
X9732087Y-10793031D01*
X9732087Y-10793031D02*
X9741611Y-10764460D01*
X9741611Y-10764460D02*
X9751135Y-10716841D01*
X9751135Y-10716841D02*
X9751135Y-10678746D01*
X9751135Y-10678746D02*
X9741611Y-10631127D01*
X9741611Y-10631127D02*
X9732087Y-10602555D01*
X9732087Y-10602555D02*
X9722563Y-10583508D01*
X9722563Y-10583508D02*
X9703516Y-10554936D01*
X9703516Y-10554936D02*
X9693992Y-10545412D01*
M02*
